<?xml version="1.0" encoding="utf-8"?>
<!-- Generator: Adobe Illustrator 26.0.3, SVG Export Plug-In . SVG Version: 6.00 Build 0)  -->
<svg version="1.1" id="Layer_1" xmlns="http://www.w3.org/2000/svg" xmlns:xlink="http://www.w3.org/1999/xlink" x="0px" y="0px"
	 viewBox="0 0 170 50" style="enable-background:new 0 0 170 50;" xml:space="preserve">
<style type="text/css">
	.st0{fill:#FFFFFF;}
	.st1{clip-path:url(#SVGID_00000106107746554131923820000007891688512547749780_);}
	.st2{fill:#00AC8D;}
	.st3{fill:#223F99;}
	.st4{fill-rule:evenodd;clip-rule:evenodd;fill:#FFFFFF;}
	.st5{clip-path:url(#SVGID_00000075848039347533921950000004221899148414020522_);}
	.st6{fill:#00B48D;}
	.st7{fill:#164D92;}
	.st8{fill:#231F20;}
</style>
<path class="st0" d="M7.1,31.7L17.5,2.9h7.3l10.5,28.9v1.8h-6.8l-2.6-7.8H15.2l-2.5,7.8H7.1V31.7z M16.7,21h7.6L20.5,9.7h-0.1
	L16.7,21z"/>
<path class="st0" d="M37.3,31.9v-4.7h2.1c1.6,1.3,3.7,2,5.8,1.9c2.7,0,4.1-0.7,4.1-2.1s-0.9-2.1-4.2-2.5c-5.2-0.6-7.9-2.5-7.9-7
	s3.6-7.2,9.4-7.2c2.6-0.1,5.1,0.5,7.4,1.6v4.6h-2c-1.6-1-3.5-1.5-5.4-1.5c-2.6,0-3.5,0.7-3.5,2s1.2,1.8,4.4,2.2c5.6,0.7,8,2.5,8,7.1
	s-3,7.5-9.9,7.5C42.7,33.9,39.8,33.2,37.3,31.9"/>
<path class="st0" d="M56.1,10.5h2.8V4.4h6.6v6.1h4.8v4.3h-4.8v11.8c0,2.2,0.9,2.8,3.1,2.8h1.8v3.9c-1.3,0.4-2.7,0.6-4.2,0.6
	c-4.5,0-7.3-1.8-7.3-6.5V14.8h-2.8V10.5z"/>
<path class="st0" d="M77.8,23.5c0.3,4.6,2.6,5.9,6.2,5.9c2.2,0,4.4-0.6,6.3-1.9h2v4.2c-2.8,1.6-6.1,2.4-9.3,2.2
	c-7.8,0-12-4.5-12-11.7c0-7.4,5-12,11.5-12c7,0,10.7,3.7,10.7,11.3c0,0.8-0.1,1.8-0.1,2H77.8z M77.9,19.6h8.8
	c-0.1-4.1-1.6-5.4-4.2-5.4C80.3,14.2,78.4,15.3,77.9,19.6"/>
<path class="st0" d="M103,16.9v16.6h-6.6v-23h4.5c1.1,0,1.8,0.5,2,2.8c1.7-1.9,4.1-3,6.6-3c0.5,0,1,0.1,1.4,0.2v5h-1.1
	C107.5,15.5,105.1,15.9,103,16.9"/>
<polygon class="st0" points="25,46.5 24.7,46.5 23.4,40.9 22.8,40.9 21.4,46.5 21.1,46.5 20,40.8 19.5,40.8 20.7,47 21.8,47 
	23.1,41.6 24.3,47 25.4,47 26.7,40.8 26.1,40.8 "/>
<path class="st0" d="M29.1,42.5c-1.1,0-1.8,0.6-1.8,2.3c0,1.5,0.4,2.3,1.7,2.3c0.6,0,1.1-0.1,1.7-0.1v-0.4c0,0-1,0.1-1.6,0.1
	c-0.9,0-1.2-0.6-1.2-1.6h3v-0.4C30.9,43.1,30.3,42.5,29.1,42.5z M27.8,44.6c0-1.2,0.5-1.6,1.3-1.6s1.2,0.4,1.2,1.6H27.8z"/>
<polygon class="st0" points="31.7,42.5 32.1,42.5 32.6,40.7 32.1,40.7 "/>
<rect x="33.8" y="40.6" class="st0" width="0.5" height="6.5"/>
<rect x="35.7" y="40.6" class="st0" width="0.5" height="6.5"/>
<polygon class="st0" points="43.5,40.8 39.1,40.8 39.1,41.3 41,41.3 41,47 41.6,47 41.6,41.3 43.5,41.3 "/>
<path class="st0" d="M44,42.6h-0.5V47H44v-3.4c0.5-0.3,1.1-0.5,1.7-0.7v-0.5c-0.6,0.1-1.2,0.4-1.7,0.7L44,42.6z"/>
<path class="st0" d="M48,42.5c-1.1,0-1.8,0.6-1.8,2.3c0,1.5,0.4,2.3,1.7,2.3c0.6,0,1.1-0.1,1.7-0.1v-0.4c0,0-1,0.1-1.6,0.1
	c-0.9,0-1.2-0.6-1.2-1.6h3v-0.4C49.8,43.1,49.2,42.5,48,42.5z M46.8,44.6c0-1.2,0.5-1.6,1.3-1.6s1.2,0.4,1.2,1.6H46.8z"/>
<path class="st0" d="M54,46.3v-2.4c0-1-0.4-1.4-1.4-1.4c-0.6,0-1.2,0.1-1.7,0.2v0.4c0,0,1-0.1,1.7-0.1s0.9,0.3,0.9,0.9v0.4l-1.5,0.2
	c-0.9,0.1-1.3,0.5-1.3,1.3s0.4,1.3,1.2,1.3c0.6,0,1.2-0.1,1.7-0.4c0.3,0.3,0.6,0.4,1,0.4v-0.4C54.3,46.7,54,46.6,54,46.3z
	 M53.5,46.4c-0.5,0.2-1,0.3-1.5,0.3c-0.5,0-0.8-0.3-0.8-0.9c-0.1-0.4,0.2-0.8,0.7-0.9c0,0,0.1,0,0.1,0l1.5-0.2L53.5,46.4z"/>
<path class="st0" d="M56.8,46.7c-0.6,0-0.7-0.3-0.7-1.4V43h1.5v-0.5h-1.5v-1.4h-0.5v1.4h-0.7V43h0.7v2.5c0,1.3,0.3,1.6,1.2,1.6
	c0.3,0,0.6,0,0.9-0.1v-0.5C57.7,46.6,57.1,46.7,56.8,46.7z"/>
<polygon class="st0" points="63.8,40.8 62.2,43.8 60.5,40.8 59.9,40.8 61.9,44.4 61.9,47 62.4,47 62.4,44.4 64.4,40.8 "/>
<path class="st0" d="M66.3,42.5c-1.4,0-1.9,0.7-1.9,2.3s0.4,2.4,1.9,2.4s1.9-0.7,1.9-2.4S67.6,42.5,66.3,42.5z M66.3,46.7
	c-1.2,0-1.3-0.5-1.3-1.9s0.3-1.8,1.3-1.8s1.3,0.5,1.3,1.8S67.4,46.7,66.3,46.7z"/>
<path class="st0" d="M72.1,46.3c-0.4,0.2-0.8,0.4-1.3,0.4c-0.9,0-1-0.4-1-1.8v-2.3h-0.5v2.3c0,1.7,0.2,2.2,1.5,2.2
	c0.5,0,1-0.2,1.4-0.4v0.3h0.5v-4.5h-0.5L72.1,46.3z"/>
<polygon class="st0" points="81.1,46.5 80.8,46.5 79.5,40.9 78.9,40.9 77.6,46.5 77.3,46.5 76.1,40.8 75.6,40.8 76.8,47 78,47 
	79.2,41.6 80.4,47 81.5,47 82.8,40.8 82.2,40.8 "/>
<path class="st0" d="M85.2,42.5c-1.1,0-1.8,0.6-1.8,2.3c0,1.5,0.4,2.3,1.7,2.3c0.6,0,1.1-0.1,1.7-0.1v-0.4c0,0-1,0.1-1.6,0.1
	c-0.9,0-1.2-0.6-1.2-1.6h3v-0.4C87,43.1,86.4,42.5,85.2,42.5z M83.9,44.6c0-1.2,0.5-1.6,1.3-1.6s1.2,0.4,1.2,1.6H83.9z"/>
<rect x="88.1" y="40.6" class="st0" width="0.5" height="6.5"/>
<rect x="90.1" y="40.6" class="st0" width="0.5" height="6.5"/>
<path class="st0" d="M162.7,25c0,12.1-9.8,21.9-21.9,21.9s-21.9-9.8-21.9-21.9c0-12.1,9.8-21.9,21.9-21.9
	C152.9,3.1,162.7,12.9,162.7,25L162.7,25z"/>
<g>
	<defs>
		<path id="SVGID_1_" d="M156.1,24.6c0,8.5-6.9,15.4-15.4,15.4c-8.5,0-15.4-6.9-15.4-15.4s6.9-15.4,15.4-15.4c0,0,0,0,0,0
			C149.2,9.2,156.1,16.1,156.1,24.6C156.1,24.6,156.1,24.6,156.1,24.6z"/>
	</defs>
	<clipPath id="SVGID_00000170997539368746952680000004285926243936932251_">
		<use xlink:href="#SVGID_1_"  style="overflow:visible;"/>
	</clipPath>
	<g style="clip-path:url(#SVGID_00000170997539368746952680000004285926243936932251_);">
		<path class="st2" d="M124.6,24.5c0-8.9,7.2-16.1,16.1-16.1s16.1,7.2,16.1,16.1c0,8.9-7.2,16.1-16.1,16.1
			C131.8,40.6,124.6,33.4,124.6,24.5C124.6,24.5,124.6,24.5,124.6,24.5z"/>
		<path class="st3" d="M124.5,24.3c0-8.9,7.2-16.1,16-16.1c0,0,0,0,0,0c7.4,0,13.8,4.5,15.8,11.2c-0.3,0.3-0.7,0.5-1.1,0.5
			c-1.2,0-2.9,1.6-2.9,1.6l-3.2,3.6l-5.8,5.8c0,0-0.5,0.1-0.6-0.9s-0.8-4.4-0.8-4.4c-0.3,0.8-0.8,1.6-1.4,2.2
			c-1.1,1.2-5.8,3.9-8.8,4.1c-1.6,0.2-3.3-0.4-4.5-1.5c-0.6-1.1-1.3-2.1-2.2-3.1C124.6,26.4,124.5,25.4,124.5,24.3z"/>
	</g>
</g>
<path class="st4" d="M143.1,20c0,0-0.2-0.1-0.4,0.7c-0.2,1.1-0.3,2.2-0.3,3.3c0.7-1.1,1.2-2.3,1.4-3.5C143.8,19.7,143.1,20,143.1,20
	z M139.2,24.6C139.2,24.6,139.2,24.7,139.2,24.6c0.2,0,0.3,0,0.5,0.1c0.2,0.2,0.3,0.6,0.2,0.7s-2.2,1.4-2.7,1.2s-2.4-2.1-3.6-2.9
	s-6.9-2.6-7.1,2.2s4.7,6.2,7.8,5.1s6.6-5.2,6.6-5.2c-0.1-3.6,0.3-4.6,1-6s3.1-1.6,2.7,0.9c-0.4,1.8-1.2,3.4-2.3,4.8
	c0.5,1.5,0.8,3.1,1,4.7c0,0,5.5-6.4,7.8-8.8s4.2-1.5,4.2-1.5c-0.5,0.2-0.7,2-0.8,2.3s-0.7,0-0.7,0l0.1-0.6c-1-1.5-3.1,1.2-4.1,3.4
	c-0.8,2.2-1.3,4.4-1.6,6.7l1.5,0.1v0.8c-1,0.1-2.1,0.5-3,0.9c0-0.5,0-1.1,0-1.6c0.1-1.4,1.2-5.6,1.2-5.6s-1.8,1.9-2.4,2.7
	s-3.6,4.2-3.6,4.2l-0.5-0.5c0.2-0.9,0.3-1.9,0.3-2.9c-0.1-0.8-0.5-2.6-0.5-2.6l-1.2,1.2c-1.4,1.4-3,2.5-4.8,3.4
	c-9.4,2.9-11.4-5.5-8.9-8.5s6-1.8,6.9-1.5c1.1,0.5,4.6,3.3,5.1,3.4S139.1,24.8,139.2,24.6C139.3,24.6,139.2,24.7,139.2,24.6
	L139.2,24.6z"/>
<path class="st0" d="M162.7,25c0,12.1-9.8,21.9-21.9,21.9s-21.9-9.8-21.9-21.9c0-12.1,9.8-21.9,21.9-21.9
	C152.9,3.1,162.7,12.9,162.7,25L162.7,25z"/>
<g>
	<defs>
		<path id="SVGID_00000044176653678808425180000012660360826784082605_" d="M156.1,24.6c0,8.5-6.9,15.4-15.4,15.4
			c-8.5,0-15.4-6.9-15.4-15.4s6.9-15.4,15.4-15.4c0,0,0,0,0,0C149.2,9.2,156.1,16.1,156.1,24.6C156.1,24.6,156.1,24.6,156.1,24.6z"
			/>
	</defs>
	<clipPath id="SVGID_00000111156508961778779490000008424491031323706555_">
		<use xlink:href="#SVGID_00000044176653678808425180000012660360826784082605_"  style="overflow:visible;"/>
	</clipPath>
	<g style="clip-path:url(#SVGID_00000111156508961778779490000008424491031323706555_);">
		<path class="st6" d="M124.6,24.5c0-8.9,7.2-16.1,16.1-16.1s16.1,7.2,16.1,16.1c0,8.9-7.2,16.1-16.1,16.1
			C131.8,40.6,124.6,33.4,124.6,24.5C124.6,24.5,124.6,24.5,124.6,24.5z"/>
		<path class="st7" d="M124.5,24.3c0-8.9,7.2-16.1,16-16.1c0,0,0,0,0,0c7.4,0,13.8,4.5,15.8,11.2c-0.3,0.3-0.7,0.5-1.1,0.5
			c-1.2,0-2.9,1.6-2.9,1.6l-3.2,3.6l-5.8,5.8c0,0-0.5,0.1-0.6-0.9s-0.8-4.4-0.8-4.4c-0.3,0.8-0.8,1.6-1.4,2.2
			c-1.1,1.2-5.8,3.9-8.8,4.1c-1.6,0.2-3.3-0.4-4.5-1.5c-0.6-1.1-1.3-2.1-2.2-3.1C124.6,26.4,124.5,25.4,124.5,24.3z"/>
	</g>
</g>
<path class="st4" d="M143.1,20c0,0-0.2-0.1-0.4,0.7c-0.2,1.1-0.3,2.2-0.3,3.3c0.7-1.1,1.2-2.3,1.4-3.5C143.8,19.7,143.1,20,143.1,20
	z M139.2,24.6C139.2,24.6,139.2,24.7,139.2,24.6c0.2,0,0.3,0,0.5,0.1c0.2,0.2,0.3,0.6,0.2,0.7s-2.2,1.4-2.7,1.2s-2.4-2.1-3.6-2.9
	s-6.9-2.6-7.1,2.2s4.7,6.2,7.8,5.1s6.6-5.2,6.6-5.2c-0.1-3.6,0.3-4.6,1-6s3.1-1.6,2.7,0.9c-0.4,1.8-1.2,3.4-2.3,4.8
	c0.5,1.5,0.8,3.1,1,4.7c0,0,5.5-6.4,7.8-8.8s4.2-1.5,4.2-1.5c-0.5,0.2-0.7,2-0.8,2.3s-0.7,0-0.7,0l0.1-0.6c-1-1.5-3.1,1.2-4.1,3.4
	c-0.8,2.2-1.3,4.4-1.6,6.7l1.5,0.1v0.8c-1,0.1-2.1,0.5-3,0.9c0-0.5,0-1.1,0-1.6c0.1-1.4,1.2-5.6,1.2-5.6s-1.8,1.9-2.4,2.7
	s-3.6,4.2-3.6,4.2l-0.5-0.5c0.2-0.9,0.3-1.9,0.3-2.9c-0.1-0.8-0.5-2.6-0.5-2.6l-1.2,1.2c-1.4,1.4-3,2.5-4.8,3.4
	c-9.4,2.9-11.4-5.5-8.9-8.5s6-1.8,6.9-1.5c1.1,0.5,4.6,3.3,5.1,3.4S139.1,24.8,139.2,24.6C139.3,24.6,139.2,24.7,139.2,24.6
	L139.2,24.6z"/>
<path class="st8" d="M131,39.5l-0.5,0c0-0.1,0-0.2,0-0.3c0-0.1-0.1-0.2-0.2-0.2c-0.1-0.1-0.2-0.1-0.4-0.1c-0.1,0-0.2,0.1-0.3,0.2
	c-0.1,0.2-0.1,0.4,0.1,0.5l0.2,0.3c0.1,0.2,0.2,0.4,0.2,0.7c0,0.2-0.1,0.4-0.2,0.6c-0.2,0.2-0.4,0.4-0.7,0.4c-0.3,0-0.6,0-0.8-0.2
	c-0.2-0.1-0.4-0.4-0.4-0.6c0-0.3,0-0.5,0.2-0.8l0.5,0.2c-0.1,0.1-0.1,0.3-0.1,0.4c0,0.3,0.3,0.6,0.6,0.6c0,0,0,0,0.1,0
	c0.1,0,0.3-0.1,0.4-0.2c0-0.1,0.1-0.1,0.1-0.2c0-0.1,0-0.1,0-0.2c0-0.1,0-0.1,0-0.2c0-0.1-0.1-0.2-0.1-0.2l-0.2-0.3
	c-0.2-0.3-0.2-0.8,0-1.1c0.1-0.2,0.4-0.3,0.6-0.3c0.3,0,0.5,0.1,0.7,0.2C131,38.8,131.1,39.2,131,39.5z"/>
<path class="st8" d="M132.2,39.7l-1.7,2.9l-0.4-0.3l1.7-2.9L132.2,39.7z"/>
<path class="st8" d="M131.4,43.1l1.4-3.3l1.2,3.3L135,41l0.5,0.2l-1.4,3.3l-1.3-3.3l-0.9,2.2L131.4,43.1z"/>
<path class="st8" d="M138.4,42l-0.1,0.6c-0.2-0.3-0.5-0.5-0.8-0.5c-0.3-0.1-0.7,0-0.9,0.2c-0.3,0.2-0.5,0.5-0.5,0.8
	c-0.1,0.3,0,0.7,0.1,0.9c0.2,0.3,0.5,0.5,0.8,0.5c0.2,0,0.3,0,0.5,0c0.1,0,0.2,0,0.2-0.1l0.3-0.1l-0.1,0.6c-0.3,0.1-0.6,0.1-0.9,0
	c-0.9-0.2-1.5-1.1-1.3-2c0.2-0.9,1.1-1.5,2.1-1.3C137.9,41.7,138.2,41.8,138.4,42z"/>
<path class="st8" d="M140.7,42.5l-1.3-0.1l-0.1,0.8l1.3,0.1v0.5l-1.3-0.1l-0.1,1.1l1.3,0.1v0.5l-1.8-0.1l0.2-3.3l1.8,0.1L140.7,42.5
	z"/>
<path class="st8" d="M143.3,42.2l-0.6,0.1l0.2-0.5l0.8-0.1l0.5,3.3l-0.5,0.1L143.3,42.2z"/>
<path class="st8" d="M146.1,44.7l-0.4-0.2l0.5-1.3h-0.1H146c-0.3,0.1-0.5,0-0.8-0.1c-0.2-0.1-0.4-0.4-0.5-0.6
	c-0.1-0.3,0-0.6,0.1-0.8c0.1-0.3,0.4-0.5,0.7-0.5c0.3-0.1,0.6,0,0.9,0.1c0.3,0.1,0.5,0.4,0.5,0.6c0.1,0.3,0,0.6-0.1,0.9L146.1,44.7z
	 M145.2,42.4c0,0.2,0.2,0.3,0.3,0.4c0.1,0.1,0.3,0.1,0.5,0.1c0.2,0,0.3-0.2,0.4-0.3c0.1-0.1,0.1-0.3,0.1-0.5
	c-0.1-0.3-0.4-0.5-0.8-0.4c0,0,0,0,0,0c-0.2,0-0.3,0.1-0.4,0.3C145.2,42.1,145.2,42.3,145.2,42.4z"/>
<path class="st8" d="M148,42.1c-0.3,0-0.5-0.2-0.6-0.5c-0.1-0.2-0.1-0.5,0-0.7c0.1-0.2,0.3-0.4,0.5-0.5c0.2-0.1,0.5-0.1,0.7,0
	c0.2,0.1,0.4,0.3,0.5,0.5c0.1,0.2,0.1,0.5,0,0.8c0.2,0,0.3,0.1,0.4,0.2c0.1,0.1,0.2,0.2,0.3,0.4c0.1,0.2,0.1,0.5,0,0.8
	c-0.1,0.3-0.3,0.5-0.6,0.6c-0.2,0.1-0.5,0.2-0.8,0.1c-0.3-0.1-0.5-0.3-0.6-0.5C147.8,42.8,147.8,42.4,148,42.1z M147.8,41.4
	c0.1,0.1,0.2,0.2,0.3,0.3c0.3,0.1,0.6,0,0.6-0.3c0.1-0.1,0.1-0.3,0-0.4c-0.1-0.1-0.2-0.2-0.3-0.3c-0.1-0.1-0.3-0.1-0.4,0
	c-0.1,0.1-0.2,0.2-0.3,0.3C147.8,41.2,147.8,41.3,147.8,41.4L147.8,41.4z M148.4,42.8c0.1,0.1,0.2,0.2,0.3,0.3
	c0.1,0.1,0.3,0.1,0.4,0c0.1-0.1,0.2-0.2,0.3-0.3c0.1-0.1,0.1-0.3,0-0.4c-0.1-0.1-0.2-0.2-0.3-0.3c-0.1-0.1-0.3-0.1-0.4,0
	c-0.1,0.1-0.2,0.2-0.3,0.3C148.3,42.5,148.3,42.7,148.4,42.8L148.4,42.8z"/>
<path class="st8" d="M150.7,39.4l-1.4,0.9l-0.2-0.4l2.1-1.3l0.1,4h-0.5L150.7,39.4z"/>
<path class="st8" d="M140.8,47.2c-12.2,0-22.1-9.9-22.1-22.2c0-12.2,9.9-22.1,22.2-22.1c12.2,0,22.1,9.9,22.1,22.1
	C162.9,37.2,153,47.1,140.8,47.2z M140.8,3.1c-12.1,0-21.9,9.8-21.9,21.9s9.8,21.9,21.9,21.9s21.9-9.8,21.9-21.9
	C162.7,12.9,152.9,3.1,140.8,3.1z"/>
<path class="st8" d="M123.6,20.5l-0.3,1.4l0.7,0.5l-0.1,0.5l-3.1-2.4l3.8-0.8l-0.1,0.5L123.6,20.5z M123.1,20.6l-1.2,0.2l1,0.8
	L123.1,20.6z"/>
<path class="st8" d="M122.8,16.8l0.1,0.5c-0.1,0-0.2,0-0.3,0.1c-0.1,0.1-0.1,0.1-0.2,0.2c0,0.1,0,0.2,0,0.4c0,0.1,0.1,0.2,0.2,0.2
	c0.2,0.1,0.3,0,0.5-0.2l0.2-0.3c0.2-0.2,0.4-0.3,0.6-0.4c0.2-0.1,0.4-0.1,0.6,0c0.3,0.1,0.5,0.3,0.6,0.6c0.1,0.3,0.1,0.6,0,0.8
	c-0.1,0.3-0.3,0.5-0.5,0.6c-0.3,0.1-0.5,0.1-0.8,0.1l0.1-0.5c0.1,0,0.3,0,0.4,0c0.2,0,0.3-0.2,0.4-0.3c0.1-0.1,0.1-0.3,0-0.4
	c-0.1-0.1-0.2-0.2-0.3-0.3h-0.2c-0.1,0-0.1,0-0.2,0c-0.1,0-0.1,0-0.2,0.1c-0.1,0-0.1,0.1-0.2,0.1l-0.2,0.2c-0.2,0.3-0.6,0.4-1,0.3
	c-0.2-0.1-0.4-0.3-0.5-0.5c-0.2-0.5,0.1-1.1,0.7-1.3C122.7,16.7,122.8,16.7,122.8,16.8L122.8,16.8z"/>
<path class="st8" d="M123.7,15l2.5,1.4l-0.2,0.4l-2.5-1.4l-0.4,0.7l-0.4-0.2l1-1.8l0.4,0.2L123.7,15z"/>
<path class="st8" d="M125.6,12.3l-0.8,1.1l0.6,0.5l0.8-1l0.4,0.3l-0.8,1l0.9,0.7l0.8-1.1l0.4,0.3l-1.1,1.5l-2.7-2l1.1-1.5
	L125.6,12.3z"/>
<path class="st8" d="M128.1,11.8l1.7,0.3l-0.4,0.4l-1.6-0.3l-0.1,0.1l1,1l-0.4,0.4l-2.3-2.4l0.4-0.4c0.2-0.3,0.5-0.4,0.8-0.5
	c0.5,0,0.9,0.4,1,0.9C128.3,11.4,128.2,11.6,128.1,11.8z M127.4,12l0.1-0.1c0.3-0.3,0.4-0.6,0.1-0.9s-0.5-0.2-0.9,0.1l-0.1,0.1
	L127.4,12z"/>
<path class="st8" d="M131.2,11.1l-1.7-2.9l0.6-0.3c0.2-0.1,0.5-0.3,0.7-0.3c0.2,0,0.4,0,0.6,0c0.5,0.1,0.9,0.4,1.1,0.8
	c0.3,0.4,0.3,0.9,0.2,1.3c-0.1,0.2-0.2,0.4-0.3,0.6c-0.2,0.2-0.4,0.4-0.6,0.5L131.2,11.1z M131.4,10.4l0.2-0.1
	c0.2-0.1,0.3-0.2,0.4-0.4c0.1-0.1,0.2-0.3,0.2-0.4c0.1-0.3,0.1-0.7-0.1-0.9c-0.2-0.3-0.4-0.5-0.8-0.6c-0.4,0-0.7,0-1,0.2l-0.2,0.1
	L131.4,10.4z"/>
<path class="st8" d="M133.7,9.5l-0.5-3.6l1.9,2.1l0.3-2.8l1.7,3.2l-0.5,0.2l-1-1.8l-0.2,2.4l-1.6-1.8l0.3,2L133.7,9.5z"/>
<path class="st8" d="M139.4,6.1h1.4V4.8h0.5l0.1,3.3H141V6.6h-1.4v1.6h-0.5l-0.2-3.3h0.5L139.4,6.1z"/>
<path class="st8" d="M144.3,5.5L143,5.3l-0.1,0.8l1.3,0.2l-0.1,0.5l-1.3-0.2l-0.1,1.1l1.3,0.2L144,8.4l-1.8-0.2l0.4-3.3l1.8,0.2
	L144.3,5.5z"/>
<path class="st8" d="M146.6,8.2l-1.4-0.4l-0.6,0.7l-0.5-0.2l2.6-2.9l0.5,3.9l-0.5-0.2L146.6,8.2z M146.6,7.7l-0.2-1.2l-0.8,0.9
	L146.6,7.7z"/>
<path class="st8" d="M149.4,6.7l-1.2,2.6l0.9,0.4l-0.2,0.4l-1.4-0.6l1.4-3L149.4,6.7z"/>
<path class="st8" d="M151.3,8.2l-1.5,2.4l-0.4-0.3l1.5-2.4l-0.6-0.4l0.2-0.4l1.7,1.1l-0.2,0.4L151.3,8.2z"/>
<path class="st8" d="M152.4,10l1.1,0.9l0.8-1l0.4,0.3l-2.1,2.6l-0.4-0.3l1-1.2l-1.1-0.9l-1,1.2l-0.4-0.3l2.1-2.6l0.4,0.3L152.4,10z"
	/>
<path class="st8" d="M157.1,13.2l-0.5,0.4c0-0.3-0.1-0.7-0.3-0.9c-0.2-0.3-0.5-0.4-0.8-0.4c-0.3,0-0.7,0.1-0.9,0.3
	c-0.3,0.2-0.4,0.5-0.5,0.8c0,0.3,0.1,0.7,0.3,0.9c0.1,0.1,0.2,0.2,0.4,0.3c0.1,0,0.1,0.1,0.2,0.1c0.1,0,0.2,0.1,0.3,0.1l-0.5,0.4
	c-0.3-0.1-0.6-0.3-0.8-0.5c-0.6-0.7-0.5-1.8,0.2-2.4c0,0,0,0,0,0c0.3-0.3,0.7-0.4,1.1-0.4c0.5,0,1,0.2,1.3,0.6
	C156.9,12.6,157,12.9,157.1,13.2z"/>
<path class="st8" d="M156.6,17l-0.7-1.2l-0.9,0.1l-0.3-0.5l3.9-0.3l-2.3,3.1l-0.3-0.5L156.6,17z M156.9,16.6l0.8-1l-1.2,0.1
	L156.9,16.6z"/>
<path class="st8" d="M158.1,19l-1,1.5l-0.2-0.6l1-1.4v-0.1l-1.3,0.5l-0.2-0.5l3.1-1.1l0.2,0.5c0.1,0.3,0.2,0.7,0.1,1
	c-0.1,0.3-0.3,0.5-0.6,0.5c-0.2,0.1-0.4,0.1-0.6,0C158.5,19.4,158.3,19.3,158.1,19z M158.3,18.3l0.1,0.2c0.2,0.5,0.4,0.6,0.8,0.5
	s0.4-0.4,0.2-0.8l-0.1-0.2L158.3,18.3z"/>
<path class="st8" d="M160.4,22.1l-0.3-1.3l-0.8,0.1l0.2,1.3l-0.5,0.1l-0.2-1.3l-1.1,0.2l0.2,1.3l-0.5,0.1l-0.4-1.8l3.3-0.6l0.4,1.8
	L160.4,22.1z"/>
</svg>
