<svg xmlns="http://www.w3.org/2000/svg" xmlns:xlink="http://www.w3.org/1999/xlink" width="87" height="19" viewBox="0 0 87 19">
  <defs>
    <clipPath id="clip-ShopOnline_R">
      <rect width="87" height="19"/>
    </clipPath>
  </defs>
  <g id="ShopOnline_R" data-name="ShopOnline R" clip-path="url(#clip-ShopOnline_R)">
    <g id="Layer_2" data-name="Layer 2">
      <g id="Layer_1" data-name="Layer 1">
        <path id="Rectangle_2890" data-name="Rectangle 2890" d="M9.5,0H76.95a9.5,9.5,0,0,1,9.5,9.5h0a9.5,9.5,0,0,1-9.5,9.5H9.5A9.5,9.5,0,0,1,0,9.5H0A9.5,9.5,0,0,1,9.5,0Z" fill="#f7a520"/>
        <g id="SHOP_ONLINE" data-name="SHOP ONLINE" transform="translate(10.859 5.983)" style="isolation: isolate">
          <g id="Group_3417" data-name="Group 3417" style="isolation: isolate">
            <path id="Path_23639" data-name="Path 23639" d="M15.638,7.633a.37.37,0,0,1-.124.143.323.323,0,0,1-.161.048.466.466,0,0,1-.219-.076l-.313-.162a2.85,2.85,0,0,0-.38-.161,1.624,1.624,0,0,0-.513-.076,1.416,1.416,0,0,0-.466.067,1.007,1.007,0,0,0-.333.171.817.817,0,0,0-.2.275,1.055,1.055,0,0,0-.066.352.608.608,0,0,0,.133.4,1.178,1.178,0,0,0,.4.257,3.2,3.2,0,0,0,.513.209l.58.19a6.175,6.175,0,0,1,.58.237,2.413,2.413,0,0,1,.513.342,1.6,1.6,0,0,1,.352.5,1.7,1.7,0,0,1,.143.732,2.423,2.423,0,0,1-.162.874,2.062,2.062,0,0,1-.465.7,2.252,2.252,0,0,1-.75.475,2.755,2.755,0,0,1-1.007.181,3.629,3.629,0,0,1-.646-.066,4.228,4.228,0,0,1-.618-.181,3.715,3.715,0,0,1-.541-.295,2.166,2.166,0,0,1-.456-.371l.37-.608a.465.465,0,0,1,.171-.076.352.352,0,0,1,.171,0,.456.456,0,0,1,.257.095l.323.219a3.135,3.135,0,0,0,.437.209,1.71,1.71,0,0,0,.617.1,1.273,1.273,0,0,0,.845-.266.95.95,0,0,0,.295-.741.75.75,0,0,0-.133-.446,1.092,1.092,0,0,0-.361-.285,2.784,2.784,0,0,0-.5-.2c-.19-.048-.389-.1-.579-.171a6.118,6.118,0,0,1-.58-.228,1.9,1.9,0,0,1-.513-.352,1.691,1.691,0,0,1-.361-.532,2.1,2.1,0,0,1-.133-.789,1.8,1.8,0,0,1,.152-.732,1.9,1.9,0,0,1,.437-.636,2.261,2.261,0,0,1,.7-.437A2.537,2.537,0,0,1,14,6.36a3.306,3.306,0,0,1,1.121.19,2.7,2.7,0,0,1,.874.532Z" transform="translate(-11.43 -6.301)" fill="#fff"/>
            <path id="Path_23640" data-name="Path 23640" d="M23.4,13.248H22.1v-3H18.93v3H17.6V6.38h1.33V9.335h3.22V6.38H23.4Z" transform="translate(-11.738 -6.302)" fill="#fff"/>
            <path id="Path_23641" data-name="Path 23641" d="M31.973,9.815a3.924,3.924,0,0,1-.247,1.4,3.42,3.42,0,0,1-.712,1.121,3.249,3.249,0,0,1-1.093.731,3.8,3.8,0,0,1-1.425.266,3.876,3.876,0,0,1-1.425-.266,3.382,3.382,0,0,1-1.121-.732,3.249,3.249,0,0,1-.7-1.121,3.933,3.933,0,0,1,0-2.793,3.249,3.249,0,0,1,.7-1.121,3.382,3.382,0,0,1,1.1-.732A3.876,3.876,0,0,1,28.477,6.3a3.8,3.8,0,0,1,1.425.266,3.268,3.268,0,0,1,1.093.741,3.382,3.382,0,0,1,.712,1.112A3.923,3.923,0,0,1,31.973,9.815Zm-1.273,0A3.087,3.087,0,0,0,30.548,8.8a2.052,2.052,0,0,0-.428-.76,1.8,1.8,0,0,0-.684-.485,2.423,2.423,0,0,0-.9-.161,2.46,2.46,0,0,0-.9.161,1.9,1.9,0,0,0-.694.484,2.195,2.195,0,0,0-.427.76,3.108,3.108,0,0,0-.038,2.033,2.194,2.194,0,0,0,.427.76,1.9,1.9,0,0,0,.694.475,2.28,2.28,0,0,0,.9.162,2.251,2.251,0,0,0,.9-.162,1.777,1.777,0,0,0,.684-.475,2.052,2.052,0,0,0,.427-.76A3.087,3.087,0,0,0,30.7,9.815Z" transform="translate(-12.108 -6.298)" fill="#fff"/>
            <path id="Path_23642" data-name="Path 23642" d="M34.935,10.835v2.413H33.7V6.38h2.232a4.056,4.056,0,0,1,1.2.161A2.46,2.46,0,0,1,37.956,7a1.767,1.767,0,0,1,.484.693,2.394,2.394,0,0,1,.161.883,2.366,2.366,0,0,1-.171.95,1.9,1.9,0,0,1-.494.713,2.3,2.3,0,0,1-.836.465,3.61,3.61,0,0,1-1.168.171Zm0-1.016h.95a2.023,2.023,0,0,0,.618-.086,1.074,1.074,0,0,0,.428-.257.95.95,0,0,0,.256-.4,1.511,1.511,0,0,0,.086-.523,1.434,1.434,0,0,0-.085-.5,1.035,1.035,0,0,0-.257-.38,1.159,1.159,0,0,0-.428-.237,2.024,2.024,0,0,0-.618-.086h-.95Z" transform="translate(-12.543 -6.302)" fill="#fff"/>
            <path id="Path_23643" data-name="Path 23643" d="M48.906,9.815a3.724,3.724,0,0,1-.256,1.4,3.249,3.249,0,0,1-.7,1.121,3.287,3.287,0,0,1-1.1.732,3.923,3.923,0,0,1-2.85,0,3.287,3.287,0,0,1-1.045-.732,3.42,3.42,0,0,1-.712-1.121,4.075,4.075,0,0,1,0-2.793A3.42,3.42,0,0,1,42.95,7.3a3.287,3.287,0,0,1,1.1-.731,3.923,3.923,0,0,1,2.85,0,3.315,3.315,0,0,1,1.1.741,3.211,3.211,0,0,1,.646,1.112,3.724,3.724,0,0,1,.257,1.4Zm-1.311,0A3.363,3.363,0,0,0,47.443,8.8a2.366,2.366,0,0,0-.428-.76,1.947,1.947,0,0,0-.684-.485,2.461,2.461,0,0,0-.95-.161,2.518,2.518,0,0,0-.95.161,1.947,1.947,0,0,0-.684.484,2.213,2.213,0,0,0-.437.76,3.477,3.477,0,0,0,0,2.033,2.213,2.213,0,0,0,.437.76,1.9,1.9,0,0,0,.684.475,2.327,2.327,0,0,0,.95.161,2.28,2.28,0,0,0,.95-.161,1.9,1.9,0,0,0,.684-.475,2.365,2.365,0,0,0,.427-.76A3.363,3.363,0,0,0,47.6,9.815Z" transform="translate(-12.958 -6.298)" fill="#fff"/>
            <path id="Path_23644" data-name="Path 23644" d="M51.388,6.389h.1l.085.067a.541.541,0,0,1,.1.1l3.61,4.6V6.38h1.13v6.869h-.684a.646.646,0,0,1-.247,0,.684.684,0,0,1-.2-.18L51.672,8.46v4.788H50.58V6.38h.807Z" transform="translate(-13.388 -6.302)" fill="#fff"/>
            <path id="Path_23645" data-name="Path 23645" d="M59.663,12.194h2.755v1.054H58.39V6.38h1.273Z" transform="translate(-13.778 -6.302)" fill="#fff"/>
            <path id="Path_23646" data-name="Path 23646" d="M65.254,13.248H64V6.38h1.282Z" transform="translate(-14.059 -6.302)" fill="#fff"/>
            <path id="Path_23647" data-name="Path 23647" d="M68.007,6.389h.1l.086.067a.342.342,0,0,1,.095.1l3.61,4.6a2.052,2.052,0,0,1,0-.333V6.38H73v6.869H72.33a.646.646,0,0,1-.247,0,.684.684,0,0,1-.2-.18L68.292,8.46v4.788H67.2V6.38h.807Z" transform="translate(-14.219 -6.302)" fill="#fff"/>
            <path id="Path_23648" data-name="Path 23648" d="M79.341,6.38V7.4H76.292V9.3h2.4v.95h-2.4v1.9h3.049v1.016H75V6.38Z" transform="translate(-14.609 -6.302)" fill="#fff"/>
          </g>
        </g>
      </g>
    </g>
  </g>
</svg>
