<?xml version="1.0" encoding="utf-8"?>
<!-- Generator: Adobe Illustrator 24.0.3, SVG Export Plug-In . SVG Version: 6.00 Build 0)  -->
<svg version="1.1" id="Layer_1" width="124" height="60" xmlns="http://www.w3.org/2000/svg" xmlns:xlink="http://www.w3.org/1999/xlink" x="0px" y="0px"
	 viewBox="0 0 117 53" style="enable-background:new 0 0 117 53;" xml:space="preserve">
<style type="text/css">
	.st0{fill:#FFFFFF;}
	.st1{clip-path:url(#SVGID_2_);}
	.st2{fill:#00A984;}
	.st3{fill:#1D4289;}
	.st4{fill:#585857;}
</style>
<rect class="st0" width="117" height="53"/>
<g>
	<defs>
		<rect id="SVGID_1_" x="2" width="113.1" height="53"/>
	</defs>
	<clipPath id="SVGID_2_">
		<use xlink:href="#SVGID_1_"  style="overflow:visible;"/>
	</clipPath>
	<g class="st1">
		<path class="st2" d="M6.8,37.2H5.1v3.5c-2.6,0-3.1,0-3.1-2v-7.3c0-2,0.5-2,2.5-2h2.1c4.7,0,5.3,2.1,5.3,3.9
			C12,35.1,11.6,37.2,6.8,37.2L6.8,37.2z M6.7,32H5.1v2.7h1.6c1.3,0,2-0.5,2-1.4C8.7,32.7,8.7,31.9,6.7,32L6.7,32z"/>
		<path class="st2" d="M24.1,40.8c-1.4-0.1-1.4-1-1.4-2v-2.5h-4.3v4.5c-2.7,0-3.1-0.1-3.1-2v-9.4c2.7,0,3.1,0.1,3.1,1.9v2.3h4.3
			v-4.3c2.7,0,3.2,0.1,3.2,1.9v9.4C24.8,40.7,24.4,40.7,24.1,40.8L24.1,40.8z"/>
		<path class="st2" d="M40,40.8c-1.5-0.1-1.6-0.9-2.1-1.9h-4.7c-0.9,2.3-1.1,2-4.1,2l4.1-9.8c0.5-1.3,0.8-1.5,2.4-1.5h1.7l4.8,11.4
			C40.7,40.8,40.3,40.8,40,40.8L40,40.8z M35.6,32.7l-1.4,3.7H37L35.6,32.7L35.6,32.7z"/>
		<path class="st2" d="M53.5,40.8c-1.4,0-2-0.1-2.8-1.3l-2.1-3c-0.4-0.7-0.6-2.1,0.9-2.1h0.7c0.9,0,1.3-0.4,1.3-1.2
			c0-0.5,0-1.1-2-1.1H48v8.8c-2.7,0-3.1,0-3.1-2v-7.3c0-2,0.6-2,2.5-2h2.1c4.7,0,5.3,2.1,5.3,3.7c0,2.3-1.5,3.1-3.1,3.1l4.1,4.5
			L53.5,40.8L53.5,40.8z"/>
		<path class="st2" d="M71.5,40.8c-1.3-0.1-1.3-0.9-1.3-1.9v-4.7l-2.1,5.1c-0.5,1.1-0.7,1.5-2.1,1.5h-1.4l-2.8-6.6v6.6
			c-2.7,0-3.1-0.1-3.1-1.9v-9.4h1.7c1.7,0,2.3-0.1,2.9,1.7l2.7,6.7l2.7-6.7c0.6-1.5,0.8-1.6,2.7-1.6h1.9V41c-1.1,0-1.5,0-1.8,0
			L71.5,40.8z"/>
		<path class="st2" d="M87,40.8c-1.5-0.1-1.6-0.9-2.1-1.9h-4.7c-0.9,2.3-1.1,2-4.1,2l4.1-9.8c0.5-1.3,0.8-1.5,2.4-1.5h1.7l4.8,11.4
			C87.7,40.8,87.3,40.8,87,40.8L87,40.8z M82.6,32.7l-1.4,3.7h2.9L82.6,32.7L82.6,32.7z"/>
		<path class="st2" d="M96.6,40.8c-4.7,0-5.8-2.7-5.8-5.7c0-2.9,1.1-5.7,5.8-5.7h3.7c0,1.8,0.3,2.6-2.1,2.6h-1.6
			c-2.6,0-2.6,0-2.6,3.1s0.5,3.1,2.6,3.1h1.5c2,0,2.2,0.3,2.2,2.6L96.6,40.8L96.6,40.8z"/>
		<path class="st2" d="M110.1,37.3v3.5c-0.7,0-2.2,0.1-2.7-0.3c-0.3-0.3-0.5-0.7-0.5-1.7v-1.5l-4.7-7.8c2.1,0,2.7,0,3.2,0.2
			c0.6,0.3,0.9,0.8,1.1,1.3l2,3.8l2.4-4.3c0.5-0.8,0.9-1,1.9-1c0.3,0,0.9,0,2.1,0L110.1,37.3L110.1,37.3z"/>
		<path class="st3" d="M2,22.2L9.8,0h5.4l7.9,22.2v1.4H18l-1.9-6H8l-1.9,6H2V22.2z M9.2,14h5.7L12,5.3h-0.1L9.2,14L9.2,14z"/>
		<path class="st3" d="M24.5,22.3v-3.6h1.5c0.8,0.7,2.3,1.5,4.3,1.5c2.1,0,3-0.5,3-1.7c0-1.1-0.7-1.6-3.1-1.9
			c-3.9-0.5-5.9-1.9-5.9-5.4c0-3.5,2.7-5.5,7-5.5s4.1,0.5,5.5,1.2v3.5h-1.5c-0.8-0.6-2.2-1.2-4-1.2c-1.8,0-2.7,0.6-2.7,1.6
			c0,1,0.9,1.4,3.3,1.7C36.2,13,38,14.4,38,18c0,3.5-2.3,5.7-7.4,5.7c-5.1,0-4.7-0.7-6.1-1.5"/>
		<path class="st3" d="M38.6,5.9h2.1V1.2h4.9v4.7h3.6v3.3h-3.6v9.1c0,1.7,0.7,2.1,2.3,2.1h1.3v2.9c-0.7,0.3-1.7,0.5-3.1,0.5
			c-3.4,0-5.5-1.3-5.5-5V9.2h-2.1V5.9L38.6,5.9z"/>
		<path class="st3" d="M54.8,15.8c0.3,3.5,1.9,4.5,4.7,4.5c2.7,0,3.5-0.7,4.7-1.5h1.5v3.2c-1.4,0.8-3.4,1.7-7,1.7c-5.8,0-9-3.4-9-9
			c0-5.6,3.7-9.2,8.6-9.2c4.9,0,8,2.9,8,8.7s-0.1,1.3-0.1,1.5H54.8L54.8,15.8z M54.9,12.9h6.6c-0.1-3.1-1.2-4.1-3.1-4.1
			C56.6,8.8,55.3,9.6,54.9,12.9"/>
		<path class="st3" d="M73.7,10.8v12.8h-4.9V5.9h3.3c0.9,0,1.3,0.4,1.5,2.1c1.1-1.2,2.7-2.3,4.9-2.3c2.2,0,0.7,0,1.1,0.2v3.9h-0.9
			C76.3,9.8,74.6,10.4,73.7,10.8"/>
		<path class="st4" d="M7.4,52.4H7l-1.2-5.5H5.2l-1.3,5.5H3.6l-1.1-5.6H2l1.3,6.1h1.1l1.2-5.3l1.2,5.3h1.1L9,46.8H8.4L7.4,52.4z"/>
		<path class="st4" d="M11.4,48.5c-1.1,0-1.8,0.6-1.8,2.3c0,1.7,0.4,2.3,1.7,2.3c0.7,0,1.7-0.1,1.7-0.1v-0.4c0,0-1,0.1-1.6,0.1
			c-0.9,0-1.2-0.5-1.2-1.6h2.9v-0.4C13.1,49.1,12.5,48.5,11.4,48.5L11.4,48.5z M10.1,50.5c0-1.1,0.5-1.6,1.3-1.6
			c0.8,0,1.2,0.4,1.2,1.6H10.1z"/>
		<path class="st4" d="M13.9,48.5h0.5l0.5-1.8h-0.5L13.9,48.5z"/>
		<path class="st4" d="M16.5,46.6h-0.5v6.3h0.5V46.6z"/>
		<path class="st4" d="M18.3,46.6h-0.5v6.3h0.5V46.6z"/>
		<path class="st4" d="M25.4,46.8h-4.3v0.5H23v5.5h0.5v-5.5h1.9V46.8z"/>
		<path class="st4" d="M25.9,48.5h-0.5v4.3h0.5v-3.3c0,0,0.8-0.5,1.7-0.7v-0.5c-0.9,0.1-1.7,0.7-1.7,0.7V48.5L25.9,48.5z"/>
		<path class="st4" d="M29.8,48.5c-1.1,0-1.8,0.6-1.8,2.3c0,1.7,0.4,2.3,1.7,2.3c0.7,0,1.7-0.1,1.7-0.1v-0.4c0,0-1,0.1-1.6,0.1
			c-0.9,0-1.2-0.5-1.2-1.6h2.9v-0.4C31.5,49.1,30.9,48.5,29.8,48.5L29.8,48.5z M28.6,50.5c0-1.1,0.5-1.6,1.3-1.6
			c0.8,0,1.2,0.4,1.2,1.6H28.6L28.6,50.5z"/>
		<path class="st4" d="M35.6,52.1v-2.3c0-0.9-0.4-1.4-1.3-1.4c-0.9,0-1.7,0.2-1.7,0.2V49c0,0,1.1-0.1,1.7-0.1c0.6,0,0.9,0.3,0.9,0.9
			v0.4l-1.5,0.1c-0.9,0.1-1.3,0.5-1.3,1.3c0,0.8,0.4,1.3,1.2,1.3c0.8,0,1.7-0.3,1.7-0.3c0.3,0.3,0.5,0.3,1,0.3v-0.4
			c-0.3,0-0.5-0.1-0.5-0.4H35.6z M35.1,52.1c0,0-0.8,0.3-1.5,0.3c-0.7,0-0.7-0.3-0.7-0.9c0-0.5,0.2-0.8,0.8-0.9l1.4-0.1V52.1
			L35.1,52.1z"/>
		<path class="st4" d="M38.4,52.5c-0.6,0-0.7-0.3-0.7-1.3V49h1.5v-0.5h-1.5v-1.3h-0.5v1.3h-0.7V49h0.7v2.4c0,1.3,0.3,1.6,1.2,1.6
			c0.9,0,0.9-0.1,0.9-0.1v-0.5C39.3,52.5,38.7,52.5,38.4,52.5z"/>
		<path class="st4" d="M45.2,46.8l-1.6,2.9L42,46.8h-0.6l1.9,3.5v2.5h0.5v-2.5l1.9-3.5H45.2z"/>
		<path class="st4" d="M47.6,48.5c-1.3,0-1.8,0.7-1.8,2.2c0,1.5,0.3,2.3,1.8,2.3c1.5,0,1.8-0.7,1.8-2.3C49.4,49,48.9,48.5,47.6,48.5
			z M47.6,52.5c-1.1,0-1.3-0.5-1.3-1.9c0-1.3,0.3-1.7,1.3-1.7c1,0,1.3,0.5,1.3,1.7C48.9,51.9,48.7,52.5,47.6,52.5z"/>
		<path class="st4" d="M53.3,52.1c0,0-0.6,0.3-1.3,0.3c-0.7,0-1-0.4-1-1.7v-2.3h-0.5v2.3c0,1.6,0.3,2.1,1.5,2.1
			c1.2,0,1.3-0.4,1.3-0.4v0.3h0.5v-4.3h-0.5V52.1L53.3,52.1z"/>
		<path class="st4" d="M62,52.4h-0.3l-1.3-5.5h-0.7l-1.3,5.5h-0.3l-1.1-5.6h-0.6l1.3,6.1H59l1.2-5.3l1.2,5.3h1.1l1.3-6.1h-0.5
			L62,52.4z"/>
		<path class="st4" d="M66.1,48.5c-1.1,0-1.8,0.6-1.8,2.3c0,1.7,0.4,2.3,1.7,2.3c0.7,0,1.7-0.1,1.7-0.1v-0.4c0,0-1,0.1-1.6,0.1
			c-0.9,0-1.2-0.5-1.2-1.6h2.9v-0.4C67.7,49.1,67.1,48.5,66.1,48.5L66.1,48.5z M64.8,50.5c0-1.1,0.5-1.6,1.3-1.6
			c0.8,0,1.2,0.4,1.2,1.6H64.8z"/>
		<path class="st4" d="M69.5,46.6h-0.5v6.3h0.5V46.6z"/>
		<path class="st4" d="M71.3,46.6h-0.5v6.3h0.5V46.6z"/>
	</g>
</g>
</svg>
