<svg xmlns="http://www.w3.org/2000/svg" width="46.254" height="46.254" viewBox="0 0 46.254 46.254"><defs><style>.a{fill:#003d81;stroke:#fff;stroke-width:2px;}.b{fill:#fff;}</style></defs><g transform="translate(1 1)"><path class="a" d="M22.127,0A22.127,22.127,0,1,1,0,22.127,22.127,22.127,0,0,1,22.127,0Z" transform="translate(0 0)"/><g transform="translate(11.021 11.562)"><path class="b" d="M15.424,6.123c3.029,0,3.388.012,4.584.066a6.279,6.279,0,0,1,2.107.391,3.757,3.757,0,0,1,2.153,2.153,6.279,6.279,0,0,1,.391,2.107c.055,1.2.066,1.555.066,4.584s-.012,3.388-.066,4.584a6.279,6.279,0,0,1-.391,2.107,3.757,3.757,0,0,1-2.153,2.153,6.279,6.279,0,0,1-2.107.391c-1.2.055-1.555.066-4.584.066s-3.388-.012-4.584-.066a6.279,6.279,0,0,1-2.107-.391A3.757,3.757,0,0,1,6.58,22.114a6.279,6.279,0,0,1-.391-2.107c-.055-1.2-.066-1.555-.066-4.584s.012-3.388.066-4.584A6.279,6.279,0,0,1,6.58,8.733,3.757,3.757,0,0,1,8.733,6.58a6.279,6.279,0,0,1,2.107-.391c1.2-.055,1.555-.066,4.584-.066m0-2.044c-3.081,0-3.467.013-4.677.068a8.327,8.327,0,0,0-2.754.527A5.8,5.8,0,0,0,4.675,7.992a8.327,8.327,0,0,0-.527,2.754c-.055,1.21-.068,1.6-.068,4.677s.013,3.467.068,4.677a8.327,8.327,0,0,0,.527,2.754,5.8,5.8,0,0,0,3.318,3.318,8.327,8.327,0,0,0,2.754.527c1.21.055,1.6.068,4.677.068s3.467-.013,4.677-.068a8.327,8.327,0,0,0,2.754-.527,5.8,5.8,0,0,0,3.318-3.318A8.327,8.327,0,0,0,26.7,20.1c.055-1.21.068-1.6.068-4.677s-.013-3.467-.068-4.677a8.327,8.327,0,0,0-.527-2.754,5.8,5.8,0,0,0-3.318-3.318A8.327,8.327,0,0,0,20.1,4.147c-1.21-.055-1.6-.068-4.677-.068Z" transform="translate(-4.079 -4.079)"/><path class="b" d="M132.941,126.635a6.306,6.306,0,1,0,6.306,6.306A6.306,6.306,0,0,0,132.941,126.635Zm0,10.4a4.093,4.093,0,1,1,4.093-4.093A4.093,4.093,0,0,1,132.941,137.035Z" transform="translate(-121.596 -121.596)"/><circle class="b" cx="1.243" cy="1.243" r="1.243" transform="translate(16.23 3.974)"/></g></g></svg>