<svg xmlns="http://www.w3.org/2000/svg" xmlns:xlink="http://www.w3.org/1999/xlink" width="336" height="132" viewBox="0 0 336 132">
  <defs>
    <linearGradient id="linear-gradient" y1="0.5" x2="1" y2="0.5" gradientUnits="objectBoundingBox">
      <stop offset="0" stop-color="#fff3a6"/>
      <stop offset="0.14" stop-color="#f9df7b"/>
      <stop offset="0.17" stop-color="#f5d974"/>
      <stop offset="0.31" stop-color="#d9b249"/>
      <stop offset="0.44" stop-color="#c5952a"/>
      <stop offset="0.55" stop-color="#b98417"/>
      <stop offset="0.63" stop-color="#b57e10"/>
      <stop offset="0.77" stop-color="#e5c35c"/>
      <stop offset="0.84" stop-color="#f9df7b"/>
      <stop offset="0.87" stop-color="#f6da76"/>
      <stop offset="0.9" stop-color="#eccd67"/>
      <stop offset="0.94" stop-color="#dcb64e"/>
      <stop offset="0.97" stop-color="#c6972b"/>
      <stop offset="1" stop-color="#b57e10"/>
    </linearGradient>
    <linearGradient id="linear-gradient-2" y1="0.499" x2="1" y2="0.499" gradientUnits="objectBoundingBox">
      <stop offset="0" stop-color="#fff3a6"/>
      <stop offset="0" stop-color="#f5d974"/>
      <stop offset="0.31" stop-color="#d9b249"/>
      <stop offset="0.44" stop-color="#c5952a"/>
      <stop offset="0.55" stop-color="#b98417"/>
      <stop offset="0.63" stop-color="#b57e10"/>
      <stop offset="0.77" stop-color="#e5c35c"/>
      <stop offset="0.84" stop-color="#f9df7b"/>
      <stop offset="0.87" stop-color="#f6da76"/>
      <stop offset="0.9" stop-color="#eccd67"/>
      <stop offset="0.94" stop-color="#dcb64e"/>
      <stop offset="0.97" stop-color="#c6972b"/>
      <stop offset="1" stop-color="#b57e10"/>
    </linearGradient>
    <clipPath id="clip-AsterSecure_banner_Image_2">
      <rect width="336" height="132"/>
    </clipPath>
  </defs>
  <g id="AsterSecure_banner_Image_2" data-name="AsterSecure banner Image 2" clip-path="url(#clip-AsterSecure_banner_Image_2)">
    <g id="Group_3441" data-name="Group 3441" transform="translate(-937 -2347)">
      <circle id="Ellipse_359" data-name="Ellipse 359" cx="26.23" cy="26.23" r="26.23" transform="translate(940 2424)" fill="url(#linear-gradient)"/>
      <path id="Path_23704" data-name="Path 23704" d="M331.34,30.69V17.85a4.44,4.44,0,0,0-4.46-4.43l-52.55.09h-51.6a5.75,5.75,0,0,0-.93.09h0a4.84,4.84,0,0,0-1.15.18,26.2,26.2,0,0,1,.5,34.22,4.9,4.9,0,0,0,.67.07l52.54-.1H326a5.62,5.62,0,0,0,.92-.09h0a4.44,4.44,0,0,0,4.44-4.45Z" transform="translate(767.67 2419.51)" fill="url(#linear-gradient-2)"/>
      <g id="save-money" transform="translate(767.67 2419.51)">
        <path id="Path_23643" data-name="Path 23643" d="M200.58,38.27h-6.8a.41.41,0,0,1,0-.81h6.8a1.09,1.09,0,0,0,.75-.3V37.1h0a1,1,0,0,0,.25-.67,1.08,1.08,0,0,0-1.07-1.07h-3.8a.39.39,0,0,1-.3-.13,5.39,5.39,0,0,0-4-1.77H187.6a.4.4,0,0,1,0-.8h4.88a6.2,6.2,0,0,1,4.48,1.9h3.62a1.87,1.87,0,0,1,1.47,3h0a.74.74,0,0,1-.12.13,1.86,1.86,0,0,1-1.32.55Z" fill="#fff" stroke="#fff" stroke-width="0.5"/>
        <path id="Path_23644" data-name="Path 23644" d="M197.17,43a8.45,8.45,0,0,1-2.91-.51l-6.8-2.47a.4.4,0,1,1,.27-.75l6.8,2.46a7.8,7.8,0,0,0,6.17-.38l9.22-4.71a3.74,3.74,0,0,0-3.6-.6l-4.42,1.62a.41.41,0,0,1-.19.05.4.4,0,0,1-.41-.39.41.41,0,0,1,.14-.31.38.38,0,0,1,.13-.09l4.48-1.63a4.54,4.54,0,0,1,4.47.81l.38.33a.39.39,0,0,1,0,.56.38.38,0,0,1-.12.1l-9.76,5A8.64,8.64,0,0,1,197.17,43Z" fill="#fff" stroke="#fff" stroke-width="0.5"/>
        <path id="Path_23645" data-name="Path 23645" d="M187.6,41.19h-4.34a.4.4,0,0,1-.4-.4h0V32a.4.4,0,0,1,.4-.4h4.34a.4.4,0,0,1,.4.4h0v8.77a.4.4,0,0,1-.4.4Zm-3.94-.8h3.53v-8h-3.53Z" fill="#fff" stroke="#fff" stroke-width="0.5"/>
        <path id="Path_23646" data-name="Path 23646" d="M200.77,32.76a7.205,7.205,0,1,1,.05,0Zm0-13.55a6.37,6.37,0,1,0,4.511,1.862A6.38,6.38,0,0,0,200.77,19.21Z" fill="#fff" stroke="#fff" stroke-width="0.5"/>
        <path id="Path_23647" data-name="Path 23647" d="M200.77,26a2.21,2.21,0,1,1,2.28-2.21.41.41,0,0,1-.41.4.4.4,0,0,1-.4-.4,1.431,1.431,0,1,0-1.55,1.4h.08a.41.41,0,0,1,0,.81Z" fill="#fff" stroke="#fff" stroke-width="0.5"/>
        <path id="Path_23648" data-name="Path 23648" d="M200.77,29.59a2.23,2.23,0,0,1-2.27-2.2.4.4,0,0,1,.8,0,1.47,1.47,0,1,0,1.55-1.4h-.08a.41.41,0,0,1,0-.81,2.211,2.211,0,1,1,.16,4.42h-.16Z" fill="#fff" stroke="#fff" stroke-width="0.5"/>
        <path id="Path_23649" data-name="Path 23649" d="M200.77,30.27a.4.4,0,0,1-.4-.4h0V21.3a.4.4,0,0,1,.8,0h0v8.57a.39.39,0,0,1-.39.4Z" fill="#fff" stroke="#fff" stroke-width="0.5"/>
      </g>
      <g id="Savings" transform="translate(767.67 2419.51)" style="isolation: isolate">
        <g id="Group_3437" data-name="Group 3437" style="isolation: isolate">
          <path id="Path_23705" data-name="Path 23705" d="M254,27.3a.49.49,0,0,1-.14.17.38.38,0,0,1-.19.05.48.48,0,0,1-.25-.09l-.32-.19a3.051,3.051,0,0,0-.44-.19A2.05,2.05,0,0,0,252,27a1.73,1.73,0,0,0-.54.07,1.07,1.07,0,0,0-.38.21.9.9,0,0,0-.24.31,1.1,1.1,0,0,0-.07.41.71.71,0,0,0,.15.46,1.23,1.23,0,0,0,.42.32A3.619,3.619,0,0,0,252,29l.67.22a6.5,6.5,0,0,1,.68.28,2.27,2.27,0,0,1,.58.39,1.81,1.81,0,0,1,.42.59,2.1,2.1,0,0,1,.16.84,2.79,2.79,0,0,1-.19,1,2.26,2.26,0,0,1-.54.82,2.45,2.45,0,0,1-.86.55,3.32,3.32,0,0,1-1.18.2,3.64,3.64,0,0,1-.74-.07,3.44,3.44,0,0,1-.71-.22,3.7,3.7,0,0,1-1.16-.75l.43-.71a.47.47,0,0,1,.15-.13.3.3,0,0,1,.19,0,.46.46,0,0,1,.29.11l.38.25a4,4,0,0,0,.51.25,2.12,2.12,0,0,0,.71.11,1.45,1.45,0,0,0,1-.3,1.08,1.08,0,0,0,.34-.86.81.81,0,0,0-.15-.51,1.4,1.4,0,0,0-.42-.33,2.9,2.9,0,0,0-.59-.23l-.67-.21a6.16,6.16,0,0,1-.67-.26,2.36,2.36,0,0,1-.59-.4,1.81,1.81,0,0,1-.41-.62,2.42,2.42,0,0,1,0-1.76,2.19,2.19,0,0,1,.51-.73,2.35,2.35,0,0,1,.82-.52,3.13,3.13,0,0,1,1.1-.19,3.9,3.9,0,0,1,1.3.22,2.87,2.87,0,0,1,1,.62Z" fill="#fff"/>
          <path id="Path_23706" data-name="Path 23706" d="M260.21,33.8h-.61a.78.78,0,0,1-.3,0,.38.38,0,0,1-.17-.24l-.12-.4a4.178,4.178,0,0,1-.42.34,2,2,0,0,1-.43.24,1.73,1.73,0,0,1-.47.15,3,3,0,0,1-.55,0,2.07,2.07,0,0,1-.66-.1,1.4,1.4,0,0,1-.51-.28,1.23,1.23,0,0,1-.34-.49,1.69,1.69,0,0,1-.12-.66,1.35,1.35,0,0,1,.16-.64,1.75,1.75,0,0,1,.56-.56,3.52,3.52,0,0,1,1-.41,6.62,6.62,0,0,1,1.61-.17v-.33a1.29,1.29,0,0,0-.24-.85.87.87,0,0,0-.69-.27,1.45,1.45,0,0,0-.55.08,1.49,1.49,0,0,0-.38.17l-.3.17a.68.68,0,0,1-.31.08.42.42,0,0,1-.23-.07.55.55,0,0,1-.16-.18l-.25-.43a3.33,3.33,0,0,1,2.35-.89,2.23,2.23,0,0,1,.88.16,1.93,1.93,0,0,1,.66.45,2,2,0,0,1,.41.69,2.75,2.75,0,0,1,.14.88Zm-2.64-.8a2.11,2.11,0,0,0,.38,0,2,2,0,0,0,.34-.12,1.79,1.79,0,0,0,.59-.45v-.94a5.5,5.5,0,0,0-1,.08,2.46,2.46,0,0,0-.64.19.68.68,0,0,0-.34.27.58.58,0,0,0-.11.34.56.56,0,0,0,.22.51A.92.92,0,0,0,257.57,33Z" fill="#fff"/>
          <path id="Path_23707" data-name="Path 23707" d="M264.45,33.8h-1.23L261,28.16h1.13a.41.41,0,0,1,.25.07.34.34,0,0,1,.14.18l1.09,3c.06.17.11.35.16.51a4.189,4.189,0,0,1,.11.51,2.329,2.329,0,0,1,.11-.51,4.989,4.989,0,0,1,.16-.51l1.12-3a.4.4,0,0,1,.14-.18.36.36,0,0,1,.24-.07h1.07Z" fill="#fff"/>
          <path id="Path_23708" data-name="Path 23708" d="M269.42,26.52a.8.8,0,0,1-.08.33.7.7,0,0,1-.19.26,1,1,0,0,1-.27.19.86.86,0,0,1-.68,0,1,1,0,0,1-.27-.19.68.68,0,0,1-.18-.26.78.78,0,0,1-.07-.33.81.81,0,0,1,.07-.35.87.87,0,0,1,1.4-.27.831.831,0,0,1,.19.27.82.82,0,0,1,.08.35Zm-.21,1.64V33.8h-1.36V28.16Z" fill="#fff"/>
          <path id="Path_23709" data-name="Path 23709" d="M271,33.8V28.16h.83a.34.34,0,0,1,.35.25l.09.44.36-.32a3.262,3.262,0,0,1,.4-.24,1.93,1.93,0,0,1,.46-.16,2.15,2.15,0,0,1,.53-.06,2,2,0,0,1,.82.16,1.61,1.61,0,0,1,.59.44,1.839,1.839,0,0,1,.36.68,2.629,2.629,0,0,1,.13.86V33.8h-1.36V30.21a1.21,1.21,0,0,0-.24-.8.89.89,0,0,0-.72-.28,1.4,1.4,0,0,0-.66.16,2.29,2.29,0,0,0-.58.43V33.8Z" fill="#fff"/>
          <path id="Path_23710" data-name="Path 23710" d="M279.5,28.06a3,3,0,0,1,.68.08,2.17,2.17,0,0,1,.59.21h1.62v.51a.27.27,0,0,1-.07.2.45.45,0,0,1-.22.1l-.51.09a1.489,1.489,0,0,1,.09.3,1.869,1.869,0,0,1,0,.34,1.66,1.66,0,0,1-.17.75,1.74,1.74,0,0,1-.46.58,2,2,0,0,1-.7.36,2.75,2.75,0,0,1-.88.13,3.18,3.18,0,0,1-.62-.06.44.44,0,0,0-.26.36.28.28,0,0,0,.15.26,1.42,1.42,0,0,0,.42.11,5,5,0,0,0,.58,0h.66a4.92,4.92,0,0,1,.67.1,1.82,1.82,0,0,1,.58.21,1.15,1.15,0,0,1,.41.41,1.29,1.29,0,0,1,.16.66,1.5,1.5,0,0,1-.19.73,2.071,2.071,0,0,1-.53.63,2.78,2.78,0,0,1-.86.44,3.66,3.66,0,0,1-1.15.17,4.15,4.15,0,0,1-1.12-.13,2.82,2.82,0,0,1-.78-.32,1.53,1.53,0,0,1-.47-.48,1.15,1.15,0,0,1-.15-.56,1,1,0,0,1,.24-.67,1.72,1.72,0,0,1,.67-.43.85.85,0,0,1-.46-.81,1.272,1.272,0,0,1,0-.26,1.1,1.1,0,0,1,.14-.26,1.34,1.34,0,0,1,.23-.25,2,2,0,0,1,.32-.22,1.72,1.72,0,0,1-.67-.61,1.69,1.69,0,0,1-.25-.9,1.67,1.67,0,0,1,.64-1.34,2.07,2.07,0,0,1,.71-.36,2.82,2.82,0,0,1,.96-.07ZM281,34a.36.36,0,0,0-.1-.27.53.53,0,0,0-.27-.17,1.87,1.87,0,0,0-.39-.09,3.909,3.909,0,0,0-.49,0h-.53a2.24,2.24,0,0,1-.52-.06,1.27,1.27,0,0,0-.37.3.59.59,0,0,0-.14.4.55.55,0,0,0,.07.28.57.57,0,0,0,.24.22,1.69,1.69,0,0,0,.42.15,3.65,3.65,0,0,0,.63,0,3.23,3.23,0,0,0,.66-.06,1.571,1.571,0,0,0,.45-.16.63.63,0,0,0,.26-.25A.55.55,0,0,0,281,34Zm-1.49-3.2a1.42,1.42,0,0,0,.44-.06.86.86,0,0,0,.31-.19.67.67,0,0,0,.19-.3,1.06,1.06,0,0,0,.06-.37.86.86,0,0,0-.25-.66,1.25,1.25,0,0,0-1.5,0,.86.86,0,0,0-.25.66,1.1,1.1,0,0,0,.06.37,1,1,0,0,0,.19.29.8.8,0,0,0,.32.2,1.4,1.4,0,0,0,.42.1Z" fill="#fff"/>
          <path id="Path_23711" data-name="Path 23711" d="M286.87,29.26a.34.34,0,0,1-.12.12.24.24,0,0,1-.15,0,.42.42,0,0,1-.21-.06l-.27-.12a1.42,1.42,0,0,0-.33-.12,1.53,1.53,0,0,0-.45-.06,1,1,0,0,0-.63.17.53.53,0,0,0-.24.45.41.41,0,0,0,.12.3,1,1,0,0,0,.32.22,3.118,3.118,0,0,0,.44.17l.5.16c.18.06.35.13.51.2a1.68,1.68,0,0,1,.44.29,1.3,1.3,0,0,1,.32.41,1.32,1.32,0,0,1,.12.59,1.859,1.859,0,0,1-.15.75,1.69,1.69,0,0,1-.44.59,1.9,1.9,0,0,1-.7.39,3.24,3.24,0,0,1-1,.14,3.659,3.659,0,0,1-.57,0,3.21,3.21,0,0,1-.53-.15,2.62,2.62,0,0,1-.48-.22,2.16,2.16,0,0,1-.38-.27l.32-.52a.38.38,0,0,1,.14-.14.41.41,0,0,1,.21,0,.44.44,0,0,1,.24.07l.26.15a1.921,1.921,0,0,0,.35.16,1.46,1.46,0,0,0,.51.07,1.22,1.22,0,0,0,.41-.06,1,1,0,0,0,.29-.15.5.5,0,0,0,.16-.22.53.53,0,0,0,0-.25.47.47,0,0,0-.11-.33,1.379,1.379,0,0,0-.32-.22,3.72,3.72,0,0,0-.44-.16l-.51-.17a4.651,4.651,0,0,1-.52-.2,1.9,1.9,0,0,1-.44-.3,1.21,1.21,0,0,1-.31-.45,1.519,1.519,0,0,1-.12-.64,1.65,1.65,0,0,1,.13-.66,1.55,1.55,0,0,1,.41-.54,2.12,2.12,0,0,1,.66-.38,2.93,2.93,0,0,1,.93-.14,2.82,2.82,0,0,1,1.06.2,2.18,2.18,0,0,1,.79.5Z" fill="#fff"/>
        </g>
      </g>
    </g>
    <g id="Group_3443" data-name="Group 3443" transform="translate(-768 -2420)">
      <circle id="Ellipse_359-2" data-name="Ellipse 359" cx="26.23" cy="26.23" r="26.23" transform="translate(940 2495.17)" fill="url(#linear-gradient)"/>
      <path id="Path_23712" data-name="Path 23712" d="M331.34,101.86V89a4.46,4.46,0,0,0-4.46-4.44l-52.55.1h-51.6a5.75,5.75,0,0,0-.93.09h0a4.38,4.38,0,0,0-1.15.17,26.22,26.22,0,0,1,.54,34.18,4.909,4.909,0,0,0,.67.06l52.54-.09H326a5.621,5.621,0,0,0,.92-.09h0a4.45,4.45,0,0,0,4.44-4.46Z" transform="translate(767.67 2419.51)" fill="url(#linear-gradient-2)"/>
      <g id="Health_Tips" data-name="Health Tips" transform="translate(767.67 2419.51)" style="isolation: isolate">
        <g id="Group_3438" data-name="Group 3438" style="isolation: isolate">
          <path id="Path_23713" data-name="Path 23713" d="M251.37,105.7h-1.49v-3.48h-3.73v3.48h-1.49v-8h1.49v3.42h3.73V97.75h1.49Z" fill="#fff"/>
          <path id="Path_23714" data-name="Path 23714" d="M255.5,100a2.76,2.76,0,0,1,1,.17,2.131,2.131,0,0,1,.78.5,2.23,2.23,0,0,1,.5.8,3.08,3.08,0,0,1,.18,1.09,1.857,1.857,0,0,1,0,.25.34.34,0,0,1-.05.16.14.14,0,0,1-.09.08.38.38,0,0,1-.16,0h-3.49a1.93,1.93,0,0,0,.47,1.27,1.42,1.42,0,0,0,1.08.41,1.64,1.64,0,0,0,.57-.08,2,2,0,0,0,.42-.17l.31-.17a.54.54,0,0,1,.26-.07.37.37,0,0,1,.15,0,.409.409,0,0,1,.1.09l.4.5a2.379,2.379,0,0,1-.51.44,3.231,3.231,0,0,1-.59.29,3.3,3.3,0,0,1-.62.15,4.261,4.261,0,0,1-.61,0,3.07,3.07,0,0,1-1.1-.19,2.46,2.46,0,0,1-.87-.58,2.69,2.69,0,0,1-.59-1,3.47,3.47,0,0,1-.22-1.3,3,3,0,0,1,.19-1.09,2.529,2.529,0,0,1,.53-.88,2.38,2.38,0,0,1,.86-.6A2.71,2.71,0,0,1,255.5,100Zm0,1a1.22,1.22,0,0,0-.93.34,1.65,1.65,0,0,0-.43,1h2.55a1.63,1.63,0,0,0-.07-.5,1.25,1.25,0,0,0-.22-.41,1,1,0,0,0-.37-.28,1.43,1.43,0,0,0-.5-.21Z" fill="#fff"/>
          <path id="Path_23715" data-name="Path 23715" d="M263.75,105.7h-.61a.68.68,0,0,1-.31-.06.38.38,0,0,1-.16-.23l-.12-.4c-.14.12-.29.24-.42.33a2.669,2.669,0,0,1-.43.25,2.35,2.35,0,0,1-.47.15,3,3,0,0,1-.55.05,2.39,2.39,0,0,1-.66-.1,1.4,1.4,0,0,1-.52-.29,1.37,1.37,0,0,1-.33-.48,1.7,1.7,0,0,1-.13-.67,1.35,1.35,0,0,1,.17-.63,1.57,1.57,0,0,1,.56-.56,3.51,3.51,0,0,1,1-.42,6.67,6.67,0,0,1,1.61-.16v-.34a1.24,1.24,0,0,0-.24-.84.88.88,0,0,0-.69-.28,1.68,1.68,0,0,0-.55.08,2.4,2.4,0,0,0-.39.17l-.29.18a.67.67,0,0,1-.31.07.35.35,0,0,1-.23-.07.44.44,0,0,1-.16-.17l-.25-.44a3.37,3.37,0,0,1,2.35-.89,2.42,2.42,0,0,1,.88.16,1.83,1.83,0,0,1,.66.46,2,2,0,0,1,.41.68,2.8,2.8,0,0,1,.14.88Zm-2.64-.85a1.529,1.529,0,0,0,.38,0,1.349,1.349,0,0,0,.34-.11,1.658,1.658,0,0,0,.3-.19,3.221,3.221,0,0,0,.29-.26v-.94a5.52,5.52,0,0,0-1,.07,2.921,2.921,0,0,0-.64.19.92.92,0,0,0-.35.27.7.7,0,0,0-.1.34.62.62,0,0,0,.21.52,1,1,0,0,0,.57.11Z" fill="#fff"/>
          <path id="Path_23716" data-name="Path 23716" d="M266.81,97.53v8.17h-1.36V97.53Z" fill="#fff"/>
          <path id="Path_23717" data-name="Path 23717" d="M270.47,105.79a1.47,1.47,0,0,1-1.13-.42,1.61,1.61,0,0,1-.4-1.14v-3.16h-.57a.28.28,0,0,1-.19-.07.29.29,0,0,1-.08-.21v-.54l.91-.15.29-1.54a.27.27,0,0,1,.1-.17.32.32,0,0,1,.2-.06h.7v1.78h1.49v1H270.3v3.06a.61.61,0,0,0,.13.41.46.46,0,0,0,.36.15.66.66,0,0,0,.21,0l.15-.06.11-.06a.19.19,0,0,1,.1,0,.17.17,0,0,1,.1,0l.08.09.41.66a2.14,2.14,0,0,1-.68.37A2.44,2.44,0,0,1,270.47,105.79Z" fill="#fff"/>
          <path id="Path_23718" data-name="Path 23718" d="M273.15,105.7V97.53h1.36v3.14a3,3,0,0,1,.72-.51,2.35,2.35,0,0,1,1.75,0,1.69,1.69,0,0,1,.6.45,1.8,1.8,0,0,1,.36.67,3,3,0,0,1,.12.87v3.59h-1.35v-3.59a1.19,1.19,0,0,0-.24-.8.89.89,0,0,0-.72-.29,1.46,1.46,0,0,0-.66.16,2.17,2.17,0,0,0-.58.44v4.08Z" fill="#fff"/>
          <path id="Path_23719" data-name="Path 23719" d="M287.76,97.75V99h-2.4v6.74h-1.48V99h-2.4V97.75Z" fill="#fff"/>
          <path id="Path_23720" data-name="Path 23720" d="M290.54,98.41a.72.72,0,0,1-.07.33,1,1,0,0,1-.19.27.92.92,0,0,1-.28.19.93.93,0,0,1-.34.06.92.92,0,0,1-.33-.06,1,1,0,0,1-.46-.46.88.88,0,0,1-.06-.33,1,1,0,0,1,.06-.34.77.77,0,0,1,.19-.27,1,1,0,0,1,.27-.19.86.86,0,0,1,.95.19.77.77,0,0,1,.19.27.8.8,0,0,1,.07.34Zm-.2,1.65v5.64H289v-5.64Z" fill="#fff"/>
          <path id="Path_23721" data-name="Path 23721" d="M292.15,107.54v-7.48H293a.44.44,0,0,1,.23.06.29.29,0,0,1,.12.18l.11.53a3,3,0,0,1,.78-.64,2.13,2.13,0,0,1,1-.24,2,2,0,0,1,.84.19,1.87,1.87,0,0,1,.66.56,2.69,2.69,0,0,1,.43.9,4.6,4.6,0,0,1,.15,1.23,3.891,3.891,0,0,1-.17,1.17,2.8,2.8,0,0,1-.49.94,2.28,2.28,0,0,1-.76.62,2.19,2.19,0,0,1-1,.22,2.231,2.231,0,0,1-.82-.14,2,2,0,0,1-.59-.41v2.31Zm2.64-6.52a1.37,1.37,0,0,0-.72.18,2,2,0,0,0-.56.51v2.53a1.2,1.2,0,0,0,.5.39,1.45,1.45,0,0,0,.59.12,1.31,1.31,0,0,0,.56-.12,1.07,1.07,0,0,0,.42-.35,2.089,2.089,0,0,0,.27-.6,3.52,3.52,0,0,0,.09-.85,3.82,3.82,0,0,0-.08-.83,1.52,1.52,0,0,0-.23-.56.911.911,0,0,0-.36-.32,1.21,1.21,0,0,0-.48-.12Z" fill="#fff"/>
          <path id="Path_23722" data-name="Path 23722" d="M302,101.16a.32.32,0,0,1-.11.12.34.34,0,0,1-.16,0,.48.48,0,0,1-.21-.06l-.26-.12a2.2,2.2,0,0,0-.34-.13,1.84,1.84,0,0,0-.44-.05,1,1,0,0,0-.64.17.53.53,0,0,0-.23.44.41.41,0,0,0,.12.31,1.3,1.3,0,0,0,.31.22,3.328,3.328,0,0,0,.45.16l.5.17a5.375,5.375,0,0,1,.51.2,1.83,1.83,0,0,1,.44.28,1.3,1.3,0,0,1,.43,1,1.86,1.86,0,0,1-.15.75,1.7,1.7,0,0,1-.43.6,2.289,2.289,0,0,1-.71.39,3.131,3.131,0,0,1-1,.14,3.45,3.45,0,0,1-.57-.05,4.1,4.1,0,0,1-.53-.15,3,3,0,0,1-.48-.22,2.2,2.2,0,0,1-.38-.28l.31-.51a.43.43,0,0,1,.15-.15.41.41,0,0,1,.21-.05.4.4,0,0,1,.23.08l.27.15a1.931,1.931,0,0,0,.35.15,1.41,1.41,0,0,0,.5.08,1.29,1.29,0,0,0,.42-.06.92.92,0,0,0,.28-.15.59.59,0,0,0,.22-.48.44.44,0,0,0-.12-.32,1,1,0,0,0-.31-.22,3.682,3.682,0,0,0-.44-.17l-.52-.16a5.489,5.489,0,0,1-.51-.21,1.709,1.709,0,0,1-.44-.3,1.43,1.43,0,0,1-.32-.44,1.56,1.56,0,0,1-.12-.64,1.659,1.659,0,0,1,.14-.66,1.56,1.56,0,0,1,.41-.55,2,2,0,0,1,.66-.37,2.65,2.65,0,0,1,.92-.14,2.83,2.83,0,0,1,1.07.19,2.45,2.45,0,0,1,.79.51Z" fill="#fff"/>
        </g>
      </g>
      <g id="health" transform="translate(767.67 2419.51)">
        <g id="Group_3418" data-name="Group 3418">
          <g id="Group_3417" data-name="Group 3417">
            <path id="Path_23652" data-name="Path 23652" d="M207.17,95a.451.451,0,1,0,.48.52h0a.52.52,0,0,0-.48-.52Z" fill="#fff" stroke="#fff" stroke-width="0.45"/>
          </g>
        </g>
        <g id="Group_3420" data-name="Group 3420">
          <g id="Group_3419" data-name="Group 3419">
            <path id="Path_23653" data-name="Path 23653" d="M209.88,94.47A6.44,6.44,0,0,0,205,92.3a7.51,7.51,0,0,0-5.44,2.32,9.26,9.26,0,0,0-1.19,1.46,8.67,8.67,0,0,0-1.18-1.46,7.51,7.51,0,0,0-5.44-2.32c-4,0-6.7,3.3-6.7,7.23,0,5.31,5.62,9.78,13,16.16a.53.53,0,0,0,.69,0c7.38-6.4,13-10.86,13-16.15a7.58,7.58,0,0,0-1.86-5.07ZM198.4,114.61c-7-6-12.29-10.34-12.29-15.08,0-3.52,2.44-6.19,5.66-6.19a6.44,6.44,0,0,1,4.68,2,7.69,7.69,0,0,1,1.47,2,.53.53,0,0,0,.48.31h0a.51.51,0,0,0,.47-.31,8.16,8.16,0,0,1,1.47-2,6.46,6.46,0,0,1,4.68-2c3.23,0,5.66,2.66,5.66,6.19C210.68,104.38,205,108.9,198.4,114.61Z" fill="#fff" stroke="#fff" stroke-width="0.45"/>
          </g>
        </g>
        <g id="Group_3422" data-name="Group 3422">
          <g id="Group_3421" data-name="Group 3421">
            <path id="Path_23654" data-name="Path 23654" d="M209,96.85a.52.52,0,0,0-.92.48,4.86,4.86,0,0,1,.53,2.21c0,1.5-.71,3.1-2.25,5a.523.523,0,1,0,.82.65c1.69-2.12,2.48-3.92,2.48-5.67A5.85,5.85,0,0,0,209,96.85Z" fill="#fff" stroke="#fff" stroke-width="0.45"/>
          </g>
        </g>
        <g id="Group_3424" data-name="Group 3424">
          <g id="Group_3423" data-name="Group 3423">
            <path id="Path_23655" data-name="Path 23655" d="M203.4,102.28h-2.92V99.37a.52.52,0,0,0-.52-.52h-3.12a.52.52,0,0,0-.52.52v2.91H193.4a.52.52,0,0,0-.52.52v3.13a.52.52,0,0,0,.52.52h2.92v2.91a.52.52,0,0,0,.52.52H200a.52.52,0,0,0,.52-.52v-2.91h2.92a.53.53,0,0,0,.52-.52V102.8a.53.53,0,0,0-.52-.52Zm-.52,3.13H200a.52.52,0,0,0-.52.52v2.91H197.4v-2.91a.52.52,0,0,0-.52-.52h-2.92v-2.09h2.92a.52.52,0,0,0,.52-.52V99.89h2.08v2.91a.52.52,0,0,0,.52.52h2.92Z" fill="#fff" stroke="#fff" stroke-width="0.45"/>
          </g>
        </g>
      </g>
    </g>
    <g id="Group_3442" data-name="Group 3442" transform="translate(-599 -2493)">
      <circle id="Ellipse_359-3" data-name="Ellipse 359" cx="26.23" cy="26.23" r="26.23" transform="translate(771 2497.47)" fill="url(#linear-gradient)"/>
      <path id="Path_23723" data-name="Path 23723" d="M162.34,104.16V91.33a4.45,4.45,0,0,0-4.45-4.44l-52.55.1H53.71a5.62,5.62,0,0,0-.92.09h0a4.38,4.38,0,0,0-1.15.17,26.22,26.22,0,0,1,.54,34.18,4.909,4.909,0,0,0,.67.06l52.54-.09H157a5.749,5.749,0,0,0,.93-.09h0a4.46,4.46,0,0,0,4.44-4.46Z" transform="translate(767.67 2419.51)" fill="url(#linear-gradient-2)"/>
      <g id="Privileges" transform="translate(767.67 2419.51)" style="isolation: isolate">
        <g id="Group_3439" data-name="Group 3439" style="isolation: isolate">
          <path id="Path_23724" data-name="Path 23724" d="M82,104.49v2.8H80.52v-8h2.59a4.72,4.72,0,0,1,1.39.19,2.94,2.94,0,0,1,1,.52,2.15,2.15,0,0,1,.56.81,3,3,0,0,1,0,2.08,2.19,2.19,0,0,1-.58.83,2.79,2.79,0,0,1-1,.54,4.6,4.6,0,0,1-1.36.19Zm0-1.16h1.11a2.13,2.13,0,0,0,.71-.1,1.22,1.22,0,0,0,.5-.29,1.08,1.08,0,0,0,.3-.46,1.7,1.7,0,0,0,.1-.61,1.54,1.54,0,0,0-.1-.58,1,1,0,0,0-.3-.44,1.33,1.33,0,0,0-.5-.28,2.45,2.45,0,0,0-.71-.09H82Z" fill="#fff"/>
          <path id="Path_23725" data-name="Path 23725" d="M87.55,107.29v-5.65h.8a.46.46,0,0,1,.29.08.49.49,0,0,1,.11.27l.08.68a2.66,2.66,0,0,1,.71-.83,1.48,1.48,0,0,1,.91-.3,1.15,1.15,0,0,1,.69.19l-.17,1a.23.23,0,0,1-.07.14.24.24,0,0,1-.15,0,.79.79,0,0,1-.23,0,1.76,1.76,0,0,0-.38,0,1.12,1.12,0,0,0-.72.24,1.76,1.76,0,0,0-.51.68v3.52Z" fill="#fff"/>
          <path id="Path_23726" data-name="Path 23726" d="M94,100a.73.73,0,0,1-.08.33.83.83,0,0,1-.19.27.71.71,0,0,1-.27.18.85.85,0,0,1-1.13-.45.72.72,0,0,1-.07-.33.77.77,0,0,1,.07-.34.75.75,0,0,1,.18-.28,1.269,1.269,0,0,1,.27-.18.86.86,0,0,1,.68,0,1.06,1.06,0,0,1,.27.18A.95.95,0,0,1,94,100Zm-.21,1.64v5.65H92.4v-5.65Z" fill="#fff"/>
          <path id="Path_23727" data-name="Path 23727" d="M98.4,107.29H97.17l-2.25-5.65h1.13a.41.41,0,0,1,.25.08.28.28,0,0,1,.14.18l1.09,3c.06.18.11.35.16.52a5.025,5.025,0,0,1,.11.5,2.372,2.372,0,0,1,.11-.5c.04-.17.1-.34.16-.52l1.12-3a.32.32,0,0,1,.14-.18.36.36,0,0,1,.24-.08h1.07Z" fill="#fff"/>
          <path id="Path_23728" data-name="Path 23728" d="M103.37,100a.73.73,0,0,1-.08.33.83.83,0,0,1-.19.27.71.71,0,0,1-.27.18.85.85,0,0,1-1.13-.45.72.72,0,0,1-.07-.33.77.77,0,0,1,.07-.34.75.75,0,0,1,.18-.28,1.269,1.269,0,0,1,.27-.18.86.86,0,0,1,.68,0,1.06,1.06,0,0,1,.27.18.95.95,0,0,1,.27.62Zm-.21,1.64v5.65H101.8v-5.65Z" fill="#fff"/>
          <path id="Path_23729" data-name="Path 23729" d="M106.42,99.11v8.18h-1.36V99.11Z" fill="#fff"/>
          <path id="Path_23730" data-name="Path 23730" d="M110.56,101.56a2.62,2.62,0,0,1,1,.17,2.12,2.12,0,0,1,.77.49,2.24,2.24,0,0,1,.51.81,3,3,0,0,1,.18,1.08,1.933,1.933,0,0,1,0,.26.5.5,0,0,1,0,.16.25.25,0,0,1-.1.08.33.33,0,0,1-.15,0H109.2a1.93,1.93,0,0,0,.47,1.27,1.46,1.46,0,0,0,1.08.41,1.91,1.91,0,0,0,.57-.08,3.17,3.17,0,0,0,.41-.17l.32-.17a.52.52,0,0,1,.26-.08.33.33,0,0,1,.14,0,.31.31,0,0,1,.11.09l.39.5a2.59,2.59,0,0,1-.5.44,2.88,2.88,0,0,1-.59.28,2.69,2.69,0,0,1-.62.16h-.61a3,3,0,0,1-1.1-.2,2.48,2.48,0,0,1-.88-.57,2.84,2.84,0,0,1-.59-.95,3.71,3.71,0,0,1-.21-1.31,3.22,3.22,0,0,1,.18-1.08,2.76,2.76,0,0,1,.54-.89,2.45,2.45,0,0,1,.85-.59,2.79,2.79,0,0,1,1.14-.11Zm0,1a1.22,1.22,0,0,0-.93.34,1.59,1.59,0,0,0-.43.95h2.55a1.59,1.59,0,0,0-.07-.5,1.16,1.16,0,0,0-.22-.41,1.08,1.08,0,0,0-.38-.28,1.21,1.21,0,0,0-.49-.13Z" fill="#fff"/>
          <path id="Path_23731" data-name="Path 23731" d="M116.33,101.55a3,3,0,0,1,.69.07,2.25,2.25,0,0,1,.58.22h1.62v.5a.3.3,0,0,1-.06.2.41.41,0,0,1-.23.1l-.51.09a1.579,1.579,0,0,1,.09.31,1.691,1.691,0,0,1,0,.33,1.73,1.73,0,0,1-.17.76,1.59,1.59,0,0,1-.46.57,2.23,2.23,0,0,1-.7.37,3.06,3.06,0,0,1-.88.13,3.18,3.18,0,0,1-.62-.06.43.43,0,0,0-.26.36.26.26,0,0,0,.16.25,1.27,1.27,0,0,0,.41.11,4.8,4.8,0,0,0,.58,0h.66a4.92,4.92,0,0,1,.67.1,2,2,0,0,1,.58.22,1.12,1.12,0,0,1,.41.4,1.2,1.2,0,0,1,.16.66,1.47,1.47,0,0,1-.19.73,1.86,1.86,0,0,1-.53.63,2.84,2.84,0,0,1-.85.44,3.49,3.49,0,0,1-1.16.17,4.63,4.63,0,0,1-1.12-.12,2.55,2.55,0,0,1-.78-.33,1.39,1.39,0,0,1-.46-.48,1.042,1.042,0,0,1,.08-1.22,1.62,1.62,0,0,1,.67-.43,1,1,0,0,1-.33-.31.89.89,0,0,1-.08-.76,1.111,1.111,0,0,1,.13-.27,1.34,1.34,0,0,1,.23-.25,1.48,1.48,0,0,1,.32-.21,1.74,1.74,0,0,1-.67-.62,1.63,1.63,0,0,1-.24-.9,1.65,1.65,0,0,1,.16-.75,1.77,1.77,0,0,1,.47-.58,2.28,2.28,0,0,1,.71-.37,3.14,3.14,0,0,1,.92-.06Zm1.49,6a.4.4,0,0,0-.09-.27.73.73,0,0,0-.27-.17,1.57,1.57,0,0,0-.4-.08,3.788,3.788,0,0,0-.49,0h-.52a2.259,2.259,0,0,1-.53-.06,1.11,1.11,0,0,0-.37.3.63.63,0,0,0-.14.4.5.5,0,0,0,.07.27.67.67,0,0,0,.24.23,1.38,1.38,0,0,0,.42.14,2.869,2.869,0,0,0,.63,0,3.221,3.221,0,0,0,.66,0,1.57,1.57,0,0,0,.45-.17.68.68,0,0,0,.26-.24.59.59,0,0,0,.08-.38Zm-1.49-3.19a1.16,1.16,0,0,0,.44-.07.86.86,0,0,0,.31-.19.7.7,0,0,0,.19-.29,1.17,1.17,0,0,0,.07-.38.88.88,0,0,0-.26-.66,1,1,0,0,0-.75-.24,1.06,1.06,0,0,0-.75.24.91.91,0,0,0-.25.66.87.87,0,0,0,.07.37.83.83,0,0,0,.18.3,1,1,0,0,0,.32.19,1.14,1.14,0,0,0,.43.04Z" fill="#fff"/>
          <path id="Path_23732" data-name="Path 23732" d="M122.68,101.56a2.59,2.59,0,0,1,1,.17,2.25,2.25,0,0,1,.78.49,2.36,2.36,0,0,1,.5.81,3,3,0,0,1,.18,1.08,1.93,1.93,0,0,1,0,.26.5.5,0,0,1,0,.16.2.2,0,0,1-.1.08.33.33,0,0,1-.15,0H121.4a1.93,1.93,0,0,0,.47,1.27,1.46,1.46,0,0,0,1.08.41,1.91,1.91,0,0,0,.57-.08,2.81,2.81,0,0,0,.42-.17l.31-.17a.56.56,0,0,1,.26-.08.33.33,0,0,1,.14,0,.31.31,0,0,1,.11.09l.39.5a2.59,2.59,0,0,1-.5.44,2.88,2.88,0,0,1-.59.28,2.69,2.69,0,0,1-.62.16h-.61a3,3,0,0,1-1.1-.2,2.48,2.48,0,0,1-.88-.57,2.84,2.84,0,0,1-.59-.95,3.71,3.71,0,0,1-.21-1.31,3,3,0,0,1,.19-1.08,2.57,2.57,0,0,1,.53-.89,2.49,2.49,0,0,1,.86-.59,2.71,2.71,0,0,1,1.05-.11Zm0,1a1.22,1.22,0,0,0-.93.34,1.59,1.59,0,0,0-.43.95h2.55a1.59,1.59,0,0,0-.07-.5,1.16,1.16,0,0,0-.22-.41,1,1,0,0,0-.37-.28,1.25,1.25,0,0,0-.5-.13Z" fill="#fff"/>
          <path id="Path_23733" data-name="Path 23733" d="M129.85,102.74a.36.36,0,0,1-.11.13.35.35,0,0,1-.16,0,.46.46,0,0,1-.21-.05l-.26-.13-.34-.12a1.47,1.47,0,0,0-.45,0,1,1,0,0,0-.63.17.53.53,0,0,0-.23.44.45.45,0,0,0,.12.31,1.05,1.05,0,0,0,.31.21,2.351,2.351,0,0,0,.45.17l.5.16a5.492,5.492,0,0,1,.51.21,1.83,1.83,0,0,1,.44.28,1.31,1.31,0,0,1,.31.42,1.28,1.28,0,0,1,.12.58,1.86,1.86,0,0,1-.15.75,1.58,1.58,0,0,1-.43.59,2,2,0,0,1-.71.39,2.85,2.85,0,0,1-1,.15,2.62,2.62,0,0,1-.57-.06,3.05,3.05,0,0,1-.54-.14,3.379,3.379,0,0,1-.47-.22,2.88,2.88,0,0,1-.38-.28l.31-.51a.36.36,0,0,1,.15-.15.39.39,0,0,1,.2,0,.48.48,0,0,1,.24.07l.26.16.35.15a1.53,1.53,0,0,0,.51.07,1.73,1.73,0,0,0,.42,0,.76.76,0,0,0,.28-.16.56.56,0,0,0,.17-.21.75.75,0,0,0,0-.26.44.44,0,0,0-.12-.32.91.91,0,0,0-.31-.22,2.35,2.35,0,0,0-.45-.17l-.51-.16a5.494,5.494,0,0,1-.51-.21,1.71,1.71,0,0,1-.44-.3,1.43,1.43,0,0,1-.32-.44,1.56,1.56,0,0,1-.12-.64,1.66,1.66,0,0,1,.14-.66,1.56,1.56,0,0,1,.41-.55,2,2,0,0,1,.66-.37,2.62,2.62,0,0,1,.92-.14,2.78,2.78,0,0,1,1.06.19,2.54,2.54,0,0,1,.8.5Z" fill="#fff"/>
        </g>
      </g>
      <g id="Group_3425" data-name="Group 3425" transform="translate(767.67 2419.51)">
        <path id="Path_23697" data-name="Path 23697" d="M44.05,98.94,42,111.42H17L14.94,98.94l8.32,3.12,6.24-7.28,6.23,7.28Z" fill="none" stroke="#fff" stroke-miterlimit="10" stroke-width="1.36"/>
        <path id="Path_23698" data-name="Path 23698" d="M29.5,108.3a3.12,3.12,0,1,0-3.12-3.12,3.12,3.12,0,0,0,3.12,3.12m0-4.16a1.04,1.04,0,1,1,0,2.08,1,1,0,0,1-1-1h0a1,1,0,0,1,1-1" fill="#fff"/>
        <path id="Rectangle_2918" data-name="Rectangle 2918" d="M35.73,106.22h0a1,1,0,0,1,1,1h0a1,1,0,0,1-1,1h0a1,1,0,0,1-1-1h0A1,1,0,0,1,35.73,106.22Z" fill="#fff"/>
        <path id="Rectangle_2919" data-name="Rectangle 2919" d="M23.26,106.22h0a1,1,0,0,1,1,1h0a1,1,0,0,1-1,1h0a1,1,0,0,1-1-1h0A1,1,0,0,1,23.26,106.22Z" fill="#fff"/>
      </g>
    </g>
    <g id="Group_3444" data-name="Group 3444" transform="translate(-768 -2420)">
      <circle id="Ellipse_359-4" data-name="Ellipse 359" cx="26.23" cy="26.23" r="26.23" transform="translate(771 2424)" fill="url(#linear-gradient)"/>
      <path id="Path_23703" data-name="Path 23703" d="M162.34,30.69V17.85a4.44,4.44,0,0,0-4.45-4.43l-52.55.09H53.71a5.62,5.62,0,0,0-.92.09h0a4.84,4.84,0,0,0-1.15.18A26.2,26.2,0,0,1,52.15,48a4.9,4.9,0,0,0,.67.07l52.54-.1H157a5.749,5.749,0,0,0,.93-.09h0a4.45,4.45,0,0,0,4.44-4.45Z" transform="translate(767.67 2419.51)" fill="url(#linear-gradient-2)"/>
      <g id="gift" transform="translate(767.67 2419.51)">
        <path id="Path_23638" data-name="Path 23638" d="M38.14,42.23H20.59A1.46,1.46,0,0,1,19,40.88v-9a.5.5,0,0,1,.52-.45H39.17a.5.5,0,0,1,.52.45v9A1.46,1.46,0,0,1,38.14,42.23ZM20.07,32.35v8.54a.48.48,0,0,0,.52.44H38.14a.48.48,0,0,0,.52-.44V32.35Z" fill="#fff" stroke="#fff" stroke-width="0.5"/>
        <path id="Path_23639" data-name="Path 23639" d="M40,31.45H18.76a1.44,1.44,0,0,1-1.52-1.34v-2.7a1.45,1.45,0,0,1,1.52-1.35H40a1.45,1.45,0,0,1,1.52,1.35v2.7A1.44,1.44,0,0,1,40,31.45ZM18.76,27a.49.49,0,0,0-.51.45v2.7a.49.49,0,0,0,.51.45H40a.49.49,0,0,0,.51-.45v-2.7A.49.49,0,0,0,40,27Z" fill="#fff" stroke="#fff" stroke-width="0.5"/>
        <path id="Path_23640" data-name="Path 23640" d="M30.71,26.39a.45.45,0,0,1-.45-.45v-.06c0-.07,1-6.68,6.29-6.68,2.32,0,3.14,1.26,3.14,2.33C39.69,23.55,36.9,26.39,30.71,26.39Zm5.84-6.29c-3.7,0-5,3.94-5.29,5.39,4.92-.16,7.53-2.35,7.53-4a1.15,1.15,0,0,0-.5-1,3,3,0,0,0-1.74-.39Z" fill="#fff" stroke="#fff" stroke-width="0.5"/>
        <path id="Path_23641" data-name="Path 23641" d="M28,26.39c-6.19,0-9-2.84-9-4.86a2.08,2.08,0,0,1,.86-1.69,3.84,3.84,0,0,1,2.29-.64c5.26,0,6.27,6.61,6.28,6.68a.46.46,0,0,1-.38.51ZM22.19,20.1c-1.39,0-2.25.55-2.25,1.43,0,1.6,2.62,3.8,7.54,3.95C27.15,24,25.93,20.1,22.19,20.1Z" fill="#fff" stroke="#fff" stroke-width="0.5"/>
        <path id="Path_23642" data-name="Path 23642" d="M29.37,42.23a.45.45,0,0,1-.45-.45V27.41a.45.45,0,0,1,.9,0V41.78A.45.45,0,0,1,29.37,42.23Z" fill="#fff" stroke="#fff" stroke-width="0.5"/>
      </g>
      <g id="Reward_Points" data-name="Reward Points" transform="translate(767.67 2419.51)" style="isolation: isolate">
        <g id="Group_3440" data-name="Group 3440" style="isolation: isolate">
          <path id="Path_23734" data-name="Path 23734" d="M71,31.65v3.11H69.56V26.81H72a5.11,5.11,0,0,1,1.39.16,2.87,2.87,0,0,1,1,.47,2,2,0,0,1,.54.73,2.33,2.33,0,0,1,.17.93,2.611,2.611,0,0,1-.11.75,2.14,2.14,0,0,1-.35.65A2.11,2.11,0,0,1,74,31a3,3,0,0,1-.74.35,1.37,1.37,0,0,1,.48.45l2,2.94h-1.3a.63.63,0,0,1-.32-.08.6.6,0,0,1-.23-.22L72.22,31.9a.69.69,0,0,0-.21-.21.75.75,0,0,0-.33-.06Zm0-1.06h1a2.3,2.3,0,0,0,.73-.1,1.58,1.58,0,0,0,.51-.29,1.23,1.23,0,0,0,.3-.44,1.63,1.63,0,0,0,.1-.55,1.13,1.13,0,0,0-.4-.93A1.89,1.89,0,0,0,72,28H71Z" fill="#fff"/>
          <path id="Path_23735" data-name="Path 23735" d="M79.25,29a2.8,2.8,0,0,1,1,.17,2,2,0,0,1,.77.5,2.2,2.2,0,0,1,.51.8,3.08,3.08,0,0,1,.18,1.09,1.851,1.851,0,0,1,0,.25.5.5,0,0,1-.05.16.16.16,0,0,1-.1.08.33.33,0,0,1-.15,0H77.89a2,2,0,0,0,.47,1.28,1.46,1.46,0,0,0,1.08.4,1.93,1.93,0,0,0,.57-.07,2.28,2.28,0,0,0,.41-.18,3.1,3.1,0,0,0,.32-.17A.51.51,0,0,1,81,33.3a.32.32,0,0,1,.14,0,.31.31,0,0,1,.11.09l.39.5a2.29,2.29,0,0,1-.5.44,2.93,2.93,0,0,1-.59.29,3.3,3.3,0,0,1-.62.15,4.35,4.35,0,0,1-.61,0,3,3,0,0,1-1.1-.19,2.5,2.5,0,0,1-.88-.58,2.84,2.84,0,0,1-.59-1,3.69,3.69,0,0,1-.21-1.3,3,3,0,0,1,.19-1.09,2.53,2.53,0,0,1,.53-.88,2.61,2.61,0,0,1,.85-.6A2.79,2.79,0,0,1,79.25,29Zm0,1a1.22,1.22,0,0,0-.93.34,1.59,1.59,0,0,0-.43.95h2.55a1.63,1.63,0,0,0-.07-.5,1.25,1.25,0,0,0-.22-.41,1.17,1.17,0,0,0-.37-.28,1.43,1.43,0,0,0-.5-.1Z" fill="#fff"/>
          <path id="Path_23736" data-name="Path 23736" d="M82.39,29.12h1.07a.42.42,0,0,1,.26.07.28.28,0,0,1,.13.18l.81,3a4.846,4.846,0,0,1,.11.49.975.975,0,0,0,.08.47,1.653,1.653,0,0,1,.13-.47c.05-.16.09-.32.14-.49l.94-3a.29.29,0,0,1,.13-.18.37.37,0,0,1,.23-.07H87a.41.41,0,0,1,.25.07.34.34,0,0,1,.13.18l.93,3.08a2.393,2.393,0,0,0,.12.46l.12.45a2.673,2.673,0,0,1,.08-.48,4.976,4.976,0,0,1,.12-.49l.84-3a.28.28,0,0,1,.13-.18.4.4,0,0,1,.24-.07h1l-1.79,5.64H88.13c-.12,0-.2-.08-.26-.24l-1-3.26a2,2,0,0,1-.09-.33,3,3,0,0,1-.07-.32.566.566,0,0,1-.07.33l-.09.33-1,3.25a.3.3,0,0,1-.3.24h-1Z" fill="#fff"/>
          <path id="Path_23737" data-name="Path 23737" d="M96.47,34.76h-.61a.61.61,0,0,1-.3-.06.35.35,0,0,1-.17-.23l-.12-.4a4.181,4.181,0,0,1-.42.34,3.62,3.62,0,0,1-.43.24,1.77,1.77,0,0,1-.46.15,3.12,3.12,0,0,1-.55.05,2,2,0,0,1-.66-.1,1.32,1.32,0,0,1-.52-.29,1.27,1.27,0,0,1-.34-.48,1.71,1.71,0,0,1-.12-.67,1.25,1.25,0,0,1,.17-.63,1.54,1.54,0,0,1,.55-.56,3.51,3.51,0,0,1,1-.42,6.72,6.72,0,0,1,1.61-.16V31.2a1.24,1.24,0,0,0-.23-.84.9.9,0,0,0-.7-.27,1.75,1.75,0,0,0-.55.07,1.68,1.68,0,0,0-.38.18l-.3.17a.61.61,0,0,1-.3.08.38.38,0,0,1-.24-.08.44.44,0,0,1-.16-.17L92,29.9a3.37,3.37,0,0,1,2.38-.9,2.23,2.23,0,0,1,.88.17,1.69,1.69,0,0,1,.66.45,1.84,1.84,0,0,1,.41.69,2.71,2.71,0,0,1,.14.88Zm-2.64-.85a2.381,2.381,0,0,0,.39,0,2.19,2.19,0,0,0,.33-.12,1.66,1.66,0,0,0,.3-.19,1.75,1.75,0,0,0,.29-.26V32.4a5.6,5.6,0,0,0-1,.07,3.1,3.1,0,0,0-.64.19.88.88,0,0,0-.34.27.7.7,0,0,0,.11.86A.92.92,0,0,0,93.83,33.91Z" fill="#fff"/>
          <path id="Path_23738" data-name="Path 23738" d="M98.08,34.76V29.12h.8a.42.42,0,0,1,.29.07.45.45,0,0,1,.11.27l.08.68a2.78,2.78,0,0,1,.71-.83A1.51,1.51,0,0,1,101,29a1.17,1.17,0,0,1,.69.2l-.18,1c0,.07,0,.12-.07.14a.22.22,0,0,1-.15,0h-.22a1.34,1.34,0,0,0-.38,0,1.14,1.14,0,0,0-.73.23,1.8,1.8,0,0,0-.51.69v3.51Z" fill="#fff"/>
          <path id="Path_23739" data-name="Path 23739" d="M106.82,34.76a.34.34,0,0,1-.35-.25l-.1-.54c-.12.13-.25.25-.37.36a3,3,0,0,1-.42.27,2,2,0,0,1-.48.18,2.38,2.38,0,0,1-.55.06,1.86,1.86,0,0,1-.85-.19,1.94,1.94,0,0,1-.66-.56,2.51,2.51,0,0,1-.43-.9,4.6,4.6,0,0,1-.15-1.23,4,4,0,0,1,.17-1.17,2.9,2.9,0,0,1,.49-.94,2.24,2.24,0,0,1,1.77-.84,1.94,1.94,0,0,1,.8.15,2.13,2.13,0,0,1,.6.41v-3h1.36v8.17Zm-1.81-1a1.37,1.37,0,0,0,.72-.18,2.17,2.17,0,0,0,.56-.5V30.56a1.32,1.32,0,0,0-.5-.4,1.63,1.63,0,0,0-.59-.11,1.38,1.38,0,0,0-.55.11,1.21,1.21,0,0,0-.43.35,1.84,1.84,0,0,0-.26.6,3.05,3.05,0,0,0-.1.85,3.89,3.89,0,0,0,.08.83,1.72,1.72,0,0,0,.23.56.91.91,0,0,0,.36.32,1.29,1.29,0,0,0,.47.1Z" fill="#fff"/>
          <path id="Path_23740" data-name="Path 23740" d="M113.4,32v2.8h-1.48V26.81h2.59a4.71,4.71,0,0,1,1.38.18,2.61,2.61,0,0,1,1,.53,1.94,1.94,0,0,1,.56.8,2.87,2.87,0,0,1,0,2.08,2.28,2.28,0,0,1-.57.83,2.75,2.75,0,0,1-1,.54,4.19,4.19,0,0,1-1.35.19Zm0-1.15h1.11a2.16,2.16,0,0,0,.71-.11,1.18,1.18,0,0,0,.5-.29A1.23,1.23,0,0,0,116,30a1.9,1.9,0,0,0,.1-.61,1.7,1.7,0,0,0-.1-.57,1.15,1.15,0,0,0-.3-.44,1.17,1.17,0,0,0-.5-.28,2.17,2.17,0,0,0-.71-.1H113.4Z" fill="#fff"/>
          <path id="Path_23741" data-name="Path 23741" d="M121.19,29a3.17,3.17,0,0,1,1.14.2,2.46,2.46,0,0,1,.88.58,2.54,2.54,0,0,1,.56.91,3.76,3.76,0,0,1,0,2.42,2.68,2.68,0,0,1-.56.92,2.46,2.46,0,0,1-.88.58,3.17,3.17,0,0,1-1.14.2,3.23,3.23,0,0,1-1.15-.2,2.59,2.59,0,0,1-.89-.58,2.68,2.68,0,0,1-.56-.92,3.76,3.76,0,0,1,0-2.42,2.54,2.54,0,0,1,.56-.91,2.59,2.59,0,0,1,.89-.58A3.23,3.23,0,0,1,121.19,29Zm0,4.77a1.19,1.19,0,0,0,1-.48,2.38,2.38,0,0,0,.34-1.38,2.43,2.43,0,0,0-.34-1.39,1.19,1.19,0,0,0-1-.48,1.21,1.21,0,0,0-1.06.48,2.36,2.36,0,0,0-.34,1.39,2.32,2.32,0,0,0,.34,1.38,1.21,1.21,0,0,0,1.06.51Z" fill="#fff"/>
          <path id="Path_23742" data-name="Path 23742" d="M127,27.47a.88.88,0,0,1-.07.33.93.93,0,0,1-.19.27,1.07,1.07,0,0,1-.28.19.86.86,0,0,1-.68,0,1,1,0,0,1-.27-.19.64.64,0,0,1-.18-.27.72.72,0,0,1-.07-.33.8.8,0,0,1,.07-.34.71.71,0,0,1,.18-.27,1,1,0,0,1,.27-.19.86.86,0,0,1,.68,0,1.07,1.07,0,0,1,.28.19,1.09,1.09,0,0,1,.19.27,1,1,0,0,1,.07.34Zm-.21,1.65v5.64h-1.36V29.12Z" fill="#fff"/>
          <path id="Path_23743" data-name="Path 23743" d="M128.56,34.76V29.12h.83a.34.34,0,0,1,.35.24l.09.45c.12-.12.24-.22.36-.32a2.8,2.8,0,0,1,.41-.25,2.18,2.18,0,0,1,.45-.16,2.89,2.89,0,0,1,.53,0,2,2,0,0,1,.82.16,1.61,1.61,0,0,1,.59.44,2,2,0,0,1,.37.67,3,3,0,0,1,.12.87v3.59h-1.36V31.17a1.19,1.19,0,0,0-.24-.8.89.89,0,0,0-.72-.28,1.52,1.52,0,0,0-.66.15,2.61,2.61,0,0,0-.58.44v4.08Z" fill="#fff"/>
          <path id="Path_23744" data-name="Path 23744" d="M136.94,34.85a1.46,1.46,0,0,1-1.12-.42,1.55,1.55,0,0,1-.4-1.14V30.13h-.57a.26.26,0,0,1-.19-.07.27.27,0,0,1-.08-.21v-.54l.91-.15.28-1.54a.32.32,0,0,1,.1-.17.35.35,0,0,1,.21-.06h.7v1.78h1.48v1h-1.48v3.06a.56.56,0,0,0,.13.41.45.45,0,0,0,.35.15.69.69,0,0,0,.22,0l.14-.06.12-.06a.17.17,0,0,1,.1,0,.12.12,0,0,1,.09,0,.38.38,0,0,1,.09.09l.4.66a1.94,1.94,0,0,1-.68.37,2.36,2.36,0,0,1-.8.06Z" fill="#fff"/>
          <path id="Path_23745" data-name="Path 23745" d="M143,30.22a.26.26,0,0,1-.11.12.38.38,0,0,1-.16,0,.48.48,0,0,1-.21-.06l-.26-.12a2.2,2.2,0,0,0-.34-.13,1.93,1.93,0,0,0-.45-.05,1.07,1.07,0,0,0-.63.17.53.53,0,0,0-.23.45.41.41,0,0,0,.12.3,1.07,1.07,0,0,0,.31.22,3.68,3.68,0,0,0,.44.17l.51.16a5.38,5.38,0,0,1,.51.2,1.83,1.83,0,0,1,.44.28,1.43,1.43,0,0,1,.31.42,1.31,1.31,0,0,1,.12.58,1.86,1.86,0,0,1-.15.75,1.7,1.7,0,0,1-.43.6,2.29,2.29,0,0,1-.71.39,3.13,3.13,0,0,1-1,.14,3.45,3.45,0,0,1-.57-.05,4.26,4.26,0,0,1-.54-.15,2.921,2.921,0,0,1-.47-.22,2.2,2.2,0,0,1-.38-.28l.31-.51a.47.47,0,0,1,.14-.14.36.36,0,0,1,.21,0,.4.4,0,0,1,.24.07l.26.15a2.29,2.29,0,0,0,.35.16,1.85,1.85,0,0,0,.51.07,1.33,1.33,0,0,0,.42-.06.92.92,0,0,0,.28-.15.6.6,0,0,0,.17-.22.75.75,0,0,0,0-.26.44.44,0,0,0-.12-.32,1.07,1.07,0,0,0-.31-.22,3.28,3.28,0,0,0-.45-.17l-.51-.16a5.49,5.49,0,0,1-.51-.21,1.37,1.37,0,0,1-.45-.3,1.4,1.4,0,0,1-.31-.44,1.56,1.56,0,0,1-.12-.64,1.63,1.63,0,0,1,.54-1.21,2,2,0,0,1,.67-.37,2.87,2.87,0,0,1,.92-.14,2.78,2.78,0,0,1,1.06.19,2.39,2.39,0,0,1,.8.51Z" fill="#fff"/>
        </g>
      </g>
    </g>
  </g>
</svg>
