<svg xmlns="http://www.w3.org/2000/svg" xmlns:xlink="http://www.w3.org/1999/xlink" width="86" height="29" viewBox="0 0 86 29">
  <defs>
    <clipPath id="clip-AsterSecureLogo">
      <rect width="86" height="29"/>
    </clipPath>
  </defs>
  <g id="AsterSecureLogo" clip-path="url(#clip-AsterSecureLogo)">
    <g id="Group_3414" data-name="Group 3414" transform="translate(-197.205 -232.282)">
      <path id="Path_20953" data-name="Path 20953" d="M198.687,314.868a5.023,5.023,0,0,0,.526,1.3,3.663,3.663,0,0,0,1.285,1.215,3.846,3.846,0,0,0,1.933.455,3.6,3.6,0,0,0,2.491-.811,2.509,2.509,0,0,0,.905-1.929,2.211,2.211,0,0,0-.817-1.726,7.4,7.4,0,0,0-2.533-1.079,9.7,9.7,0,0,1-3.669-1.717,3.063,3.063,0,0,1-1.1-2.393,3.551,3.551,0,0,1,1.225-2.7,4.547,4.547,0,0,1,3.214-1.131,5.812,5.812,0,0,1,2.28.451,4.535,4.535,0,0,1,1.792,1.341,4.617,4.617,0,0,1,.788,1.614l-1.436.44a3.584,3.584,0,0,0-1.262-1.942,3.464,3.464,0,0,0-2.144-.676,3.074,3.074,0,0,0-2.129.723,2.219,2.219,0,0,0-.807,1.706,2.027,2.027,0,0,0,.657,1.464,7.152,7.152,0,0,0,2.853,1.293,8.615,8.615,0,0,1,3.612,1.735,3.416,3.416,0,0,1,.984,2.507A3.78,3.78,0,0,1,206,317.93a5.128,5.128,0,0,1-3.565,1.207,5.863,5.863,0,0,1-2.543-.548,4.941,4.941,0,0,1-1.877-1.525,5.274,5.274,0,0,1-.807-1.8Z" transform="translate(0 -58.602)" fill="#b9811c"/>
      <path id="Path_20954" data-name="Path 20954" d="M279.091,305.815h8.378v1.351h-7v4.644h5.207v1.369H280.47v5.489h7.674v1.37h-9.054Z" transform="translate(-66.576 -59.785)" fill="#b9811c"/>
      <path id="Path_20955" data-name="Path 20955" d="M358.99,314.136a6.428,6.428,0,0,1-.76,1.923,5.356,5.356,0,0,1-1.919,1.811,5.5,5.5,0,0,1-2.726.657,6.434,6.434,0,0,1-3.152-.829,5.364,5.364,0,0,1-2.28-2.482,9.049,9.049,0,0,1-.779-3.894,10.1,10.1,0,0,1,.793-4.128,5.688,5.688,0,0,1,2.3-2.688,6.141,6.141,0,0,1,3.18-.9,5.675,5.675,0,0,1,2.406.544A5.159,5.159,0,0,1,358,305.692a5.377,5.377,0,0,1,.854,1.839l-2.627.751a3.173,3.173,0,0,0-1-1.759,2.61,2.61,0,0,0-1.721-.6,2.583,2.583,0,0,0-2.337,1.455,7.591,7.591,0,0,0-.835,3.8,7.988,7.988,0,0,0,.385,2.6,3.464,3.464,0,0,0,1.06,1.647,2.327,2.327,0,0,0,1.464.529,3.031,3.031,0,0,0,2.111-.854,3.927,3.927,0,0,0,1.032-1.707Z" transform="translate(-122.092 -57.992)" fill="#b9811c"/>
      <path id="Path_20956" data-name="Path 20956" d="M432.071,305.111H434.9v8.764a3.5,3.5,0,0,0,.76,2.458,2.683,2.683,0,0,0,2.064.817,3.245,3.245,0,0,0,1.482-.328,2.4,2.4,0,0,0,1.037-1.07,4.012,4.012,0,0,0,.389-1.876v-8.764h2.844v9.176a5.431,5.431,0,0,1-1.436,4.044,5.742,5.742,0,0,1-4.2,1.416,8.56,8.56,0,0,1-2.974-.507,3.762,3.762,0,0,1-1.22-.713,4.974,4.974,0,0,1-1.125-1.581,6.178,6.178,0,0,1-.45-2.585Z" transform="translate(-190.954 -59.212)" fill="#b9811c"/>
      <path id="Path_20957" data-name="Path 20957" d="M521.129,305.11H525a13.433,13.433,0,0,1,4.32.47,3.724,3.724,0,0,1,1.863,1.549,4.616,4.616,0,0,1,.667,2.477,3.566,3.566,0,0,1-.6,2.126,4.622,4.622,0,0,1-2.082,1.44l2.582,6.295h-2.8l-2.407-5.77h-2.583v5.77h-2.834Zm2.834,2.506v3.865h2.26a3.255,3.255,0,0,0,2.111-.7,1.592,1.592,0,0,0,.572-1.3,1.656,1.656,0,0,0-.639-1.328,3.186,3.186,0,0,0-2.045-.53Z" transform="translate(-263.361 -59.211)" fill="#b9811c"/>
      <path id="Path_20958" data-name="Path 20958" d="M603.008,305.111h9.627v2.5h-6.8v3.162h4.147V312.9h-4.147v4.091h6.8v2.478h-9.627Z" transform="translate(-329.931 -59.213)" fill="#b9811c"/>
      <path id="Path_20959" data-name="Path 20959" d="M438.241,233.931c-2.095-2.721-5.7-1.956-5.594,1.423.109,3.445,5.594,7.012,5.594,7.012s5.484-3.567,5.595-7.012c.107-3.379-3.5-4.144-5.595-1.423" transform="translate(-191.42 0)" fill="#1c937e"/>
      <path id="Path_20960" data-name="Path 20960" d="M197.206,250.939l2.808-7.976h1.949l2.819,7.976v.5h-1.828l-.7-2.153H199.4l-.679,2.153h-1.512Zm2.59-2.954h2.033l-1.017-3.123h-.024Z" transform="translate(-0.001 -8.684)" fill="#b9811c"/>
      <path id="Path_20961" data-name="Path 20961" d="M239.357,259.88v-1.308h.558a2.312,2.312,0,0,0,1.561.533c.713,0,1.088-.193,1.088-.592s-.231-.569-1.125-.679c-1.391-.168-2.13-.689-2.13-1.936,0-1.283.957-2,2.518-2a4.118,4.118,0,0,1,2,.437v1.282h-.532a2.476,2.476,0,0,0-1.453-.422c-.689,0-.956.205-.956.567,0,.328.315.5,1.187.605,1.512.194,2.141.691,2.141,1.974,0,1.247-.81,2.058-2.65,2.058a4.3,4.3,0,0,1-2.2-.52" transform="translate(-34.232 -17.576)" fill="#b9811c"/>
      <path id="Path_20962" data-name="Path 20962" d="M265.962,246.923h.75v-1.694h1.767v1.694h1.283v1.187h-1.283v3.254c0,.607.242.775.824.775h.483v1.066a3.537,3.537,0,0,1-1.114.168c-1.223,0-1.96-.483-1.96-1.8v-3.46h-.75Z" transform="translate(-55.902 -10.526)" fill="#b9811c"/>
      <path id="Path_20963" data-name="Path 20963" d="M288.567,257.441c.086,1.27.691,1.621,1.672,1.621a2.787,2.787,0,0,0,1.681-.532h.545v1.161a4.64,4.64,0,0,1-2.493.618,2.946,2.946,0,0,1-3.219-3.232,3.044,3.044,0,0,1,3.1-3.3c1.863,0,2.857,1.028,2.857,3.123,0,.217-.025.483-.025.544Zm.025-1.066h2.371c-.035-1.126-.423-1.489-1.113-1.489-.618,0-1.126.3-1.258,1.489" transform="translate(-72.805 -17.473)" fill="#b9811c"/>
      <path id="Path_20964" data-name="Path 20964" d="M324.3,255.793v4.587h-1.767v-6.354h1.2c.3,0,.485.133.545.763a2.4,2.4,0,0,1,1.768-.823,1.4,1.4,0,0,1,.387.061v1.392h-.3a3.989,3.989,0,0,0-1.827.374" transform="translate(-101.896 -17.63)" fill="#b9811c"/>
    </g>
  </g>
</svg>
