<svg xmlns="http://www.w3.org/2000/svg" xmlns:xlink="http://www.w3.org/1999/xlink" width="52" height="52" viewBox="0 0 52 52">
  <defs>
    <clipPath id="clip-path">
      <rect id="Rectangle_2436" data-name="Rectangle 2436" width="52" height="37.556" fill="#fff"/>
    </clipPath>
    <clipPath id="clip-Beauty_Icon">
      <rect width="52" height="52"/>
    </clipPath>
  </defs>
  <g id="Beauty_Icon" data-name="Beauty Icon" clip-path="url(#clip-Beauty_Icon)">
    <g id="Group_3406" data-name="Group 3406" transform="translate(0 14)">
      <g id="Group_2304" data-name="Group 2304" clip-path="url(#clip-path)">
        <path id="Path_21865" data-name="Path 21865" d="M46.186,113.778H5.76A5.8,5.8,0,0,0,0,119.593v14.446a5.733,5.733,0,0,0,5.76,5.739H46.186A5.779,5.779,0,0,0,52,134.039V119.593a5.844,5.844,0,0,0-5.814-5.815m3.888,20.261a3.851,3.851,0,0,1-3.888,3.813H5.76a3.805,3.805,0,0,1-3.834-3.813V119.593A3.87,3.87,0,0,1,5.76,115.7H46.186a3.916,3.916,0,0,1,3.888,3.889v14.446Z" transform="translate(0 -102.222)" fill="#fff"/>
        <path id="Path_21866" data-name="Path 21866" d="M103.926,180.148H67.333a.963.963,0,0,0-.963.963V191.7a.963.963,0,0,0,.963.963h36.593a.963.963,0,0,0,.963-.963V181.111a.963.963,0,0,0-.963-.963m-.963,10.593H68.3v-8.667h34.667v8.667Z" transform="translate(-59.629 -161.852)" fill="#fff"/>
        <path id="Path_21867" data-name="Path 21867" d="M59.262,8.462l-.991-3.979A6.137,6.137,0,0,0,52.548,0H15.959a6.142,6.142,0,0,0-5.723,4.488L9.246,8.462a.933.933,0,0,0,.175.812.95.95,0,0,0,.759.356H58.328a.936.936,0,0,0,.934-1.168M11.413,7.7,12.1,4.935a4.239,4.239,0,0,1,3.854-3.01H52.548A4.24,4.24,0,0,1,56.4,4.935L57.095,7.7Z" transform="translate(-8.281)" fill="#fff"/>
      </g>
    </g>
  </g>
</svg>
