<svg xmlns="http://www.w3.org/2000/svg" width="16.818" height="16.818" viewBox="0 0 16.818 16.818">
    <path id="Path_20863" data-name="Path 20863" d="M16.817,13.553a2.488,2.488,0,0,0-.763-1.71,6.11,6.11,0,0,0-2.419-1.607,2.708,2.708,0,0,0-2.78.789l0,0-.889.882a13.228,13.228,0,0,1-2.8-2.167l-.086-.086a13.311,13.311,0,0,1-2.166-2.8l.882-.888,0,0a2.708,2.708,0,0,0,.789-2.78A6.11,6.11,0,0,0,4.976.765,2.5,2.5,0,0,0,1.507.64L1.488.657,1.462.682A5.33,5.33,0,0,0,0,4.586c.013,2.7,1.5,5.79,3.971,8.262l.006.006q.2.2.406.389l0,.014s.184.172.508.438q.314.265.651.524a.66.66,0,0,0,.116.071A13.707,13.707,0,0,0,9.59,16.366l.089.026a8.73,8.73,0,0,0,2.555.427h.037a5.319,5.319,0,0,0,3.868-1.462l.024-.026.017-.019A2.488,2.488,0,0,0,16.817,13.553Z" transform="translate(0 -0.001)" fill="#00b48d"/>
</svg>