<svg id="Component_30_1" data-name="Component 30 – 1" xmlns="http://www.w3.org/2000/svg" xmlns:xlink="http://www.w3.org/1999/xlink" width="25" height="22.923" viewBox="0 0 25 22.923">
  <defs>
    <clipPath id="clip-path">
      <rect id="Rectangle_2825" data-name="Rectangle 2825" width="25" height="22.923" fill="#fff"/>
    </clipPath>
  </defs>
  <g id="Group_3305" data-name="Group 3305">
    <g id="Group_3304" data-name="Group 3304" transform="translate(0 0)" clip-path="url(#clip-path)">
      <path id="Path_23558" data-name="Path 23558" d="M25,10.75v.714H23.42v.185q0,4.841,0,9.68a1.84,1.84,0,0,1-.014.293,1.566,1.566,0,0,1-1.581,1.3q-9.329,0-18.659,0a1.553,1.553,0,0,1-1.593-1.6c.018-3.23.007-6.462.007-9.692v-.172H0c0-.035,0-.061,0-.085q0-2.252,0-4.5A1.3,1.3,0,0,1,.22,6.152,1.61,1.61,0,0,1,1.643,5.4c.782,0,1.564,0,2.346,0,.043,0,.085,0,.143-.007-.025-.03-.032-.04-.041-.049A3.467,3.467,0,0,1,3.009,2.417,2.517,2.517,0,0,1,4.773.186,4.261,4.261,0,0,1,7.584.3,7.7,7.7,0,0,1,10.113,1.92a16.161,16.161,0,0,1,2.255,2.61c.028.039.057.077.075.1.43-.539.84-1.083,1.281-1.6A10.465,10.465,0,0,1,16.284.791,4.764,4.764,0,0,1,19.57.061a2.672,2.672,0,0,1,1.463.665,2.718,2.718,0,0,1,.789,2.352,3.7,3.7,0,0,1-1.022,2.2c-.029.033-.058.067-.106.123h.165c.816,0,1.633,0,2.449,0A1.547,1.547,0,0,1,24.927,7c0,1.187.034,2.373.056,3.559A1.886,1.886,0,0,0,25,10.75m-11.782.719v9.96h8.345a.35.35,0,0,1,.114,0,.193.193,0,0,1,.1.08,1.665,1.665,0,0,1,.065.237l.023,0V11.47ZM3.167,21.421H11.7V11.469H3.167ZM1.586,9.959H11.7V6.9H1.586Zm11.628,0H23.333V6.906H13.214ZM13.872,5.4c.055,0,.076,0,.1,0,.892,0,1.785.009,2.677,0a4.457,4.457,0,0,0,2.533-.769,2.224,2.224,0,0,0,1.076-2.089,1,1,0,0,0-.8-.968,2.472,2.472,0,0,0-.986-.038,4.144,4.144,0,0,0-1.8.8,10.973,10.973,0,0,0-2.407,2.492c-.132.181-.255.367-.4.572m-2.751-.083c-.029-.043-.043-.069-.061-.092a13.306,13.306,0,0,0-1.813-2.1A7.061,7.061,0,0,0,7.364,1.808a3,3,0,0,0-1.936-.242.865.865,0,0,0-.749.805,2.619,2.619,0,0,0,.035.771A2.246,2.246,0,0,0,5.767,4.57a4.713,4.713,0,0,0,2.558.742c.9.017,1.794,0,2.69.006.029,0,.057,0,.106-.006" transform="translate(0 0)" fill="#fff"/>
    </g>
  </g>
</svg>
