<svg id="Component_26_1" data-name="Component 26 – 1" xmlns="http://www.w3.org/2000/svg" xmlns:xlink="http://www.w3.org/1999/xlink" width="30" height="30" viewBox="0 0 30 30">
  <defs>
    <clipPath id="clip-path">
      <rect id="Rectangle_2839" data-name="Rectangle 2839" width="17.328" height="17.757" fill="#fff" stroke="#fff" stroke-width="0.2"/>
    </clipPath>
  </defs>
  <g id="Group_3332" data-name="Group 3332" transform="translate(6.251 6.556)">
    <g id="Group_3331" data-name="Group 3331" clip-path="url(#clip-path)">
      <path id="Path_23623" data-name="Path 23623" d="M17.03,17.161H15.006v-.61a4.342,4.342,0,0,0-1.107-3.2,3.278,3.278,0,0,0-2.16-.932H10.248v-.95A4.178,4.178,0,0,0,12.17,9.842a4.927,4.927,0,0,0,.707-1.782.3.3,0,0,0,0-.043V7.954a1.051,1.051,0,0,0,.536-.319,2.035,2.035,0,0,0,.367-1.5.771.771,0,0,0-.294-.545,1.127,1.127,0,0,0-.609-.209V2.838A1.9,1.9,0,0,0,11.7.924a.326.326,0,0,1-.223-.283A.606.606,0,0,1,11.5.406a.3.3,0,0,0-.489-.317c-.425.431-.85.439-1.771.416a12.94,12.94,0,0,0-2.33.107,2.656,2.656,0,0,0-2.223,1.7,3.612,3.612,0,0,0-.246,1.381V5.383a1.129,1.129,0,0,0-.611.209.771.771,0,0,0-.294.545,2.035,2.035,0,0,0,.367,1.5,1.051,1.051,0,0,0,.543.321v.062a.3.3,0,0,0,0,.043,4.927,4.927,0,0,0,.707,1.782A4.179,4.179,0,0,0,7.08,11.464v.95H5.591a3.273,3.273,0,0,0-2.162.932,4.342,4.342,0,0,0-1.107,3.2v.61H.3a.3.3,0,0,0,0,.6H17.03a.3.3,0,1,0,0-.6m-2.619-.61v.61H10.482V13.01h1.206v1.154a1.1,1.1,0,0,0-.606.569,1.693,1.693,0,0,0-.159.52.3.3,0,0,0,0,.033V16.1a.3.3,0,0,0,.6,0v-.791c.013-.086.1-.559.47-.6.368.045.456.517.47.6V16.1a.3.3,0,0,0,.6,0v-.811a.309.309,0,0,0,0-.033,1.692,1.692,0,0,0-.159-.52,1.1,1.1,0,0,0-.606-.569v-1.07a2.65,2.65,0,0,1,1.2.676,3.78,3.78,0,0,1,.931,2.782M8.664,14.293a1.581,1.581,0,0,0,1.222-.578v3.446H7.422V13.69a1.581,1.581,0,0,0,1.242.6m4.527-8.1a1.456,1.456,0,0,1-.217,1.038.47.47,0,0,1-.094.08V5.982a.5.5,0,0,1,.243.081.176.176,0,0,1,.067.135M5.242,2.532A2.069,2.069,0,0,1,7,1.2a12.423,12.423,0,0,1,2.23-.1A3.5,3.5,0,0,0,10.919.889a.922.922,0,0,0,.537.58,1.307,1.307,0,0,1,.829,1.369V4.5a1.623,1.623,0,0,1-1.159-.513,1.808,1.808,0,0,1-.3-1.33.3.3,0,0,0-.526-.241,2.22,2.22,0,0,1-2.287.768,4.656,4.656,0,0,1-1.392-.5.3.3,0,0,0-.438.172A2,2,0,0,1,5.038,4.253V3.685c0-.006,0-.011,0-.017a2.991,2.991,0,0,1,.2-1.137m-.9,4.7A1.456,1.456,0,0,1,4.13,6.2.176.176,0,0,1,4.2,6.062a.51.51,0,0,1,.25-.081V7.32a.465.465,0,0,1-.1-.084m1.324,2.3a4.449,4.449,0,0,1-.628-1.545V4.879A2.438,2.438,0,0,0,6.636,3.365a5.222,5.222,0,0,0,1.254.4,2.931,2.931,0,0,0,2.338-.458,2.056,2.056,0,0,0,.436,1.054,2.209,2.209,0,0,0,1.621.735V7.993a4.449,4.449,0,0,1-.628,1.545,3.639,3.639,0,0,1-2.966,1.674H8.636A3.639,3.639,0,0,1,5.67,9.538m2.937,2.269h.113a5.071,5.071,0,0,0,.932-.146V12.7s0,.005,0,.008a.988.988,0,0,1-1.977,0V11.661a5.071,5.071,0,0,0,.932.146M5.475,14.78a.523.523,0,1,1-.523.523.523.523,0,0,1,.523-.523M2.917,16.551c0-2.687,1.509-3.335,2.26-3.492v1.165a1.118,1.118,0,1,0,.6,0V13.01H6.826v4.151H2.917Z" transform="translate(0 0)" fill="#fff" stroke="#fff" stroke-width="0.2"/>
      <path id="Path_23624" data-name="Path 23624" d="M156.414,130.672a.355.355,0,1,1-.355.355.355.355,0,0,1,.355-.355" transform="translate(-149.864 -125.485)" fill="#fff" stroke="#fff" stroke-width="0.2"/>
      <path id="Path_23625" data-name="Path 23625" d="M262.889,130.674a.355.355,0,1,1-.355.355.355.355,0,0,1,.355-.355" transform="translate(-252.112 -125.487)" fill="#fff" stroke="#fff" stroke-width="0.2"/>
      <path id="Path_23626" data-name="Path 23626" d="M173.848,220.641a.3.3,0,0,0-.464-.374,1.784,1.784,0,0,1-1.309.395,2.323,2.323,0,0,1-1.488-.429.3.3,0,0,0-.4.442,2.884,2.884,0,0,0,1.888.583,2.226,2.226,0,0,0,1.772-.616" transform="translate(-163.338 -211.416)" fill="#fff" stroke="#fff" stroke-width="0.2"/>
      <path id="Path_23627" data-name="Path 23627" d="M199.029,167.864h.154a.715.715,0,0,0,.715-.715.3.3,0,0,0-.6,0,.119.119,0,0,1-.119.119h-.154a.119.119,0,0,1-.119-.119.3.3,0,1,0-.6,0,.715.715,0,0,0,.715.715" transform="translate(-190.441 -160.228)" fill="#fff" stroke="#fff" stroke-width="0.2"/>
      <path id="Path_23628" data-name="Path 23628" d="M133.433,380.814a.185.185,0,1,1-.185.185.185.185,0,0,1,.185-.185" transform="translate(-127.958 -365.697)" fill="#fff" stroke="#fff" stroke-width="0.2"/>
    </g>
  </g>
  <g id="Ellipse_351" data-name="Ellipse 351" fill="none" stroke="#fff" stroke-width="1">
    <circle cx="15" cy="15" r="15" stroke="none"/>
    <circle cx="15" cy="15" r="14.5" fill="none"/>
  </g>
</svg>
