<svg id="Component_32_1" data-name="Component 32 – 1" xmlns="http://www.w3.org/2000/svg" width="30" height="30" viewBox="0 0 30 30">
  <path id="Path_23586" data-name="Path 23586" d="M15,30A15,15,0,1,1,30,15,15.017,15.017,0,0,1,15,30M15,.522A14.477,14.477,0,1,0,29.478,15,14.494,14.494,0,0,0,15,.522" transform="translate(-0.001)" fill="#fff"/>
  <path id="Path_23587" data-name="Path 23587" d="M10.84,18.849l1.22.809a4.7,4.7,0,0,1,.747-.254,3.484,3.484,0,0,1,.857-.1,2.035,2.035,0,0,1,1.227.345,1.125,1.125,0,0,1,.472.965v.027a1.2,1.2,0,0,1-.431.992,1.824,1.824,0,0,1-1.172.345,2.635,2.635,0,0,1-1.193-.274,5.008,5.008,0,0,1-1.1-.768L10.2,22.45A5.4,5.4,0,0,0,11.759,23.5a5,5,0,0,0,2.028.381,4.633,4.633,0,0,0,1.5-.232,3.289,3.289,0,0,0,1.157-.663,2.985,2.985,0,0,0,.738-1.039,3.449,3.449,0,0,0,.262-1.375v-.027a3.364,3.364,0,0,0-.262-1.389,2.526,2.526,0,0,0-.725-.95,3.074,3.074,0,0,0-1.074-.547,4.7,4.7,0,0,0-1.311-.179,4.27,4.27,0,0,0-.685.048q-.288.048-.576.116l.109-1.671h4.1V14.12h-5.9Z" transform="translate(-0.411 -0.568)" fill="#fff"/>
  <path id="Path_23588" data-name="Path 23588" d="M23.7,16.76a.3.3,0,0,0,.046.012l.029.008a.62.62,0,0,0,.063.012l.011,0c.024,0,.049.006.075.008l.058,0a.871.871,0,0,0,.358-.073.807.807,0,0,0,.278-.2.91.91,0,0,0,.18-.293c.011-.029.02-.057.028-.085a.979.979,0,0,0,.036-.273v-.011a1.015,1.015,0,0,0-.061-.355.86.86,0,0,0-.179-.289.894.894,0,0,0-.989-.195.59.59,0,0,0-.078.039.716.716,0,0,0-.139.1c-.021.018-.042.039-.061.06a.925.925,0,0,0-.18.294.977.977,0,0,0-.06.264c0,.031,0,.062,0,.094v.01c0,.032,0,.061,0,.09a.976.976,0,0,0,.031.179c.008.03.017.059.028.087a.852.852,0,0,0,.075.155.822.822,0,0,0,.1.133.8.8,0,0,0,.2.156.642.642,0,0,0,.077.039.783.783,0,0,0,.074.029m-.048-.889a.566.566,0,0,1,.083-.311.271.271,0,0,1,.247-.131.284.284,0,0,1,.248.136.531.531,0,0,1,.086.229.632.632,0,0,1,.007.087v.01a.58.58,0,0,1-.083.31.271.271,0,0,1-.248.133.284.284,0,0,1-.247-.136.5.5,0,0,1-.07-.148.6.6,0,0,1-.023-.169Z" transform="translate(-0.929 -0.601)" fill="#fff"/>
  <path id="Path_23589" data-name="Path 23589" d="M26.933,17.149a.86.86,0,0,0-.275-.2c-.024-.011-.048-.019-.073-.028l-.035-.011-.039-.01-.048-.01-.025,0c-.02,0-.039-.006-.06-.007s-.05,0-.076,0a.853.853,0,0,0-.509.157.858.858,0,0,0-.23.25.96.96,0,0,0-.078.157c-.011.028-.02.057-.028.084a.989.989,0,0,0-.036.273v.011a1.146,1.146,0,0,0,.015.184.947.947,0,0,0,.047.172.85.85,0,0,0,.453.484.843.843,0,0,0,.082.032.82.82,0,0,0,.178.036c.032,0,.063,0,.1,0s.064,0,.1,0a.793.793,0,0,0,.262-.067.912.912,0,0,0,.086-.044,1.032,1.032,0,0,0,.092-.062l.018-.015a1,1,0,0,0,.082-.076.9.9,0,0,0,.1-.137.961.961,0,0,0,.078-.157.79.79,0,0,0,.028-.084,1.018,1.018,0,0,0,.036-.274v-.01a1.013,1.013,0,0,0-.061-.356.825.825,0,0,0-.178-.287m-.3.663a.57.57,0,0,1-.083.309.271.271,0,0,1-.247.134.29.29,0,0,1-.139-.034.327.327,0,0,1-.108-.1.515.515,0,0,1-.069-.147.6.6,0,0,1-.023-.17v-.01a.569.569,0,0,1,.083-.312.271.271,0,0,1,.247-.131.371.371,0,0,1,.074.008.272.272,0,0,1,.123.069.3.3,0,0,1,.05.059c.012.018.022.036.033.056s.013.031.02.047a.416.416,0,0,1,.025.081.624.624,0,0,1,.012.086c0,.016,0,.032,0,.047Z" transform="translate(-1.022 -0.678)" fill="#fff"/>
  <path id="Path_23590" data-name="Path 23590" d="M25.416,19.023a1.4,1.4,0,0,1-.445-.317,1.364,1.364,0,0,1-.253-.383l-.436.6v.019a4.822,4.822,0,0,1-.144,1.213,3.064,3.064,0,0,1-.418.96,2.053,2.053,0,0,1-.657.631,1.752,1.752,0,0,1-1.733-.008,2.081,2.081,0,0,1-.665-.637,3.158,3.158,0,0,1-.425-.966,4.683,4.683,0,0,1-.151-1.22v-.028a4.61,4.61,0,0,1,.151-1.213,3.3,3.3,0,0,1,.418-.959,1.986,1.986,0,0,1,.651-.631,1.661,1.661,0,0,1,.864-.227,1.765,1.765,0,0,1,.2.012v-.026a1.526,1.526,0,0,1,.1-.549,1.462,1.462,0,0,1,.285-.462,1.357,1.357,0,0,1,.455-.325,1.412,1.412,0,0,1,.574-.118,1.432,1.432,0,0,1,.348.043c-.066-.036-.134-.071-.2-.1a3.817,3.817,0,0,0-.817-.279,6.828,6.828,0,0,1-.992.068,2.649,2.649,0,0,1-.705-.1,3.722,3.722,0,0,0-.968.314A4.05,4.05,0,0,0,19.1,15.391a4.879,4.879,0,0,0-.871,1.575,6.006,6.006,0,0,0-.308,1.947v.027a6.1,6.1,0,0,0,.3,1.947,4.782,4.782,0,0,0,.856,1.569A3.95,3.95,0,0,0,20.423,23.5a3.994,3.994,0,0,0,1.748.377,3.93,3.93,0,0,0,1.747-.385,4.047,4.047,0,0,0,1.351-1.055,4.879,4.879,0,0,0,.871-1.577,5.924,5.924,0,0,0,.305-1.789,1.409,1.409,0,0,1-.453.072,1.38,1.38,0,0,1-.575-.119" transform="translate(-0.72 -0.563)" fill="#fff"/>
  <path id="Path_23591" data-name="Path 23591" d="M26.735,15h-.613l-1.15,1.576-.685.938-.8,1.091H24.1Z" transform="translate(-0.945 -0.603)" fill="#fff"/>
  <path id="Path_23592" data-name="Path 23592" d="M22.8,13.794a3.293,3.293,0,0,0,1.865-.824,3.5,3.5,0,0,0,.918-2.544,3.123,3.123,0,0,0,.656-.687,1.833,1.833,0,0,0,.381-1.03.633.633,0,0,0-.4-.521,5.12,5.12,0,0,0-1.847-.172,7.008,7.008,0,0,0-2.567-.338,5.234,5.234,0,0,0-2.737.858h-1.4a5.231,5.231,0,0,0-2.737-.858,6.758,6.758,0,0,0-2.567.338,4.855,4.855,0,0,0-1.846.172.653.653,0,0,0-.4.521,1.826,1.826,0,0,0,.381,1.03,3.1,3.1,0,0,0,.655.687,3.5,3.5,0,0,0,.919,2.544,3.966,3.966,0,0,0,2.856.892,2.635,2.635,0,0,0,1.782-.687,4.523,4.523,0,0,0,1.019-1.445c.229-.487.411-1.009.58-1.476h.108c.2.519.38,1.054.58,1.476a4.526,4.526,0,0,0,1.02,1.445,2.683,2.683,0,0,0,1.076.592,4.386,4.386,0,0,1,.78-.07,4.193,4.193,0,0,1,.917.1M17.12,11.435a3.936,3.936,0,0,1-.859,1.23,1.884,1.884,0,0,1-1.321.51,3.314,3.314,0,0,1-2.383-.7,2.911,2.911,0,0,1-.708-2.217c0-1.028.322-1.408.864-1.642a6.225,6.225,0,0,1,2.228-.247,5.289,5.289,0,0,1,2.952,1.127c-.284.646-.5,1.376-.773,1.944m3.371,1.23a3.9,3.9,0,0,1-.859-1.23c-.326-.652-.486-1.328-.773-1.944A5.286,5.286,0,0,1,21.81,8.364a6.231,6.231,0,0,1,2.229.247c.541.234.864.614.864,1.642a2.911,2.911,0,0,1-.708,2.217,3.318,3.318,0,0,1-2.384.7,1.881,1.881,0,0,1-1.32-.51" transform="translate(-0.408 -0.308)" fill="#fff"/>
  <path id="Path_23593" data-name="Path 23593" d="M23.261,14.046a4.252,4.252,0,0,0-.917-.1,4.3,4.3,0,0,0-.78.071,2.7,2.7,0,0,0,.706.094,6.81,6.81,0,0,0,.991-.067" transform="translate(-0.867 -0.56)" fill="#fff"/>
  <path id="Path_23594" data-name="Path 23594" d="M8.214,22.552h0a.172.172,0,0,0-.145.07.382.382,0,0,0-.053.227v.463h.4v-.476a.38.38,0,0,0-.049-.208.163.163,0,0,0-.15-.076" transform="translate(-0.323 -0.906)" fill="#fff"/>
  <path id="Path_23595" data-name="Path 23595" d="M7.455,22.657h0a.16.16,0,0,0-.139.068.33.33,0,0,0-.049.195v.4h.386v-.37a.413.413,0,0,0-.046-.211.155.155,0,0,0-.147-.079" transform="translate(-0.293 -0.91)" fill="#fff"/>
  <path id="Path_23596" data-name="Path 23596" d="M9.006,8.048H6.552a.433.433,0,0,0-.432.432V23.186a.432.432,0,0,0,.432.431H9.006a.43.43,0,0,0,.43-.431V8.48a.431.431,0,0,0-.43-.432m-2.141.5h.369V9.1H8.688v.4H7.233v.554H6.865Zm0,1.6h.356v.977h.371v-.86h.356v.86h.384v-.991h.356v1.386H6.865ZM6.85,12.3a1.056,1.056,0,0,1,.048-.186.865.865,0,0,1,.079-.161,1.1,1.1,0,0,1,.107-.147l.305.253a1.117,1.117,0,0,0-.08.1,1.046,1.046,0,0,0-.058.108.851.851,0,0,0-.036.121.742.742,0,0,0-.012.143.459.459,0,0,0,.046.2.539.539,0,0,0,.122.167.551.551,0,0,0,.18.112.622.622,0,0,0,.221.04h0a.661.661,0,0,0,.231-.04.54.54,0,0,0,.183-.115.5.5,0,0,0,.122-.175.535.535,0,0,0,.043-.222.629.629,0,0,0-.11-.378H7.985v.4H7.638v-.792h.792a1.353,1.353,0,0,1,.205.335,1.129,1.129,0,0,1,.084.444,1.015,1.015,0,0,1-.07.389.89.89,0,0,1-.2.3.853.853,0,0,1-.3.2.977.977,0,0,1-.374.071H7.776a.931.931,0,0,1-.366-.072.939.939,0,0,1-.5-.5.96.96,0,0,1-.075-.383A1.312,1.312,0,0,1,6.85,12.3m.014,6.122v-.457l1.1.7h.727v.4H7.97l-1.1.7V19.3l.731-.435ZM7.258,17l.078.318-.328.083-.156-.522v-.275H8.688V17ZM8.688,23.12H6.865v-.845a.638.638,0,0,1,.162-.476.423.423,0,0,1,.309-.125h0a.458.458,0,0,1,.138.019.447.447,0,0,1,.108.052.38.38,0,0,1,.085.075.458.458,0,0,1,.062.092.63.63,0,0,1,.162-.249.419.419,0,0,1,.286-.091h0a.48.48,0,0,1,.219.048.408.408,0,0,1,.156.138.657.657,0,0,1,.093.215,1.108,1.108,0,0,1,.032.28Zm-.175-1.907a.8.8,0,0,1-.606.211H6.865v-.4H7.9a.483.483,0,0,0,.337-.1.368.368,0,0,0,.113-.289.382.382,0,0,0-.109-.29.459.459,0,0,0-.327-.1H6.865v-.4H7.894a1.046,1.046,0,0,1,.361.055.682.682,0,0,1,.256.16.663.663,0,0,1,.155.253,1.052,1.052,0,0,1,.05.331.8.8,0,0,1-.2.577m0-6.547a1,1,0,0,1,.147.244.752.752,0,0,1,.057.291.823.823,0,0,1-.036.242.583.583,0,0,1-.107.194.505.505,0,0,1-.165.13.5.5,0,0,1-.219.046h0a.5.5,0,0,1-.3-.09.67.67,0,0,1-.2-.264.675.675,0,0,1-.181.1.559.559,0,0,1-.182.03h0a.478.478,0,0,1-.181-.036.468.468,0,0,1-.152-.107.554.554,0,0,1-.107-.173.665.665,0,0,1-.04-.236.591.591,0,0,1,.036-.211.47.47,0,0,1,.1-.161.414.414,0,0,1,.146-.1.429.429,0,0,1,.179-.036h0a.459.459,0,0,1,.167.027.428.428,0,0,1,.131.078.552.552,0,0,1,.1.121.951.951,0,0,1,.078.156l.241-.242c-.045-.03-.1-.059-.148-.089s-.108-.059-.163-.087l.161-.295c.063.035.13.072.195.111s.13.083.19.128l.268-.268.206.294Z" transform="translate(-0.247 -0.323)" fill="#fff"/>
  <path id="Path_23597" data-name="Path 23597" d="M8.357,15.177,8,15.526a.32.32,0,0,0,.109.13.244.244,0,0,0,.131.039h0a.187.187,0,0,0,.155-.071.279.279,0,0,0,.059-.184.349.349,0,0,0-.027-.133.568.568,0,0,0-.077-.13" transform="translate(-0.322 -0.61)" fill="#fff"/>
  <path id="Path_23598" data-name="Path 23598" d="M7.363,15.155h0a.162.162,0,0,0-.124.048.173.173,0,0,0-.046.124.169.169,0,0,0,.051.129.186.186,0,0,0,.134.048h.006a.251.251,0,0,0,.11-.024A.548.548,0,0,0,7.6,15.4a.547.547,0,0,0-.1-.181.185.185,0,0,0-.142-.06" transform="translate(-0.29 -0.609)" fill="#fff"/>
</svg>
