<svg id="Component_31_1" data-name="Component 31 – 1" xmlns="http://www.w3.org/2000/svg" xmlns:xlink="http://www.w3.org/1999/xlink" width="30" height="30" viewBox="0 0 30 30">
  <defs>
    <clipPath id="clip-path">
      <rect id="Rectangle_2831" data-name="Rectangle 2831" width="30" height="30" fill="#fff"/>
    </clipPath>
  </defs>
  <g id="Group_3316" data-name="Group 3316" clip-path="url(#clip-path)">
    <path id="Path_23578" data-name="Path 23578" d="M15,30A15,15,0,1,1,30,15,15.017,15.017,0,0,1,15,30M15,.522A14.477,14.477,0,1,0,29.477,15,14.494,14.494,0,0,0,15,.522" transform="translate(0 0)" fill="#fff"/>
    <path id="Path_23579" data-name="Path 23579" d="M14.485,18.451V18.8a2.423,2.423,0,0,1-.257,1.079h2.124a2.423,2.423,0,0,1-.257-1.079v-.346Z" transform="translate(-0.571 -0.741)" fill="#fff"/>
    <path id="Path_23580" data-name="Path 23580" d="M9.186,18.83l-3.43,1.061H9.444a2.424,2.424,0,0,1-.257-1.061" transform="translate(-0.231 -0.757)" fill="#fff"/>
    <path id="Path_23581" data-name="Path 23581" d="M21.07,19.891h3.687l-3.43-1.061a2.43,2.43,0,0,1-.257,1.061" transform="translate(-0.846 -0.757)" fill="#fff"/>
    <path id="Path_23582" data-name="Path 23582" d="M9.5,18.645v.043a2.261,2.261,0,0,0,.276,1.079h2.636a1.629,1.629,0,0,0,.424-1.184v-.5a.132.132,0,1,1,.264,0v.5a2.034,2.034,0,0,1-.333,1.184h1.019a2.261,2.261,0,0,0,.276-1.079V17.645c0-.54.251-.909,1-.909.659,0,.963.328,1,.8v1.147a2.271,2.271,0,0,0,.275,1.079H19.22a1.629,1.629,0,0,0,.424-1.184v-.5a.132.132,0,1,1,.264,0v.5a2.127,2.127,0,0,1-.255,1.063c-.025.042-.051.083-.078.122h.782a2.261,2.261,0,0,0,.276-1.079V17.645h.8V15.759l-.013-.013h-1.79a2.254,2.254,0,0,1-.434.2,3.286,3.286,0,0,1-1.142.16,3.756,3.756,0,0,1-1.006-.16,3.332,3.332,0,0,1-.5-.2H13.586a3.331,3.331,0,0,1-.5.2,3.756,3.756,0,0,1-1.006.16l-.1,0a3.23,3.23,0,0,1-1.052-.162,2.245,2.245,0,0,1-.43-.2H8.71l-.012.013v1.886h.8Z" transform="translate(-0.349 -0.633)" fill="#fff"/>
    <path id="Path_23583" data-name="Path 23583" d="M20.363,20.149H5.573v3.395H24.312V20.149Z" transform="translate(-0.224 -0.81)" fill="#fff"/>
    <path id="Path_23584" data-name="Path 23584" d="M9.191,13.1h.227l.345,1.295a1.663,1.663,0,0,0,.722.982,2.135,2.135,0,0,0,.384.2,2.978,2.978,0,0,0,.958.2c.112,0,.226,0,.338,0a3.61,3.61,0,0,0,1.023-.2,2.773,2.773,0,0,0,.44-.2,1.578,1.578,0,0,0,.838-1l.278-1.28h0a.347.347,0,0,1,.654,0l.279,1.28a1.578,1.578,0,0,0,.838,1,2.745,2.745,0,0,0,.441.2,3.584,3.584,0,0,0,1.025.2c.111,0,.221,0,.331,0a2.97,2.97,0,0,0,.962-.2,2.159,2.159,0,0,0,.383-.2,1.663,1.663,0,0,0,.722-.982l.345-1.295h.228c.526,0,.526-1.136,0-1.136h-.311a2.667,2.667,0,0,0-1.727-.587,2.787,2.787,0,0,1-.473.145,4.488,4.488,0,0,1-.923.092h-.031a1.973,1.973,0,0,1-.534-.073,17.371,17.371,0,0,1-1.882.277,17.406,17.406,0,0,1-1.882-.277,1.971,1.971,0,0,1-.533.073h-.033a4.478,4.478,0,0,1-.922-.092,2.814,2.814,0,0,1-.473-.145,2.667,2.667,0,0,0-1.727.587h-.31c-.527,0-.527,1.136,0,1.136m5.373-.317-.35,1.614c-.1.455-.655.808-1.33.979a3.422,3.422,0,0,1-1.753,0,1.432,1.432,0,0,1-1.066-.981L9.7,13.033l2.522-.021a.188.188,0,0,1,.154.123l.323,1.586c.141.3.635.131.53-.108l-.424-1.443a.738.738,0,0,0-.709-.647l-2.224-.387c1.086-.639,4.88-.226,4.691.643m5.513,1.612a1.434,1.434,0,0,1-1.066.981,3.426,3.426,0,0,1-1.754,0c-.676-.171-1.231-.524-1.329-.979l-.35-1.614c-.189-.869,3.605-1.282,4.691-.643l-2.224.387a.738.738,0,0,0-.709.647l-.424,1.443c-.106.239.389.405.529.108l.323-1.586a.188.188,0,0,1,.154-.123l2.522.021Z" transform="translate(-0.353 -0.457)" fill="#fff"/>
    <path id="Path_23585" data-name="Path 23585" d="M10.022,8.9a2.46,2.46,0,0,0,.647,1.788,1.889,1.889,0,0,0,.523.354,2.422,2.422,0,0,0,.387.142,4.131,4.131,0,0,0,1.1.131c.061,0,.122,0,.183-.009a1.782,1.782,0,0,0,.425-.093,1.909,1.909,0,0,0,.644-.382,3.165,3.165,0,0,0,.717-1.015c.161-.343.29-.709.407-1.038h.076c.139.365.267.74.407,1.038a3.168,3.168,0,0,0,.718,1.015,1.9,1.9,0,0,0,.642.382,1.8,1.8,0,0,0,.428.093c.059,0,.12.009.183.009a4.139,4.139,0,0,0,1.1-.131,2.457,2.457,0,0,0,.387-.142,1.918,1.918,0,0,0,.523-.354A2.46,2.46,0,0,0,20.16,8.9a2.182,2.182,0,0,0,.46-.484,1.286,1.286,0,0,0,.27-.725.45.45,0,0,0-.28-.367,3.586,3.586,0,0,0-1.3-.12,4.9,4.9,0,0,0-1.8-.238,3.673,3.673,0,0,0-1.925.6H14.6a3.678,3.678,0,0,0-1.924-.6,4.736,4.736,0,0,0-1.8.238,3.421,3.421,0,0,0-1.3.12.46.46,0,0,0-.279.367,1.291,1.291,0,0,0,.268.725,2.25,2.25,0,0,0,.46.484m5.41-.657a3.71,3.71,0,0,1,2.076-.793,4.364,4.364,0,0,1,1.566.175c.38.165.607.431.607,1.155a2.048,2.048,0,0,1-.5,1.559,2.338,2.338,0,0,1-1.675.493,1.321,1.321,0,0,1-.929-.358,2.749,2.749,0,0,1-.6-.864c-.229-.459-.342-.934-.543-1.367m-2.755-.793a3.721,3.721,0,0,1,2.076.793c-.2.455-.356.968-.544,1.367a2.765,2.765,0,0,1-.6.864,1.322,1.322,0,0,1-.928.358A2.341,2.341,0,0,1,11,10.336a2.048,2.048,0,0,1-.5-1.559c0-.724.227-.99.609-1.155a4.355,4.355,0,0,1,1.566-.175" transform="translate(-0.373 -0.28)" fill="#fff"/>
  </g>
</svg>
