<svg xmlns="http://www.w3.org/2000/svg" width="35.716" height="15.652" viewBox="0 0 35.716 15.652">
  <path id="Icon_ionic-ios-arrow-round-forward" data-name="Icon ionic-ios-arrow-round-forward" d="M22.09,11.551a1.065,1.065,0,0,0-.008,1.5l4.956,4.964H-4.073a1.056,1.056,0,0,0-1.052,1.06,1.056,1.056,0,0,0,1.052,1.06h31.1L22.073,25.1a1.073,1.073,0,0,0,.008,1.5,1.055,1.055,0,0,0,1.492-.008l6.717-6.766h0a1.19,1.19,0,0,0,.22-.334,1.011,1.011,0,0,0,.082-.408,1.062,1.062,0,0,0-.3-.742l-6.717-6.766A1.038,1.038,0,0,0,22.09,11.551Z" transform="translate(5.125 -11.251)" fill="#9d9f9d"/>
</svg>
