<svg xmlns="http://www.w3.org/2000/svg" width="38" height="143" viewBox="0 0 38 143"><defs><style>.a{fill:#144d92;}.b{isolation:isolate;}.c{fill:#fff;}.d{fill:none;stroke:#fff;stroke-linecap:round;}</style></defs><path class="a" d="M9,0H38V143H9a9,9,0,0,1-9-9V9A9,9,0,0,1,9,0Z"/><g class="b" transform="translate(13 43.547)"><path class="c" d="M10.9,94.4h1.775v5.325h3.55v-4.5H18v4.5h4.852v2.248H10.9Z" transform="translate(-10.427 -26.24)"/><path class="c" d="M13.7,90.352a4.414,4.414,0,0,1,.237-1.42,3.941,3.941,0,0,1,.71-1.183,2.012,2.012,0,0,1,1.183-.71,3.763,3.763,0,0,1,1.657-.237h.355c.118,0,.237,0,.237.118a.118.118,0,0,0,.118.118v5.443a2.793,2.793,0,0,0,1.893-.71,2.367,2.367,0,0,0,.592-1.657,1.751,1.751,0,0,0-.118-.828c-.118-.237-.118-.473-.237-.592a.9.9,0,0,1-.237-.473c0-.118-.118-.237-.118-.355V87.63a.118.118,0,0,1,.118-.118l.71-.592.71.71a2.97,2.97,0,0,1,.473.828,2.225,2.225,0,0,1,.237.947c0,.355.118.592.118.947a6.981,6.981,0,0,1-.237,1.657,4.887,4.887,0,0,1-.828,1.3,2.84,2.84,0,0,1-1.42.828,5.1,5.1,0,0,1-2.012.355,6.981,6.981,0,0,1-1.657-.237,4.887,4.887,0,0,1-1.3-.828,5.254,5.254,0,0,1-.947-1.3,9.135,9.135,0,0,1-.237-1.775Zm1.42,0a1.881,1.881,0,0,0,.473,1.42,1.964,1.964,0,0,0,1.42.592V88.577a1.5,1.5,0,0,0-.71.118,2.047,2.047,0,0,0-1.065.947,4.189,4.189,0,0,0-.118.71Z" transform="translate(-9.913 -27.635)"/><path class="c" d="M13.7,82.152a4.414,4.414,0,0,1,.237-1.42,6.271,6.271,0,0,1,.71-1.183,2.012,2.012,0,0,1,1.183-.71,3.763,3.763,0,0,1,1.657-.237h.355c.118,0,.237,0,.237.118l.118.118v5.443a2.793,2.793,0,0,0,1.893-.71,2.568,2.568,0,0,0,.592-1.657,1.751,1.751,0,0,0-.118-.828c-.118-.237-.118-.473-.237-.592a.9.9,0,0,1-.237-.473.438.438,0,0,1-.118-.355V79.43a.118.118,0,0,1,.118-.118l.71-.592.71.71a2.97,2.97,0,0,1,.473.828,2.781,2.781,0,0,1,.237.947c0,.355.118.592.118.947a6.982,6.982,0,0,1-.237,1.657,3.065,3.065,0,0,1-.828,1.3,2.84,2.84,0,0,1-1.42.828,5.1,5.1,0,0,1-2.012.355,6.981,6.981,0,0,1-1.657-.237,4.887,4.887,0,0,1-1.3-.828,5.254,5.254,0,0,1-.947-1.3,4.047,4.047,0,0,1-.237-1.775Zm1.42,0a1.881,1.881,0,0,0,.473,1.42,1.964,1.964,0,0,0,1.42.592V80.377a1.5,1.5,0,0,0-.71.118,2.047,2.047,0,0,0-1.065.947,4.189,4.189,0,0,0-.118.71Z" transform="translate(-9.916 -29.139)"/><path class="c" d="M22.925,71.52c0,.237-.118.473-.355.473l-.828.118.592.592c.118.237.355.355.355.592s.237.473.237.71.118.592.118.828a4.248,4.248,0,0,1-.237,1.3,3.2,3.2,0,0,1-.828.947,3.952,3.952,0,0,1-1.42.592,9.2,9.2,0,0,1-1.893.237,9.134,9.134,0,0,1-1.775-.237,3.988,3.988,0,0,1-1.42-.71,4.639,4.639,0,0,1-.947-1.183,3.278,3.278,0,0,1-.355-1.538,3.55,3.55,0,0,1,.237-1.183A4.153,4.153,0,0,1,15,72.112H10.5V70.1H22.807v1.42Zm-1.538,2.84a2.367,2.367,0,0,0-.237-1.065c-.118-.355-.473-.592-.71-.828H16.653a3.136,3.136,0,0,0-.592.71,2.012,2.012,0,0,0-.118.828,1.751,1.751,0,0,0,.118.828,1.183,1.183,0,0,0,.473.592,2.26,2.26,0,0,0,.947.355,4.438,4.438,0,0,0,1.3.118,4.437,4.437,0,0,0,1.3-.118,5.775,5.775,0,0,0,.828-.355,1.183,1.183,0,0,0,.473-.592Z" transform="translate(-10.5 -30.695)"/><path class="c" d="M22.907,68.91H10.6V66.9h4.852a4.248,4.248,0,0,1-.828-1.183,3.278,3.278,0,0,1-.355-1.538,4.248,4.248,0,0,1,.237-1.3,3.2,3.2,0,0,1,.828-.947,4.378,4.378,0,0,1,1.3-.592,9.194,9.194,0,0,1,1.893-.237,9.135,9.135,0,0,1,1.775.237,3.988,3.988,0,0,1,1.42.71,4.639,4.639,0,0,1,.947,1.183,3.278,3.278,0,0,1,.355,1.538,1.5,1.5,0,0,1-.118.71c0,.237-.118.355-.237.592a1.634,1.634,0,0,1-.355.473l-.473.473.592.118c.118,0,.237.118.355.118a.438.438,0,0,1,.118.355v1.3Zm-7.1-4.023a2.367,2.367,0,0,0,.237,1.065,5.148,5.148,0,0,0,.71.828H20.54a3.136,3.136,0,0,0,.592-.71,2.367,2.367,0,0,0,.118-.947,1.751,1.751,0,0,0-.118-.828,1.183,1.183,0,0,0-.473-.592,2.26,2.26,0,0,0-.947-.355,4.438,4.438,0,0,0-1.3-.118,4.438,4.438,0,0,0-1.3.118,5.775,5.775,0,0,0-.828.355,1.183,1.183,0,0,0-.473.592c-.118.237,0,.355,0,.592Z" transform="translate(-10.482 -32.345)"/><path class="c" d="M22.34,53.4v.947c0,.237,0,.355-.118.473s-.118.237-.355.237l-.592.237c.237.237.355.473.473.592a2.591,2.591,0,0,0,.355.592c.118.237.118.473.237.71a1.751,1.751,0,0,1,.118.828,2.367,2.367,0,0,1-.118.947,2.97,2.97,0,0,1-.473.828,2.473,2.473,0,0,1-.71.473,2.367,2.367,0,0,1-1.065.237,2.781,2.781,0,0,1-.947-.237,1.87,1.87,0,0,1-.828-.828,4.639,4.639,0,0,1-.592-1.538,13.6,13.6,0,0,1-.237-2.485h-.473a2.13,2.13,0,0,0-1.3.355,1.444,1.444,0,0,0-.355,1.065,1.751,1.751,0,0,0,.118.828c.118.237.118.355.237.592a.9.9,0,0,1,.237.473c0,.118.118.237.118.473a.438.438,0,0,1-.118.355c-.118.118-.118.237-.237.237l-.71.355a4.733,4.733,0,0,1-1.3-3.55,4.248,4.248,0,0,1,.237-1.3,1.846,1.846,0,0,1,.71-.947,3.1,3.1,0,0,1,1.065-.592,5.029,5.029,0,0,1,1.3-.237H22.34Zm-1.3,4.023v-.592c0-.118-.118-.355-.118-.473a.9.9,0,0,0-.237-.473,1.633,1.633,0,0,1-.355-.473h-1.42a6.248,6.248,0,0,0,.118,1.538,5.372,5.372,0,0,0,.237.947c.118.237.237.473.355.473a.71.71,0,0,0,.473.118,1.077,1.077,0,0,0,.828-.355c.237-.237.118-.355.118-.71Z" transform="translate(-9.915 -33.757)"/><path class="c" d="M15.557,46.092l.237.237a.414.414,0,0,1,.118.237.438.438,0,0,1-.118.355c-.118.118-.118.237-.237.355s-.118.355-.237.473a1.5,1.5,0,0,0-.118.71,2.225,2.225,0,0,0,.237.947,3.136,3.136,0,0,0,.592.71,1.278,1.278,0,0,0,.828.355,3.645,3.645,0,0,0,1.183.118,3.645,3.645,0,0,0,1.183-.118A3.55,3.55,0,0,0,20.172,50c.237-.237.473-.355.592-.71A2.189,2.189,0,0,0,21,48.458a1.751,1.751,0,0,0-.118-.828c-.118-.237-.118-.355-.237-.473s-.237-.237-.237-.355a.438.438,0,0,1-.118-.355c0-.118.118-.237.237-.355l.71-.592.71.71a2.97,2.97,0,0,1,.473.828,2.189,2.189,0,0,1,.237.828c0,.355.118.592.118.947a6.923,6.923,0,0,1-.237,1.538,2.71,2.71,0,0,1-.828,1.183,4.094,4.094,0,0,1-1.42.828,4.911,4.911,0,0,1-1.893.355,9.135,9.135,0,0,1-1.775-.237,3.455,3.455,0,0,1-1.42-.828,3.361,3.361,0,0,1-.947-1.3,3.952,3.952,0,0,1-.355-1.775,3.775,3.775,0,0,1,.355-1.657,4.887,4.887,0,0,1,.828-1.3Z" transform="translate(-9.877 -35.205)"/><path class="c" d="M10.6,42.835h7.1v-.71c0-.118-.118-.118-.237-.237l-2.6-2.13c-.118-.118-.237-.237-.237-.355s-.118-.237-.118-.473V37.037l3.2,2.6c.118.118.237.237.355.237s.237.237.237.355c.118-.118.237-.237.237-.355s.237-.118.355-.237l4.142-2.84v1.893a.438.438,0,0,1-.118.355c0,.118-.118.237-.237.355l-3.195,2.13c-.118.118-.237.118-.237.237V42.6h3.9V44.61H10.837V42.835Z" transform="translate(-10.482 -36.8)"/></g><g transform="translate(13 20)"><line class="d" x2="11.334"/></g></svg>