<svg xmlns="http://www.w3.org/2000/svg" width="19.574" height="19.612" viewBox="0 0 19.574 19.612">
  <path id="Icon_feather-phone" data-name="Icon feather-phone" d="M22.741,17.684v2.952A1.968,1.968,0,0,1,20.6,22.6,19.476,19.476,0,0,1,12.1,19.583a19.191,19.191,0,0,1-5.9-5.9A19.476,19.476,0,0,1,3.176,5.145,1.968,1.968,0,0,1,5.134,3H8.087a1.968,1.968,0,0,1,1.968,1.693,12.637,12.637,0,0,0,.689,2.765A1.968,1.968,0,0,1,10.3,9.535l-1.25,1.25a15.747,15.747,0,0,0,5.9,5.9l1.25-1.25A1.968,1.968,0,0,1,18.283,15a12.636,12.636,0,0,0,2.765.689,1.968,1.968,0,0,1,1.693,2Z" transform="translate(-3.168 -3)" fill="#fbf9f7"/>
</svg>
