<svg xmlns="http://www.w3.org/2000/svg" xmlns:xlink="http://www.w3.org/1999/xlink" width="109.92" height="25.582" viewBox="0 0 109.92 25.582">
  <defs>
    <clipPath id="clip-path">
      <rect id="Rectangle_2830" data-name="Rectangle 2830" width="109.92" height="25.582" fill="none"/>
    </clipPath>
  </defs>
  <g id="Group_3323" data-name="Group 3323" transform="translate(0 0)">
    <g id="Group_3314" data-name="Group 3314" transform="translate(0 0)" clip-path="url(#clip-path)">
      <path id="Path_23562" data-name="Path 23562" d="M26.8,27.176a.527.527,0,0,1-.28.026q-1.764,0-3.529,0c-.212,0-.425,0-.637,0a.208.208,0,0,1-.22-.148c-.2-.49-.411-.978-.616-1.467q-.57-1.356-1.141-2.714c-.032-.078-.049-.17-.142-.212-.093.016-.12.1-.163.162a11.98,11.98,0,0,1-.9,1.179,10.98,10.98,0,0,1-3.285,2.563,10.849,10.849,0,0,1-2.924,1,10.621,10.621,0,0,1-2.693.164A10.965,10.965,0,0,1,.306,19.411,10.892,10.892,0,0,1,0,16.651a10.659,10.659,0,0,1,.765-3.9A10.868,10.868,0,0,1,4.34,8.058a10.891,10.891,0,0,1,7.522-2.173A10.757,10.757,0,0,1,16.2,7.191a10.9,10.9,0,0,1,3.978,3.74,5.342,5.342,0,0,1,.311.585c.777,1.658,1.439,3.363,2.118,5.063q1.559,3.9,3.121,7.8.507,1.267,1.012,2.536a.407.407,0,0,1,.065.259M4.163,16.8a6.776,6.776,0,1,0,6.7-6.782,6.782,6.782,0,0,0-6.7,6.782" transform="translate(0 -2.198)" fill="#01ac85" fill-rule="evenodd"/>
      <path id="Path_23563" data-name="Path 23563" d="M41.132,16.869a10.962,10.962,0,1,1,3.209,7.581,10.763,10.763,0,0,1-3.209-7.581m17.729-.147a6.774,6.774,0,1,0-6.809,6.761,6.775,6.775,0,0,0,6.809-6.761" transform="translate(-15.468 -2.165)" fill="#01ac85" fill-rule="evenodd"/>
      <path id="Path_23564" data-name="Path 23564" d="M40.126,8.207a.486.486,0,0,1-.055.086q-.606.535-1.214,1.069a.4.4,0,0,1-.08.039c-.037-.074-.072-.145-.107-.215a2.933,2.933,0,0,0-2.047-1.62,3.637,3.637,0,0,0-1.315-.046,2.875,2.875,0,0,0-2.25,1.613l-.125.253a.577.577,0,0,1-.116-.066Q32.253,8.8,31.692,8.27c-.025-.024-.044-.053-.075-.09a.814.814,0,0,1,.054-.115A5.183,5.183,0,0,1,34.261,6a4.6,4.6,0,0,1,1.589-.25,4.9,4.9,0,0,1,3.008,1.092,5.957,5.957,0,0,1,1.177,1.215c.031.042.056.089.091.145" transform="translate(-11.89 -2.164)" fill="#01ac85" fill-rule="evenodd"/>
      <path id="Path_23565" data-name="Path 23565" d="M82.062,13.708,86.888,0h3.349l4.847,13.709v.852H91.943l-1.206-3.7h-4.91l-1.164,3.7h-2.6Zm4.451-5.076h3.5L88.261,3.265h-.042Z" transform="translate(-30.86 0)" fill="#1b4588"/>
      <path id="Path_23566" data-name="Path 23566" d="M103.829,15.91V13.663h.957a3.969,3.969,0,0,0,2.684.915c1.227,0,1.871-.333,1.871-1.02,0-.665-.395-.977-1.934-1.164-2.393-.291-3.661-1.186-3.661-3.329,0-2.205,1.643-3.431,4.327-3.431a7.127,7.127,0,0,1,3.432.748V8.588h-.915a4.24,4.24,0,0,0-2.5-.728c-1.185,0-1.644.354-1.644.977,0,.562.541.852,2.039,1.04,2.6.333,3.682,1.185,3.682,3.391,0,2.142-1.394,3.535-4.556,3.535a7.364,7.364,0,0,1-3.785-.894" transform="translate(-39.014 -2.119)" fill="#1b4588"/>
      <path id="Path_23567" data-name="Path 23567" d="M117.471,4.079h1.29V1.167H121.8V4.079H124V6.118h-2.2v5.594c0,1.041.416,1.332,1.414,1.332h.832v1.83a6.04,6.04,0,0,1-1.914.291c-2.1,0-3.37-.832-3.37-3.1V6.118h-1.29Z" transform="translate(-44.176 -0.439)" fill="#1b4588"/>
      <path id="Path_23568" data-name="Path 23568" d="M131.3,11.87c.145,2.184,1.185,2.787,2.87,2.787a4.786,4.786,0,0,0,2.892-.915H138v2a7.966,7.966,0,0,1-4.284,1.061c-3.579,0-5.534-2.122-5.534-5.554,0-3.515,2.289-5.679,5.325-5.679,3.2,0,4.909,1.768,4.909,5.367,0,.374-.041.832-.041.936Zm.042-1.831h4.077c-.062-1.934-.729-2.559-1.914-2.559-1.06,0-1.935.52-2.163,2.559" transform="translate(-48.202 -2.094)" fill="#1b4588"/>
      <path id="Path_23569" data-name="Path 23569" d="M149.644,8.809v7.884h-3.037V5.772h2.059c.52,0,.832.228.937,1.31a4.134,4.134,0,0,1,3.037-1.415,2.336,2.336,0,0,1,.666.1V8.164h-.521a6.844,6.844,0,0,0-3.141.645" transform="translate(-55.132 -2.131)" fill="#1b4588"/>
      <path id="Path_23570" data-name="Path 23570" d="M85.89,36.551c-3.077,0-3.828-1.8-3.828-3.687s.763-3.7,3.816-3.7c3.1,0,3.839,1.807,3.839,3.709,0,1.879-.739,3.675-3.827,3.675m0-5.73c-1.784,0-1.784.023-1.784,2.043,0,1.268.328,2.043,1.773,2.043,1.808,0,1.808-.012,1.808-2.032,0-1.28-.317-2.055-1.8-2.055" transform="translate(-30.86 -10.969)" fill="#01ac85"/>
      <path id="Path_23571" data-name="Path 23571" d="M100.732,34.271H99.663v2.254c-1.667,0-2.019,0-2.019-1.28V30.584c0-1.267.294-1.267,1.62-1.267h1.361c3.018,0,3.4,1.385,3.4,2.465,0,1.021-.258,2.489-3.3,2.489m-.047-3.323H99.663v1.714H100.7c1.292,0,1.292,0,1.292-.88,0-.376-.024-.834-1.3-.834" transform="translate(-36.72 -11.025)" fill="#01ac85"/>
      <path id="Path_23572" data-name="Path 23572" d="M114.661,30.96h-.693v5.565c-1.714,0-1.985-.07-1.985-1.268v-4.3h-2.09c0-1.539.118-1.643,1.3-1.643h4.837c0,1.5-.14,1.643-1.373,1.643" transform="translate(-41.326 -11.025)" fill="#01ac85"/>
      <path id="Path_23573" data-name="Path 23573" d="M122.482,35.269V29.317c1.7,0,2.02.046,2.02,1.209v6c-1.726,0-2.02-.071-2.02-1.257" transform="translate(-46.06 -11.025)" fill="#01ac85"/>
      <path id="Path_23574" data-name="Path 23574" d="M132.817,36.535c-2.994,0-3.71-1.738-3.71-3.628s.728-3.628,3.7-3.628h2.384c0,1.162.163,1.655-1.35,1.655h-1.022c-1.667,0-1.667.024-1.667,1.973,0,1.279.305,1.984,1.655,1.984h.963c1.268,0,1.421.164,1.421,1.643Z" transform="translate(-48.551 -11.011)" fill="#01ac85"/>
      <path id="Path_23575" data-name="Path 23575" d="M147.725,36.5c-.963-.047-1.035-.564-1.317-1.257h-2.994c-.575,1.491-.739,1.268-2.642,1.268l2.607-6.258c.353-.869.517-.975,1.527-.975h1.079l3.077,7.232c-.9,0-1.151,0-1.338-.011m-2.818-5.131L144,33.7h1.819Z" transform="translate(-52.938 -11.01)" fill="#01ac85"/>
      <path id="Path_23576" data-name="Path 23576" d="M157.987,36.52c-1.092,0-1.538.024-1.538-1.257V29.312a3.729,3.729,0,0,1,1.7.188c.212.164.293.457.293,1.08V34.9h1.4c1.527,0,1.374.469,1.374,1.62Z" transform="translate(-58.834 -11.02)" fill="#01ac85"/>
      <path id="Path_23577" data-name="Path 23577" d="M169.023,36.523h-2.806c0-1.444.082-1.679,1.362-1.679h1.408c1.35,0,1.35-.036,1.35-.587,0-.494-.775-.587-1.174-.658-1.338-.27-3.194-.458-3.194-2.02,0-1.456,1.116-2.3,3.276-2.3h2.83c0,1.456-.129,1.667-1.35,1.667H169.2c-1.221,0-1.221,0-1.221.633,0,.153.152.329.458.411,1.468.364,3.9.422,3.9,2.266,0,1.151-.869,2.266-3.311,2.266" transform="translate(-62.414 -11.011)" fill="#01ac85"/>
    </g>
  </g>
</svg>
