<svg xmlns="http://www.w3.org/2000/svg" xmlns:xlink="http://www.w3.org/1999/xlink" width="65" height="19" viewBox="0 0 65 19">
  <defs>
    <clipPath id="clip-HD_Icon">
      <rect width="65" height="19"/>
    </clipPath>
  </defs>
  <g id="HD_Icon" data-name="HD Icon" clip-path="url(#clip-HD_Icon)">
    <g id="Layer_2" data-name="Layer 2" transform="translate(0.006 0)">
      <g id="Layer_1" data-name="Layer 1" transform="translate(-0.006 0)">
        <path id="Path_20863" data-name="Path 20863" d="M18.8,15.145a2.813,2.813,0,0,0-.853-1.875,6.93,6.93,0,0,0-2.71-1.791,3.019,3.019,0,0,0-3.1.881h0l-.994.938a15.36,15.36,0,0,1-3.132-2.419l-.094-.094A15.107,15.107,0,0,1,5.495,7.662l.938-.994h0a3.038,3.038,0,0,0,.928-3.1A6.93,6.93,0,0,0,5.57.854,2.813,2.813,0,0,0,1.688.713h0A5.926,5.926,0,0,0,0,5.12c0,3.019,1.669,6.47,4.435,9.237h0c.141.141.291.291.45.431h0s.206.188.572.488l.722.591.131.075A15.4,15.4,0,0,0,10.7,18.258h.1a9.762,9.762,0,0,0,2.813.478h0A5.917,5.917,0,0,0,17.938,17.1h0A2.813,2.813,0,0,0,18.8,15.145Z" transform="translate(0.006 -0.001)" fill="#1fae8b"/>
        <g id="HOME_DELIVERY" data-name="HOME DELIVERY" transform="translate(22.596)" style="isolation: isolate">
          <g id="Group_3418" data-name="Group 3418" transform="translate(0.338)" style="isolation: isolate">
            <path id="Path_23649" data-name="Path 23649" d="M32.243.11V9.234H30.367V5.305H26.325V9.234H24.45V.11h1.875V3.983h4.023V.11Z" transform="translate(-24.45 -0.007)" fill="#19407b"/>
            <path id="Path_23650" data-name="Path 23650" d="M44.924,4.689A5.223,5.223,0,0,1,44.6,6.564a4.257,4.257,0,0,1-.938,1.472,4.37,4.37,0,0,1-1.491.938,5.448,5.448,0,0,1-3.826,0,4.464,4.464,0,0,1-1.425-.985,4.257,4.257,0,0,1-.938-1.472,5.026,5.026,0,0,1-.338-1.875,5.026,5.026,0,0,1,.338-1.875,4.342,4.342,0,0,1,.938-1.472A4.435,4.435,0,0,1,38.388.356a5.317,5.317,0,0,1,3.826,0A4.3,4.3,0,0,1,44.6,2.813,5.167,5.167,0,0,1,44.924,4.689Zm-1.875,0a3.892,3.892,0,0,0-.2-1.285,2.494,2.494,0,0,0-.544-.938,2.251,2.251,0,0,0-.853-.619A2.973,2.973,0,0,0,40.3,1.641a3.038,3.038,0,0,0-1.153.206,2.363,2.363,0,0,0-.863.619,2.757,2.757,0,0,0-.544.938,4.163,4.163,0,0,0-.234,1.285,4.267,4.267,0,0,0,.188,1.294,2.935,2.935,0,0,0,.544.938,2.429,2.429,0,0,0,.863.6,3.048,3.048,0,0,0,1.153.216A2.973,2.973,0,0,0,41.407,7.5a2.307,2.307,0,0,0,.853-.6,2.644,2.644,0,0,0,.544-.938A3.985,3.985,0,0,0,43,4.689Z" transform="translate(-25.147 0)" fill="#19407b"/>
            <path id="Path_23651" data-name="Path 23651" d="M58.422.11V9.234H56.753V2.82l-2.56,4.97a.713.713,0,0,1-.666.413h-.263a.76.76,0,0,1-.384-.1.8.8,0,0,1-.272-.309L49.982,2.82V9.253H48.36V.11h1.819a.516.516,0,0,1,.131.084.871.871,0,0,1,.113.169L52.974,5.23q.122.225.225.45a4.417,4.417,0,0,1,.2.488l.2-.5.225-.459L56.359.4a.872.872,0,0,1,.1-.169A.431.431,0,0,1,56.6.148h1.81Z" transform="translate(-25.939 -0.007)" fill="#19407b"/>
            <path id="Path_23652" data-name="Path 23652" d="M64.364,1.582V3.927h3.048V5.361H64.364V7.753h3.91V9.234H62.46V.11h5.814V1.582Z" transform="translate(-26.817 -0.007)" fill="#19407b"/>
          </g>
          <g id="Group_3419" data-name="Group 3419" transform="translate(0 12.565)" style="isolation: isolate">
            <path id="Path_23653" data-name="Path 23653" d="M29.538,16.448a3.291,3.291,0,0,1-.225,1.266,2.7,2.7,0,0,1-.619.938,2.973,2.973,0,0,1-.938.638,3.47,3.47,0,0,1-1.275.225H24.09v-6.1h2.335a3.47,3.47,0,0,1,1.275.225,2.954,2.954,0,0,1,.938.628,2.813,2.813,0,0,1,.628.938A3.245,3.245,0,0,1,29.538,16.448Zm-1.285,0a2.673,2.673,0,0,0-.131-.853,1.782,1.782,0,0,0-.356-.647,1.575,1.575,0,0,0-.572-.413,1.969,1.969,0,0,0-.769-.141H25.356v4.117h1.069a1.969,1.969,0,0,0,.769-.141,1.575,1.575,0,0,0,.572-.413,1.96,1.96,0,0,0,.356-.647A2.729,2.729,0,0,0,28.254,16.448Z" transform="translate(-24.09 -13.4)" fill="#19407b"/>
            <path id="Path_23654" data-name="Path 23654" d="M32.7,14.395v1.566h2.026V16.9H32.7v1.6H35.3v.938H31.43V13.41H35.3v.985Z" transform="translate(-24.547 -13.4)" fill="#19407b"/>
            <path id="Path_23655" data-name="Path 23655" d="M40.757,18.474V19.5H37.1V13.41h1.257v5.064Z" transform="translate(-24.9 -13.4)" fill="#19407b"/>
            <path id="Path_23656" data-name="Path 23656" d="M43.566,19.5H42.3V13.41h1.266Z" transform="translate(-25.224 -13.4)" fill="#19407b"/>
            <path id="Path_23657" data-name="Path 23657" d="M50.82,13.41,48.372,19.5H47.237L44.79,13.41H45.8a.459.459,0,0,1,.263.075.525.525,0,0,1,.159.2l1.313,3.507c.047.131.1.272.15.431s.094.319.131.488a1.772,1.772,0,0,1,.122-.488c.047-.159.094-.3.141-.431l1.313-3.507a.516.516,0,0,1,.141-.188.431.431,0,0,1,.272-.084Z" transform="translate(-25.379 -13.4)" fill="#19407b"/>
            <path id="Path_23658" data-name="Path 23658" d="M53.626,14.395v1.566h2.026V16.9H53.626v1.6h2.607v.938H52.36V13.41h3.873v.985Z" transform="translate(-25.85 -13.4)" fill="#19407b"/>
            <path id="Path_23659" data-name="Path 23659" d="M62.876,19.5H61.751a.488.488,0,0,1-.459-.244l-1.163-1.875a.413.413,0,0,0-.15-.159.46.46,0,0,0-.253-.056h-.431V19.5H58V13.41h1.875a4.06,4.06,0,0,1,1.088.131,1.96,1.96,0,0,1,.741.366,1.35,1.35,0,0,1,.422.563,1.754,1.754,0,0,1,.141.713,1.66,1.66,0,0,1-.094.572,1.875,1.875,0,0,1-.244.5,2.3,2.3,0,0,1-.4.394,1.969,1.969,0,0,1-.544.272l.225.159a1.491,1.491,0,0,1,.188.225Zm-2.944-3.207a1.725,1.725,0,0,0,.525-.075A.994.994,0,0,0,60.823,16a.778.778,0,0,0,.206-.319,1.144,1.144,0,0,0,.075-.4.844.844,0,0,0-.291-.675,1.341,1.341,0,0,0-.872-.234h-.656v1.922Z" transform="translate(-26.201 -13.4)" fill="#19407b"/>
            <path id="Path_23660" data-name="Path 23660" d="M66.769,17.151V19.5H65.494V17.151L63.29,13.4H64.4a.459.459,0,0,1,.263.075.61.61,0,0,1,.15.2L65.831,15.6l.178.356c.056.113.1.225.15.338a1.008,1.008,0,0,1,.131-.338l.178-.356.938-1.922a.881.881,0,0,1,.15-.188.4.4,0,0,1,.263-.084h1.116Z" transform="translate(-26.531 -13.4)" fill="#19407b"/>
          </g>
        </g>
      </g>
    </g>
  </g>
</svg>
