<svg xmlns="http://www.w3.org/2000/svg" xmlns:xlink="http://www.w3.org/1999/xlink" width="52" height="52" viewBox="0 0 52 52">
  <defs>
    <clipPath id="clip-path">
      <rect id="Rectangle_2437" data-name="Rectangle 2437" width="51" height="51" fill="#fff" stroke="#fff" stroke-width="1"/>
    </clipPath>
    <clipPath id="clip-Equipment_Homecare_Icon">
      <rect width="52" height="52"/>
    </clipPath>
  </defs>
  <g id="Equipment_Homecare_Icon" data-name="Equipment &amp; Homecare Icon" clip-path="url(#clip-Equipment_Homecare_Icon)">
    <g id="Group_3210" data-name="Group 3210" transform="translate(1 1.157)">
      <g id="Group_2306" data-name="Group 2306" transform="translate(0 -0.157)" clip-path="url(#clip-path)">
        <path id="Path_21868" data-name="Path 21868" d="M47.087,8.93a3.214,3.214,0,0,0-1.624.451V8.118A3.246,3.246,0,0,0,40.4,5.429a3.228,3.228,0,0,0-6.107,0,3.234,3.234,0,0,0-4.95,1.878H24.034A9.715,9.715,0,0,0,21.92,3.32V3.247h-.066A9.71,9.71,0,0,0,14.613,0H4.059A4.064,4.064,0,0,0,0,4.059V15.425a4.064,4.064,0,0,0,4.059,4.059H14.613a9.71,9.71,0,0,0,7.241-3.247h.066v-.072a9.715,9.715,0,0,0,2.115-3.987h5.192V27.266l-.812-.812V22.326a3.653,3.653,0,1,0-7.307,0v7.919l4.239,7.77a5.651,5.651,0,0,0,2.448,2.363l1.432.716v9.24H30.85V40.09l-2.33-1.165a4.04,4.04,0,0,1-1.748-1.687l-4.041-7.407V22.326a2.03,2.03,0,1,1,4.059,0v4.8l2.1,2.1h1.96V12.178h1.624V7.307h-1.4a1.619,1.619,0,0,1,3.022.812v13.8h1.624V6.495a1.624,1.624,0,0,1,3.247,0V21.92h1.624V8.118a1.624,1.624,0,0,1,3.247,0v13.8h1.624V12.178a1.624,1.624,0,0,1,3.247,0V36.533a4.036,4.036,0,0,1-2.244,3.631l-1,.5v9.669h1.624V41.668l.106-.053a5.65,5.65,0,0,0,3.141-5.083V12.178A3.251,3.251,0,0,0,47.087,8.93M14.613,17.86H4.059a2.438,2.438,0,0,1-2.436-2.436V4.059A2.438,2.438,0,0,1,4.059,1.624H14.613a8.063,8.063,0,0,1,4.85,1.624h-.791a2.438,2.438,0,0,0-2.436,2.436V13.8a2.438,2.438,0,0,0,2.436,2.436h.791a8.063,8.063,0,0,1-4.85,1.624m6.479-3.247h-2.42a.812.812,0,0,1-.812-.812V5.683a.812.812,0,0,1,.812-.812h2.42a8.057,8.057,0,0,1,0,9.742m9.757-4.059H24.314c.023-.269.041-.538.041-.812s-.019-.543-.041-.812H30.85Z" transform="translate(0 0.191)" fill="#fff" stroke="#fff" stroke-width="1"/>
      </g>
    </g>
  </g>
</svg>
