<svg xmlns="http://www.w3.org/2000/svg" width="18.529" height="18.529" viewBox="0 0 18.529 18.529">
  <g id="Group_1173" data-name="Group 1173" transform="translate(0 0)">
    <path id="Path_2894" data-name="Path 2894" d="M13.344,5.748c2.474,0,2.767.009,3.744.054a5.128,5.128,0,0,1,1.72.319A3.068,3.068,0,0,1,20.566,7.88a5.128,5.128,0,0,1,.319,1.72c.045.977.054,1.27.054,3.744s-.009,2.767-.054,3.744a5.128,5.128,0,0,1-.319,1.72,3.068,3.068,0,0,1-1.758,1.758,5.128,5.128,0,0,1-1.72.319c-.977.045-1.27.054-3.744.054s-2.767-.009-3.744-.054a5.128,5.128,0,0,1-1.72-.319,3.068,3.068,0,0,1-1.758-1.758,5.128,5.128,0,0,1-.319-1.72c-.045-.977-.054-1.27-.054-3.744S5.758,10.577,5.8,9.6a5.128,5.128,0,0,1,.319-1.72A3.068,3.068,0,0,1,7.88,6.121,5.128,5.128,0,0,1,9.6,5.8c.977-.045,1.27-.054,3.744-.054m0-1.669c-2.516,0-2.832.011-3.82.056a6.8,6.8,0,0,0-2.249.431,4.737,4.737,0,0,0-2.71,2.71,6.8,6.8,0,0,0-.431,2.249c-.045.988-.056,1.3-.056,3.82s.011,2.832.056,3.82a6.8,6.8,0,0,0,.431,2.249,4.737,4.737,0,0,0,2.71,2.71,6.8,6.8,0,0,0,2.249.431c.988.045,1.3.056,3.82.056s2.832-.011,3.82-.056a6.8,6.8,0,0,0,2.249-.431,4.737,4.737,0,0,0,2.71-2.71,6.8,6.8,0,0,0,.431-2.249c.045-.988.056-1.3.056-3.82s-.011-2.832-.056-3.82a6.8,6.8,0,0,0-.431-2.249,4.737,4.737,0,0,0-2.71-2.71,6.8,6.8,0,0,0-2.249-.431c-.988-.045-1.3-.056-3.82-.056Z" transform="translate(-4.079 -4.079)" fill="#fff"/>
    <path id="Path_2895" data-name="Path 2895" d="M131.785,126.635a5.15,5.15,0,1,0,5.15,5.15A5.15,5.15,0,0,0,131.785,126.635Zm0,8.493a3.343,3.343,0,1,1,3.343-3.343A3.343,3.343,0,0,1,131.785,135.128Z" transform="translate(-122.52 -122.52)" fill="#fff"/>
    <circle id="Ellipse_100" data-name="Ellipse 100" cx="1.015" cy="1.015" r="1.015" transform="translate(13.254 3.245)" fill="#fff"/>
  </g>
</svg>
