<svg xmlns="http://www.w3.org/2000/svg" xmlns:xlink="http://www.w3.org/1999/xlink" width="52" height="52" viewBox="0 0 52 52">
  <defs>
    <clipPath id="clip-LIFESTYLE_FITNESS_Icon">
      <rect width="52" height="52"/>
    </clipPath>
  </defs>
  <g id="LIFESTYLE_FITNESS_Icon" data-name="LIFESTYLE &amp; FITNESS Icon" clip-path="url(#clip-LIFESTYLE_FITNESS_Icon)">
    <g id="healthy-food-svgrepo-com" transform="translate(-11.474 0)">
      <path id="Path_23761" data-name="Path 23761" d="M31.506,8.274V4.509a1.387,1.387,0,0,0-1.387-1.387h-4.5V1.733a1.733,1.733,0,1,0-3.466,0v1.39h-4.5a1.387,1.387,0,0,0-1.387,1.387V8.274a7.005,7.005,0,0,0-2.8,5.6V25.958a1.733,1.733,0,0,0,1.733,1.733,1.739,1.739,0,0,1,0,3.479A1.733,1.733,0,0,0,13.474,32.9V44.988A7.02,7.02,0,0,0,20.486,52h6.805A7.02,7.02,0,0,0,34.3,44.988V32.9a1.733,1.733,0,0,0-1.733-1.733,1.739,1.739,0,0,1,0-3.479A1.733,1.733,0,0,0,34.3,25.958V13.874A7.005,7.005,0,0,0,31.506,8.274ZM19.045,5.9h9.687V7.011a7.009,7.009,0,0,0-1.441-.15h-6.8a7.009,7.009,0,0,0-1.441.15ZM30.837,24.522a5.206,5.206,0,0,0,0,9.818V44.988a3.55,3.55,0,0,1-3.546,3.546H20.486a3.55,3.55,0,0,1-3.546-3.546V34.34a5.206,5.206,0,0,0,0-9.818V13.874a3.55,3.55,0,0,1,3.546-3.546h6.805a3.55,3.55,0,0,1,3.546,3.546Z" fill="#fff"/>
      <path id="Path_23762" data-name="Path 23762" d="M61.935,207.9h-2.86a1.213,1.213,0,1,0,0,2.427h2.86a1.213,1.213,0,1,0,0-2.427Z" transform="translate(-36.616 -171.497)" fill="#fff"/>
      <path id="Path_23763" data-name="Path 23763" d="M61.935,240.565h-2.86a1.213,1.213,0,1,0,0,2.427h2.86a1.213,1.213,0,1,0,0-2.427Z" transform="translate(-36.616 -198.446)" fill="#fff"/>
      <path id="Path_23764" data-name="Path 23764" d="M164.2,140.859a7.026,7.026,0,0,0-6.5.236,6.781,6.781,0,0,1,1.864-2.661,1.733,1.733,0,1,0-2.358-2.541,9.535,9.535,0,0,0-3.079,5.132,7.043,7.043,0,0,0-6.371-.165c-2.517,1.053-3.981,3.921-4.017,7.87-.044,4.957,2.221,11.24,6.505,13.122a7.761,7.761,0,0,0,3.141.649,8.881,8.881,0,0,0,2.591-.393,8.3,8.3,0,0,0,5.731-.255c4.284-1.882,6.549-8.165,6.505-13.122C168.178,144.78,166.714,141.911,164.2,140.859Zm-3.883,17.818a4.909,4.909,0,0,1-3.617.01,1.7,1.7,0,0,0-1.439,0,4.911,4.911,0,0,1-3.619-.01c-2.441-1.072-4.471-5.614-4.433-9.917.022-2.459.727-4.217,1.887-4.7a3.6,3.6,0,0,1,3.874.36,5.616,5.616,0,0,1,1.438,1.741,1.733,1.733,0,0,0,3.142,0,5.629,5.629,0,0,1,1.364-1.682,3.6,3.6,0,0,1,3.948-.42c1.16.485,1.865,2.243,1.887,4.7C164.785,153.063,162.755,157.6,160.314,158.677Z" transform="translate(-107.458 -111.718)" fill="#fff"/>
    </g>
  </g>
</svg>
