<svg xmlns="http://www.w3.org/2000/svg" width="116.542" height="52.518" viewBox="0 0 116.542 52.518">
  <g id="Group_1666" data-name="Group 1666" transform="translate(-158.551 -224.142)">
    <g id="Group_1663" data-name="Group 1663" transform="translate(158.551 270.501)">
      <path id="Path_20901" data-name="Path 20901" d="M158.551,572.972h.976l1.808,5.116,1.8-5.116h.976v5.847h-.522v-5.308h-.118l-1.834,5.116h-.614l-1.834-5.116h-.118v5.308h-.521Z" transform="translate(-158.551 -572.788)" fill="#464749"/>
      <path id="Path_20902" data-name="Path 20902" d="M213.525,585.584v4.207h-.5v-.311a2.9,2.9,0,0,1-1.3.4c-1.169,0-1.405-.521-1.405-2.095v-2.2h.5v2.187c0,1.254.126,1.65.967,1.65a2.65,2.65,0,0,0,1.237-.353v-3.484Z" transform="translate(-203.42 -583.717)" fill="#464749"/>
      <path id="Path_20903" data-name="Path 20903" d="M245.256,585.069l-.025.43s-.665-.085-.985-.085c-1.009,0-1.3.446-1.3,1.657,0,1.321.2,1.809,1.3,1.809.32,0,1-.076,1-.076l.016.43s-.748.1-1.11.1c-1.363,0-1.733-.605-1.733-2.263,0-1.539.488-2.111,1.742-2.111a10.605,10.605,0,0,1,1.093.108" transform="translate(-231.23 -583.177)" fill="#464749"/>
      <path id="Path_20904" data-name="Path 20904" d="M271.05,577.667v-6.073h.5v2.112a3.808,3.808,0,0,1,1.363-.328c1.153,0,1.4.538,1.4,2.078v2.212h-.5V575.48c0-1.237-.135-1.649-.968-1.649a3.634,3.634,0,0,0-1.3.286v3.55Z" transform="translate(-256.04 -571.594)" fill="#464749"/>
      <path id="Path_20905" data-name="Path 20905" d="M319.283,573.29h.976l1.809,5.116,1.8-5.116h.976v5.847h-.522v-5.308H324.2l-1.834,5.116h-.615l-1.834-5.116H319.8v5.308h-.522Z" transform="translate(-297.837 -573.064)" fill="#464749"/>
      <path id="Path_20906" data-name="Path 20906" d="M373.064,587.089c0,1.59-.353,2.246-1.757,2.246s-1.767-.656-1.767-2.246c0-1.49.462-2.128,1.767-2.128s1.757.638,1.757,2.128m-.512,0c0-1.263-.287-1.683-1.245-1.683s-1.246.42-1.246,1.683c0,1.287.152,1.8,1.246,1.8s1.245-.513,1.245-1.8" transform="translate(-341.388 -583.177)" fill="#464749"/>
      <path id="Path_20907" data-name="Path 20907" d="M404.088,585.044h.5v.607a4.475,4.475,0,0,1,1.59-.69v.5a6.035,6.035,0,0,0-1.59.631v3.154h-.5Z" transform="translate(-371.327 -583.177)" fill="#464749"/>
      <path id="Path_20908" data-name="Path 20908" d="M426.486,588.805l.017.412s-.952.117-1.608.117c-1.253-.008-1.632-.765-1.632-2.17,0-1.623.706-2.2,1.732-2.2,1.086,0,1.658.581,1.658,1.994l-.017.4h-2.861c0,.992.286,1.523,1.169,1.523.615,0,1.54-.076,1.54-.076m-.337-1.868c0-1.135-.363-1.54-1.153-1.54-.765,0-1.219.421-1.219,1.54Z" transform="translate(-387.944 -583.177)" fill="#464749"/>
      <path id="Path_20909" data-name="Path 20909" d="M466.389,573.29H470.6v.471h-1.834v5.376h-.522v-5.376h-1.851Z" transform="translate(-425.315 -573.064)" fill="#464749"/>
      <path id="Path_20910" data-name="Path 20910" d="M503.463,577.667v-6.073h.5v2.112a3.809,3.809,0,0,1,1.363-.328c1.153,0,1.405.538,1.405,2.078v2.212h-.5V575.48c0-1.237-.134-1.649-.968-1.649a3.638,3.638,0,0,0-1.3.286v3.55Z" transform="translate(-457.442 -571.594)" fill="#464749"/>
      <path id="Path_20911" data-name="Path 20911" d="M538.218,588.553c.026.252.27.335.548.371l-.027.4a1.182,1.182,0,0,1-.951-.337,4.549,4.549,0,0,1-1.581.346c-.741,0-1.152-.429-1.152-1.272,0-.773.386-1.143,1.236-1.227l1.431-.144v-.4c0-.639-.286-.883-.825-.883-.606,0-1.59.126-1.59.126l-.025-.4a10.641,10.641,0,0,1,1.632-.176c.916,0,1.3.446,1.3,1.337Zm-1.867-1.322a.726.726,0,0,0-.774.826c0,.538.234.85.7.85a4.773,4.773,0,0,0,1.448-.294v-1.523Z" transform="translate(-484.82 -583.177)" fill="#464749"/>
      <path id="Path_20912" data-name="Path 20912" d="M568.531,589.251v-4.206h.5v.311a3.309,3.309,0,0,1,1.372-.4c1.152,0,1.4.538,1.4,2.078v2.211h-.5v-2.187c0-1.237-.135-1.649-.976-1.649a3.085,3.085,0,0,0-1.3.354v3.482Z" transform="translate(-513.829 -583.177)" fill="#464749"/>
      <path id="Path_20913" data-name="Path 20913" d="M616.765,573.29h.976l1.808,5.116,1.8-5.116h.975v5.847h-.521v-5.308h-.118l-1.835,5.116h-.614l-1.834-5.116h-.119v5.308h-.522Z" transform="translate(-555.627 -573.064)" fill="#464749"/>
      <path id="Path_20914" data-name="Path 20914" d="M670.182,588.805l.017.412s-.951.117-1.607.117c-1.253-.008-1.632-.765-1.632-2.17,0-1.623.707-2.2,1.732-2.2,1.086,0,1.658.581,1.658,1.994l-.017.4h-2.861c0,.992.286,1.523,1.169,1.523.615,0,1.54-.076,1.54-.076m-.336-1.868c0-1.135-.362-1.54-1.153-1.54-.765,0-1.219.421-1.219,1.54Z" transform="translate(-599.125 -583.177)" fill="#464749"/>
      <path id="Path_20915" data-name="Path 20915" d="M702.072,577.667h-.506v-.311a3.038,3.038,0,0,1-1.346.4c-.706,0-1.48-.236-1.48-2.137,0-1.472.446-2.238,1.767-2.238a7.938,7.938,0,0,1,1.059.109v-1.893h.506Zm-.506-.731v-3.012a8.825,8.825,0,0,0-1.043-.1c-1,0-1.262.639-1.262,1.792,0,1.489.522,1.682,1.009,1.682a3.136,3.136,0,0,0,1.3-.362" transform="translate(-626.664 -571.594)" fill="#464749"/>
      <path id="Path_20916" data-name="Path 20916" d="M733.1,572.979h.5v.63h-.5Zm0,1.682h.5v4.207h-.5Z" transform="translate(-656.442 -572.794)" fill="#464749"/>
      <path id="Path_20917" data-name="Path 20917" d="M747.793,585.069l-.026.43s-.664-.085-.983-.085c-1.009,0-1.3.446-1.3,1.657,0,1.321.2,1.809,1.3,1.809.319,0,1-.076,1-.076l.017.43s-.748.1-1.111.1c-1.363,0-1.732-.605-1.732-2.263,0-1.539.487-2.111,1.741-2.111a10.589,10.589,0,0,1,1.093.108" transform="translate(-666.716 -583.177)" fill="#464749"/>
      <path id="Path_20918" data-name="Path 20918" d="M773.583,572.979h.5v.63h-.5Zm0,1.682h.5v4.207h-.5Z" transform="translate(-691.521 -572.794)" fill="#464749"/>
      <path id="Path_20919" data-name="Path 20919" d="M786.759,589.251v-4.206h.5v.311a3.309,3.309,0,0,1,1.372-.4c1.152,0,1.4.538,1.4,2.078v2.211h-.5v-2.187c0-1.237-.135-1.649-.975-1.649a3.08,3.08,0,0,0-1.3.354v3.482Z" transform="translate(-702.939 -583.177)" fill="#464749"/>
      <path id="Path_20920" data-name="Path 20920" d="M822.2,588.805l.017.412s-.952.117-1.608.117c-1.254-.008-1.632-.765-1.632-2.17,0-1.623.707-2.2,1.733-2.2,1.085,0,1.657.581,1.657,1.994l-.017.4h-2.861c0,.992.286,1.523,1.169,1.523.615,0,1.54-.076,1.54-.076m-.337-1.868c0-1.135-.362-1.54-1.152-1.54-.767,0-1.22.421-1.22,1.54Z" transform="translate(-730.862 -583.177)" fill="#464749"/>
      <path id="Path_20921" data-name="Path 20921" d="M853.337,585.611a12.72,12.72,0,0,0-1.456-.135c-.521,0-.992.142-.992.715,0,.437.21.563,1.127.715,1.077.176,1.48.369,1.48,1.176,0,.986-.614,1.3-1.624,1.3a12.018,12.018,0,0,1-1.438-.152l.033-.445a13.571,13.571,0,0,0,1.372.142c.723,0,1.144-.168,1.144-.824,0-.505-.253-.614-1.195-.758-.967-.151-1.414-.328-1.414-1.144,0-.916.757-1.186,1.49-1.186a11.115,11.115,0,0,1,1.489.144Z" transform="translate(-758.068 -583.229)" fill="#464749"/>
    </g>
    <g id="Group_1664" data-name="Group 1664" transform="translate(158.551 253.191)">
      <path id="Path_20922" data-name="Path 20922" d="M163.538,450.166h-1.725v3.641c-2.694,0-3.263,0-3.263-2.067v-7.529c0-2.048.474-2.048,2.617-2.048h2.2c4.872,0,5.5,2.238,5.5,3.982C168.867,447.8,168.45,450.166,163.538,450.166Zm-.076-5.366h-1.648v2.768h1.668c2.085,0,2.085,0,2.085-1.422C165.567,445.539,165.529,444.8,163.462,444.8Z" transform="translate(-158.551 -442.122)" fill="#12a77a"/>
      <path id="Path_20923" data-name="Path 20923" d="M270.441,453.538c-1.442-.112-1.422-1.024-1.422-2.048v-2.58h-4.457v4.647c-2.806,0-3.261-.114-3.261-2.067v-9.615c2.769,0,3.261.114,3.261,2.03v2.408h4.457v-4.438c2.786,0,3.28.094,3.28,2.03v9.652C271.124,453.557,270.744,453.557,270.441,453.538Z" transform="translate(-247.59 -441.873)" fill="#12a77a"/>
      <path id="Path_20924" data-name="Path 20924" d="M379.537,453.538c-1.556-.075-1.669-.91-2.125-2.028h-4.836c-.929,2.407-1.194,2.047-4.266,2.047l4.21-10.108c.569-1.4.835-1.574,2.466-1.574h1.745l4.969,11.682C380.237,453.557,379.84,453.557,379.537,453.538Zm-4.552-8.287-1.46,3.774h2.938Z" transform="translate(-340.322 -441.873)" fill="#12a77a"/>
      <path id="Path_20925" data-name="Path 20925" d="M498.838,453.807c-1.441,0-2.048-.151-2.864-1.346l-2.124-3.09c-.436-.664-.588-2.125.985-2.125h.7c1.385,0,1.385,0,1.385-1.251,0-.494-.038-1.195-2.087-1.195h-1.612v9.008c-2.824,0-3.261,0-3.261-2.067v-7.529c0-2.048.646-2.048,2.636-2.048h2.125c4.8,0,5.48,2.181,5.48,3.831a2.924,2.924,0,0,1-3.186,3.224l4.286,4.589Z" transform="translate(-445.744 -442.122)" fill="#12a77a"/>
      <path id="Path_20926" data-name="Path 20926" d="M610.2,453.524c-1.4-.112-1.4-.986-1.4-1.991V446.7l-2.163,5.292c-.454,1.138-.662,1.555-2.124,1.555h-1.422L600.2,446.7v6.847c-2.751,0-3.225-.095-3.225-2.01v-9.672h1.707c1.783,0,2.314-.133,3.053,1.689l2.769,6.884,2.788-6.9c.607-1.5.853-1.669,2.789-1.669h1.953v11.682C610.88,453.544,610.5,453.544,610.2,453.524Z" transform="translate(-538.481 -441.859)" fill="#12a77a"/>
      <path id="Path_20927" data-name="Path 20927" d="M742.784,453.538c-1.557-.075-1.67-.91-2.124-2.028h-4.836c-.93,2.407-1.195,2.047-4.268,2.047l4.209-10.108c.571-1.4.835-1.574,2.468-1.574h1.745l4.968,11.682C743.484,453.557,743.087,453.557,742.784,453.538Zm-4.551-8.287-1.46,3.774h2.939Z" transform="translate(-655.102 -441.873)" fill="#12a77a"/>
      <path id="Path_20928" data-name="Path 20928" d="M850.682,453.6c-4.837,0-5.993-2.807-5.993-5.86s1.175-5.861,5.974-5.861h3.85c0,1.879.265,2.675-2.182,2.675h-1.649c-2.694,0-2.694.037-2.694,3.186,0,2.067.494,3.2,2.675,3.2h1.555c2.048,0,2.3.266,2.3,2.655Z" transform="translate(-753.14 -441.873)" fill="#12a77a"/>
      <path id="Path_20929" data-name="Path 20929" d="M940.984,449.954v3.6c-.7,0-2.257.114-2.825-.3-.361-.245-.531-.721-.531-1.744v-1.556l-4.837-8.079c2.162,0,2.826,0,3.3.227a2.814,2.814,0,0,1,1.158,1.365l2.085,3.928,2.5-4.42a1.962,1.962,0,0,1,1.992-1.061c.377-.038.909-.038,2.2-.038Z" transform="translate(-829.486 -441.873)" fill="#12a77a"/>
    </g>
    <g id="Group_1665" data-name="Group 1665" transform="translate(158.551 224.142)">
      <path id="Path_20930" data-name="Path 20930" d="M158.551,246.053l7.716-21.911h5.352l7.746,21.911v1.363h-5.019l-1.93-5.919h-7.847l-1.859,5.919h-4.159Zm7.115-8.11h5.586l-2.794-8.579h-.066Z" transform="translate(-158.551 -224.142)" fill="#003d81"/>
      <path id="Path_20931" data-name="Path 20931" d="M324.488,282.672v-3.586h1.528a6.353,6.353,0,0,0,4.289,1.465c1.969,0,2.994-.535,2.994-1.63,0-1.062-.63-1.564-3.093-1.866-3.823-.461-5.851-1.893-5.851-5.317,0-3.526,2.628-5.488,6.916-5.488a11.383,11.383,0,0,1,5.481,1.2v3.524H335.3a6.777,6.777,0,0,0-3.987-1.16c-1.9,0-2.63.563-2.63,1.558,0,.9.862,1.367,3.258,1.667,4.153.531,5.886,1.9,5.886,5.42,0,3.426-2.228,5.651-7.283,5.651a11.725,11.725,0,0,1-6.051-1.433" transform="translate(-302.233 -260.632)" fill="#003d81"/>
      <path id="Path_20932" data-name="Path 20932" d="M429.461,237.507h2.061v-4.658h4.853v4.658H439.9v3.257h-3.528v8.945c0,1.663.664,2.125,2.259,2.125h1.332v2.927a9.572,9.572,0,0,1-3.059.465c-3.356,0-5.385-1.331-5.385-4.953v-9.51h-2.061Z" transform="translate(-393.314 -231.687)" fill="#003d81"/>
      <path id="Path_20933" data-name="Path 20933" d="M516.969,275.83c.237,3.488,1.9,4.456,4.589,4.456a7.668,7.668,0,0,0,4.621-1.467h1.5v3.195a12.726,12.726,0,0,1-6.848,1.694c-5.721,0-8.846-3.392-8.846-8.878,0-5.62,3.66-9.077,8.505-9.077,5.125,0,7.855,2.828,7.855,8.578,0,.6-.07,1.329-.07,1.5Zm.068-2.928h6.514c-.1-3.1-1.167-4.087-3.063-4.087-1.693,0-3.081.828-3.451,4.087" transform="translate(-464.825 -260.201)" fill="#003d81"/>
      <path id="Path_20934" data-name="Path 20934" d="M657.021,271.531v12.6h-4.855V266.677h3.3c.826,0,1.326.364,1.491,2.095a6.617,6.617,0,0,1,4.857-2.261,3.609,3.609,0,0,1,1.064.167V270.5h-.831a10.942,10.942,0,0,0-5.024,1.03" transform="translate(-586.304 -260.857)" fill="#003d81"/>
    </g>
  </g>
</svg>
