<svg xmlns="http://www.w3.org/2000/svg" xmlns:xlink="http://www.w3.org/1999/xlink" width="52" height="52" viewBox="0 0 52 52">
  <defs>
    <clipPath id="clip-path">
      <rect id="Rectangle_2439" data-name="Rectangle 2439" width="39.393" height="52" fill="#fff"/>
    </clipPath>
    <clipPath id="clip-Mother_Baby_Icon">
      <rect width="52" height="52"/>
    </clipPath>
  </defs>
  <g id="Mother_Baby_Icon" data-name="Mother &amp; Baby Icon" clip-path="url(#clip-Mother_Baby_Icon)">
    <g id="Group_3410" data-name="Group 3410" transform="translate(6)">
      <g id="Group_2310" data-name="Group 2310" clip-path="url(#clip-path)">
        <path id="Path_21872" data-name="Path 21872" d="M1.481,24.257V14.116a14.116,14.116,0,0,1,28.232,0V24.257a6.362,6.362,0,0,1-6.354,6.355,1.214,1.214,0,1,1,0-2.428,3.931,3.931,0,0,0,3.926-3.926V14.116a11.688,11.688,0,0,0-23.375,0V24.257a3.931,3.931,0,0,0,3.926,3.926,1.214,1.214,0,0,1,0,2.428,6.362,6.362,0,0,1-6.355-6.355m9.963-7.848c-.511.27-1.04.548-1.553.837a4.252,4.252,0,0,0-2.364,2.431,3.1,3.1,0,0,0,.659,2.455c.977,1.438,3.628,4.782,7.15,4.788A6.843,6.843,0,0,0,18.829,25.8a10.587,10.587,0,0,0,5.14-9.169,12.047,12.047,0,0,0-.76-4.36,1.214,1.214,0,0,0-2.265.876,9.631,9.631,0,0,1,.6,3.483A8.152,8.152,0,0,1,17.606,23.7a4.632,4.632,0,0,1-2.27.791c-1.928,0-3.92-1.926-5.142-3.724a1.979,1.979,0,0,1-.295-.544,3.534,3.534,0,0,1,1.181-.861c.484-.272,1-.543,1.5-.805C15.343,17.1,18.2,15.59,18.7,12.589a5.711,5.711,0,0,0-1.392-5.21,7.191,7.191,0,0,0-6.282-1.668,1.214,1.214,0,0,0,.356,2.4,4.846,4.846,0,0,1,4.195.968,3.421,3.421,0,0,1,.727,3.111c-.3,1.811-2.516,2.979-4.862,4.216m9.7,18.548a1.214,1.214,0,1,0,1.246-2.084,6,6,0,0,1-2.5-2.463,1.214,1.214,0,1,0-2.209,1.009,8.32,8.32,0,0,0,3.464,3.538m18.251,7.679A1.214,1.214,0,0,1,38.2,43.875l-1.344.027.817,1.754a1.214,1.214,0,1,1-2.2,1.025l-.618-1.327-1.693,2.932a6.634,6.634,0,0,1-9.057,2.427l-.009-.005a6.646,6.646,0,0,1-2.418-9.052l4.617-8a6.638,6.638,0,0,1,9.044-2.434l.013.008a6.638,6.638,0,0,1,2.427,9.057l-.681,1.18,1.054-.021a1.214,1.214,0,0,1,1.238,1.189m-6.724,1.651A6.6,6.6,0,0,1,25.475,40.3q-.045-.106-.085-.214L23.782,42.87a4.218,4.218,0,0,0,1.538,5.74l.008,0a4.207,4.207,0,0,0,5.733-1.542ZM34.15,33.34l-.01-.006a4.207,4.207,0,0,0-5.74,1.538l-.438.759-.011.019a4.2,4.2,0,0,0,7.278,4.2l.009-.016.44-.761A4.207,4.207,0,0,0,34.15,33.34M19.178,49.572H12.222L3.305,37.585c5.776-1.405,9.2-3.43,10.452-6.166a1.214,1.214,0,1,0-2.209-1.009c-.7,1.531-3.1,3.675-10.554,5.2a1.214,1.214,0,0,0-.74,1.94L10.638,51.51a1.212,1.212,0,0,0,.765.471,1.235,1.235,0,0,0,.21.018h7.564a1.214,1.214,0,0,0,0-2.428M31.436,37.764a1.214,1.214,0,0,0-1.086,2.172h0a1.214,1.214,0,0,0,1.085-2.172" transform="translate(0)" fill="#fff"/>
      </g>
    </g>
  </g>
</svg>
