<?xml version="1.0" encoding="utf-8"?>
<!-- Generator: Adobe Illustrator 27.6.1, SVG Export Plug-In . SVG Version: 6.00 Build 0)  -->
<svg version="1.1" id="Layer_1" xmlns="http://www.w3.org/2000/svg" xmlns:xlink="http://www.w3.org/1999/xlink" x="0px" y="0px"
	 viewBox="0 0 868 328" style="enable-background:new 0 0 868 328;" xml:space="preserve">
<style type="text/css">
	.st0{fill:#00AE6B;}
	.st1{fill:#0D56AA;}
	.st2{display:none;}
	.st3{display:inline;fill:#FFFFFF;}
</style>
<g>
	<g>
		<g>
			<path class="st0" d="M60.7,88.7H47v112h21.8v-84.8c8.8-5.6,18.4-10.7,30.2-10.7c10.1,0,15.6,4.3,15.6,17.3v78.1h21.8v-84.8
				c8.4-5.3,18.6-10.7,30.2-10.7c10.3,0,15.8,4.3,15.8,17.3v78.1h21.6v-83.9c0-22.3-12.6-29.8-27.8-29.8c-15.6,0-30.6,7.1-41.8,16.3
				c-3.9-12-14.1-16.3-25.7-16.3c-15.8,0-30,7.5-40,15.4C68.4,91,66.1,88.7,60.7,88.7z"/>
			<polygon class="st0" points="243.7,235.3 262.6,235.3 318.5,94.7 318.5,88.7 299.6,88.7 269.9,167.2 269.6,167.2 237.8,88.7 
				217.2,88.7 217.2,94.7 259.1,194.2 243.7,229.1 			"/>
		</g>
		<g>
			<path class="st1" d="M381.9,84.5h0.4l17.5,53.6h-34.9L381.9,84.5z M320.5,197.3h26l11.6-37h49l12,37h31.4v-8.5L402.1,51.9h-33.4
				l-48.2,136.9V197.3z"/>
			<path class="st1" d="M500.7,198.5c31.6,0,45.5-13.9,45.5-35.3c0-22-10.8-30.5-36.8-33.9c-15-1.9-20.4-4.8-20.4-10.4
				c0-6.2,4.6-9.8,16.4-9.8c11.2,0,19.9,3.5,24.9,7.3h9.1v-22c-8.7-4.4-18.5-7.5-34.3-7.5c-26.8,0-43.2,12.2-43.2,34.3
				c0,21.4,12.7,30.3,36.5,33.2c15.4,1.9,19.3,5,19.3,11.6c0,6.9-6.4,10.2-18.7,10.2c-12.7,0-21.8-4.6-26.8-9.1h-9.5v22.4
				C471.5,194.3,482.9,198.5,500.7,198.5z"/>
			<path class="st1" d="M556.2,108.6h12.9V168c0,22.6,12.7,30.9,33.7,30.9c8.5,0,14.5-1.4,19.1-2.9v-18.3h-8.3
				c-10,0-14.1-2.9-14.1-13.3v-55.9h22V88.2h-22V59.1h-30.3v29.1h-12.9V108.6z"/>
			<path class="st1" d="M686.6,105.7c11.8,0,18.5,6.2,19.1,25.6H665C667.3,110.9,676,105.7,686.6,105.7z M735.2,149.5
				c0-1,0.4-5.6,0.4-9.4c0-35.9-17-53.6-49-53.6c-30.3,0-53.2,21.6-53.2,56.7c0,34.3,19.5,55.4,55.2,55.4c21.8,0,34.1-5.6,42.8-10.6
				v-19.9h-9.3c-7.1,5.2-16.6,9.1-28.9,9.1c-16.8,0-27.2-6-28.7-27.8L735.2,149.5L735.2,149.5z"/>
			<path class="st1" d="M815.8,112.1h5.2V88.2c-2.1-0.6-4.4-1-6.7-1c-13.5,0-23.5,6.8-30.3,14.1c-1-10.8-4.2-13.1-9.3-13.1h-20.6
				v109h30.3v-78.7C790.3,115.4,800.8,112.1,815.8,112.1z"/>
		</g>
	</g>
	<g class="st2">
		<polygon class="st3" points="318.9,266.8 318.9,242.9 319.2,242.9 327.7,263.1 331.6,263.1 340.1,242.9 340.4,242.9 340.4,266.8 
			345.4,266.8 345.4,232.5 339.9,232.5 329.8,256.8 329.6,256.8 319.5,232.5 314,232.5 314,266.8 		"/>
		<path class="st3" d="M373,240.2h-5.7l-6.2,21.5h-0.2l-6.1-21.5h-6L358,267l-0.2,0.9c-0.3,1.4-0.9,2.4-1.6,3
			c-0.8,0.6-1.9,0.9-3.3,0.9c-0.3,0-0.6,0-1,0c-0.4,0-0.7-0.1-0.9-0.1v4.2c0.4,0.1,0.8,0.1,1.4,0.2c0.6,0,1.1,0.1,1.6,0.1
			c2.5,0,4.5-0.6,6-1.9s2.8-3.4,3.9-6.3l0.5-1.5c0.6-1.7,1.2-3.5,1.9-5.5c0.7-2,1.4-4.1,2.1-6.3s1.5-4.6,2.3-7
			C371.4,245.3,372.2,242.8,373,240.2z"/>
		<polygon class="st3" points="410.3,266.8 410.3,232.5 404.8,232.5 404.8,246.7 389.6,246.7 389.6,232.5 384.1,232.5 384.1,266.8 
			389.6,266.8 389.6,251.6 404.8,251.6 404.8,266.8 		"/>
		<path class="st3" d="M420.5,251.2c0-0.1,0-0.1,0-0.2s0-0.1,0-0.2c0-1.3,0.2-2.5,0.7-3.5c0.5-1,1.1-1.8,2-2.3s1.9-0.8,3-0.8
			c1.1,0,2.1,0.3,3,0.8s1.5,1.3,2,2.3s0.7,2.2,0.7,3.5c0,0.1,0,0.1,0,0.2s0,0.1,0,0.2H420.5z M426.5,267.3c1.7,0,3.2-0.2,4.5-0.7
			c1.3-0.5,2.3-1.1,3.1-1.9c0.8-0.8,1.5-1.6,1.9-2.5c0.5-0.9,0.7-1.7,0.8-2.5h-5.3c-0.1,0.5-0.4,1-0.9,1.5c-0.5,0.5-1,0.8-1.8,1.1
			c-0.7,0.3-1.5,0.4-2.5,0.4c-1.9,0-3.4-0.6-4.4-1.9c-1-1.3-1.6-2.9-1.6-4.8v-1.3h16.6v-3.1c0-2.4-0.5-4.6-1.4-6.3s-2.2-3.2-3.9-4.1
			c-1.6-1-3.5-1.5-5.7-1.5c-2.1,0-4,0.5-5.6,1.4c-1.7,0.9-3,2.3-3.9,4.1s-1.5,3.9-1.5,6.4v3.6c0,2.5,0.5,4.6,1.4,6.4
			s2.2,3.2,3.9,4.1C422.2,266.8,424.2,267.3,426.5,267.3z"/>
		<path class="st3" d="M450.7,262.9c-1.2,0-2.3-0.3-3.2-1s-1.4-1.7-1.4-3.1c0-1.1,0.4-2,1.1-2.8c0.7-0.7,1.9-1.1,3.4-1.1h5.6v2.9
			c0,1-0.2,1.8-0.7,2.6c-0.5,0.8-1.1,1.4-2,1.8C452.7,262.6,451.8,262.9,450.7,262.9z M449.1,267.2c1.3,0,2.4-0.2,3.3-0.5
			c0.9-0.4,1.7-0.8,2.3-1.4c0.6-0.6,1.1-1.2,1.5-1.9h0.2v3.5h5.1v-18c0-2.2-0.5-4-1.4-5.3c-0.9-1.3-2.1-2.3-3.6-2.8
			c-1.5-0.6-3.2-0.9-5-0.9c-1.6,0-3,0.2-4.2,0.5c-1.2,0.4-2.2,0.9-3,1.5s-1.5,1.4-1.9,2.4c-0.5,0.9-0.7,1.9-0.8,3h5.1
			c0.1-0.6,0.4-1.1,0.8-1.6s0.9-0.8,1.5-1.1s1.4-0.4,2.4-0.4c1.5,0,2.6,0.4,3.5,1.1s1.3,1.9,1.3,3.4v2.5h-6.5c-3,0-5.2,0.7-6.7,2.2
			c-1.5,1.4-2.3,3.3-2.3,5.7c0,2.5,0.8,4.5,2.3,5.9C444.6,266.5,446.6,267.2,449.1,267.2z"/>
		<rect x="467.4" y="230.6" class="st3" width="5.4" height="36.2"/>
		<path class="st3" d="M480.4,240.4h-4v4.4h3.9v14.6c0,1.8,0.2,3.2,0.7,4.4s1.3,2,2.4,2.5s2.8,0.8,4.8,0.8c0.6,0,1.3,0,2-0.1
			c0.7-0.1,1.2-0.1,1.4-0.2v-4.3c-0.2,0-0.5,0-0.9,0.1s-0.8,0-1.2,0c-1.4,0-2.5-0.2-3-0.8s-0.9-1.5-0.9-2.9v-14.1h5.7v-4.4h-5.7
			v-6.6h-5.3L480.4,240.4L480.4,240.4z"/>
		<path class="st3" d="M495.9,266.8h5.4V252c0-1.4,0.2-2.7,0.7-3.9s1.1-2,2-2.7c0.9-0.6,2-1,3.3-1c1,0,1.9,0.2,2.7,0.6
			c0.8,0.4,1.4,1.1,1.8,2s0.7,2,0.7,3.4v16.3h5.4v-17.9c0-3-0.8-5.3-2.4-6.8s-3.7-2.2-6.1-2.2c-1.7,0-3.1,0.3-4.2,0.9
			c-1.1,0.6-1.9,1.3-2.5,2.1c-0.6,0.8-0.9,1.5-1.1,2.2h-0.3v-14.3h-5.4L495.9,266.8L495.9,266.8z"/>
		<rect x="532.5" y="232.5" class="st3" width="5.5" height="34.3"/>
		<path class="st3" d="M544.1,266.8h5.4V252c0-1.4,0.2-2.7,0.7-3.9s1.1-2,2-2.7c0.9-0.6,2-1,3.3-1c1,0,1.9,0.2,2.7,0.6
			c0.8,0.4,1.3,1.1,1.8,1.9s0.6,2,0.6,3.3v16.3h5.4v-18c0-3-0.8-5.3-2.4-6.8s-3.7-2.2-6.2-2.2c-1.7,0-3.1,0.3-4.2,0.9
			s-1.8,1.3-2.4,2.1c-0.5,0.8-0.9,1.6-1.1,2.2h-0.3v-4.8h-5.3L544.1,266.8L544.1,266.8z"/>
		<polygon class="st3" points="585.8,266.8 585.8,242.9 586,242.9 594.5,263.1 598.5,263.1 607,242.9 607.2,242.9 607.2,266.8 
			612.2,266.8 612.2,232.5 606.7,232.5 596.6,256.8 596.5,256.8 586.3,232.5 580.8,232.5 580.8,266.8 		"/>
		<path class="st3" d="M639.9,240.2h-5.7l-6.2,21.5h-0.2l-6.1-21.5h-6l9.1,26.8l-0.2,0.9c-0.3,1.4-0.8,2.4-1.6,3
			c-0.8,0.6-1.9,0.9-3.3,0.9c-0.3,0-0.6,0-1,0s-0.7-0.1-0.9-0.1v4.2c0.3,0.1,0.8,0.1,1.4,0.2c0.6,0,1.1,0.1,1.6,0.1
			c2.5,0,4.5-0.6,6-1.9c1.5-1.3,2.8-3.4,3.9-6.3l0.5-1.5c0.6-1.7,1.2-3.5,1.9-5.5s1.4-4.1,2.1-6.3s1.5-4.6,2.3-7
			C638.2,245.3,639,242.8,639.9,240.2z"/>
		<polygon class="st3" points="677.1,266.8 677.1,232.5 671.6,232.5 671.6,246.7 656.5,246.7 656.5,232.5 651,232.5 651,266.8 
			656.5,266.8 656.5,251.6 671.6,251.6 671.6,266.8 		"/>
		<path class="st3" d="M692,262.9c-1.2,0-2.3-0.3-3.2-1s-1.4-1.7-1.4-3.1c0-1.1,0.4-2,1.1-2.8c0.7-0.7,1.9-1.1,3.4-1.1h5.6v2.9
			c0,1-0.2,1.8-0.7,2.6s-1.2,1.4-2,1.8C693.9,262.6,693,262.9,692,262.9z M690.3,267.2c1.3,0,2.4-0.2,3.3-0.5
			c0.9-0.4,1.7-0.8,2.3-1.4c0.6-0.6,1.1-1.2,1.5-1.9h0.2v3.5h5.1v-18c0-2.2-0.5-4-1.4-5.3s-2.1-2.3-3.6-2.8c-1.5-0.6-3.2-0.9-5-0.9
			c-1.6,0-3,0.2-4.2,0.5s-2.2,0.9-3,1.5c-0.8,0.7-1.5,1.4-1.9,2.4s-0.7,1.9-0.8,3h5.1c0.1-0.6,0.4-1.1,0.8-1.6
			c0.3-0.4,0.8-0.8,1.5-1.1s1.4-0.4,2.4-0.4c1.5,0,2.6,0.4,3.5,1.1s1.3,1.9,1.3,3.4v2.5H691c-3,0-5.2,0.7-6.7,2.2
			c-1.5,1.4-2.3,3.3-2.3,5.7c0,2.5,0.8,4.5,2.3,5.9C685.8,266.5,687.8,267.2,690.3,267.2z"/>
		<path class="st3" d="M708.4,266.8h5.4V252c0-1.4,0.2-2.7,0.7-3.9s1.1-2,2-2.7c0.9-0.6,2-1,3.3-1c1,0,1.9,0.2,2.7,0.6
			c0.8,0.4,1.3,1.1,1.8,1.9s0.6,2,0.6,3.3v16.3h5.4v-18c0-3-0.8-5.3-2.4-6.8c-1.6-1.5-3.7-2.2-6.2-2.2c-1.7,0-3.1,0.3-4.2,0.9
			s-1.8,1.3-2.4,2.1c-0.5,0.8-0.9,1.6-1.1,2.2h-0.3v-4.8h-5.3L708.4,266.8L708.4,266.8z"/>
		<path class="st3" d="M745.9,244.4c1.2,0,2.2,0.3,3.2,0.9s1.6,1.4,2.2,2.4c0.5,1,0.8,2.2,0.8,3.6v4c0,1.5-0.2,2.8-0.8,3.9
			c-0.5,1.1-1.2,1.9-2.1,2.5c-0.9,0.6-2,0.9-3.2,0.9s-2.3-0.3-3.2-0.9c-0.9-0.6-1.6-1.5-2-2.6c-0.5-1.1-0.7-2.5-0.7-4.1V252
			c0-1.6,0.2-3,0.7-4.1c0.5-1.1,1.1-2,2-2.6C743.7,244.7,744.7,244.4,745.9,244.4z M744.4,239.8c-2,0-3.7,0.5-5.1,1.4
			c-1.5,0.9-2.6,2.2-3.4,3.9c-0.8,1.7-1.2,3.7-1.2,6.1v4.6c0,2.3,0.4,4.4,1.2,6.1s1.9,3,3.4,3.9c1.5,0.9,3.2,1.4,5.1,1.4
			c0.9,0,1.8-0.1,2.7-0.3c0.8-0.2,1.6-0.5,2.3-1c0.7-0.4,1.2-0.9,1.7-1.5c0.5-0.6,0.8-1.2,1-1.9h0.3v4.2h5.2v-36.2h-5.4v13.6h-0.3
			c-0.3-0.9-0.8-1.7-1.5-2.3c-0.7-0.6-1.5-1.2-2.5-1.5C746.7,240,745.6,239.8,744.4,239.8z"/>
		<path class="st3" d="M762.5,247.9c0,1.7,0.4,3.1,1.2,4.1c0.8,1,1.8,1.7,3.1,2.2c1.3,0.5,2.7,0.9,4.3,1.3c1.2,0.2,2.2,0.5,3.2,0.7
			c1,0.2,1.7,0.6,2.3,1.1c0.6,0.5,0.9,1.2,0.9,2.1c0,0.7-0.2,1.3-0.5,1.9c-0.3,0.6-0.9,1-1.7,1.4s-1.7,0.5-2.9,0.5
			c-1.1,0-2-0.1-2.7-0.4s-1.2-0.7-1.6-1.2s-0.6-1.1-0.7-1.9H762c0,1.6,0.4,2.9,1.2,4.1c0.8,1.1,2,2,3.5,2.6c1.5,0.6,3.3,0.9,5.3,0.9
			c2.2,0,4-0.3,5.6-1s2.8-1.6,3.7-2.9s1.3-2.8,1.3-4.6c0-1.7-0.4-3-1.1-4s-1.8-1.7-3-2.3c-1.3-0.5-2.7-0.9-4.3-1.2
			c-0.7-0.1-1.4-0.3-2.2-0.4c-0.8-0.1-1.5-0.4-2.1-0.6c-0.7-0.3-1.2-0.6-1.6-1.1s-0.6-1.1-0.6-1.8c0-1.1,0.4-2,1.3-2.7
			c0.8-0.6,2-0.9,3.3-0.9c1,0,1.9,0.2,2.6,0.5s1.2,0.8,1.6,1.3c0.4,0.5,0.6,1.1,0.6,1.7h4.8c0-1.6-0.4-2.9-1.2-4.1
			c-0.8-1.1-1.9-2-3.3-2.6c-1.4-0.6-3.1-0.9-5-0.9c-1.7,0-3.3,0.3-4.9,0.8s-2.7,1.4-3.7,2.6S762.5,246,762.5,247.9z"/>
	</g>
</g>
</svg>
