<?xml version="1.0" encoding="utf-8"?>
<!-- Generator: Adobe Illustrator 27.3.1, SVG Export Plug-In . SVG Version: 6.00 Build 0)  -->
<svg version="1.1" id="Layer_1" xmlns="http://www.w3.org/2000/svg" xmlns:xlink="http://www.w3.org/1999/xlink" x="0px" y="0px"
	 viewBox="0 0 868 328" style="enable-background:new 0 0 868 328;" xml:space="preserve">
<style type="text/css">
	.st0{fill:#FFFFFF;}
</style>
<g>
	<g>
		<g>
			<path class="st0" d="M62.7,92.67H49v111.96h21.84v-84.78c8.78-5.57,18.41-10.7,30.19-10.7c10.06,0,15.63,4.28,15.63,17.34v78.14
				h21.84v-84.78c8.35-5.35,18.62-10.7,30.19-10.7c10.28,0,15.84,4.28,15.84,17.34v78.14h21.62v-83.92
				c0-22.26-12.63-29.76-27.83-29.76c-15.63,0-30.61,7.06-41.75,16.27c-3.85-11.99-14.13-16.27-25.69-16.27
				c-15.84,0-29.97,7.49-40.03,15.41C70.41,95.02,68.05,92.67,62.7,92.67z"/>
			<polygon class="st0" points="245.74,239.31 264.58,239.31 320.45,98.66 320.45,92.67 301.61,92.67 271.86,171.23 271.64,171.23 
				239.75,92.67 219.19,92.67 219.19,98.66 261.15,198.21 245.74,233.1 			"/>
		</g>
		<g>
			<path class="st0" d="M383.94,88.48h0.42l17.45,53.58h-34.89L383.94,88.48z M322.47,201.26h25.96l11.63-36.97h49.01l12.05,36.97
				h31.36v-8.52L404.09,55.87h-33.44l-48.18,136.87V201.26z"/>
			<path class="st0" d="M502.74,202.5c31.57,0,45.48-13.92,45.48-35.31c0-22.02-10.8-30.53-36.76-33.85
				c-14.95-1.87-20.35-4.78-20.35-10.38c0-6.23,4.57-9.76,16.41-9.76c11.22,0,19.94,3.53,24.92,7.27h9.14V98.45
				c-8.72-4.36-18.48-7.48-34.27-7.48c-26.79,0-43.2,12.25-43.2,34.27c0,21.39,12.67,30.32,36.55,33.23
				c15.37,1.87,19.32,4.98,19.32,11.63c0,6.85-6.44,10.18-18.69,10.18c-12.67,0-21.81-4.57-26.79-9.14h-9.55v22.43
				C473.46,198.35,484.88,202.5,502.74,202.5z"/>
			<path class="st0" d="M558.2,112.57h12.88v59.4c0,22.64,12.67,30.95,33.65,30.95c8.52,0,14.54-1.45,19.11-2.91v-18.28h-8.31
				c-9.97,0-14.12-2.91-14.12-13.29v-55.87h22.02V92.22H601.4V63.14h-30.32v29.08H558.2V112.57z"/>
			<path class="st0" d="M688.63,109.66c11.84,0,18.48,6.23,19.11,25.55h-40.71C669.31,114.86,678.03,109.66,688.63,109.66z
				 M737.22,153.49c0-1.04,0.42-5.61,0.42-9.35c0-35.93-17.03-53.58-49.01-53.58c-30.32,0-53.17,21.6-53.17,56.7
				c0,34.27,19.52,55.45,55.25,55.45c21.81,0,34.06-5.61,42.78-10.59v-19.94h-9.35c-7.06,5.19-16.62,9.14-28.87,9.14
				c-16.82,0-27.21-6.02-28.66-27.83H737.22z"/>
			<path class="st0" d="M817.81,116.1H823V92.22c-2.08-0.62-4.36-1.04-6.65-1.04c-13.5,0-23.47,6.85-30.32,14.12
				c-1.04-10.8-4.15-13.08-9.35-13.08h-20.56v109.04h30.32v-78.71C792.26,119.43,802.85,116.1,817.81,116.1z"/>
		</g>
	</g>
	<g>
		<polygon class="st0" points="320.92,270.8 320.92,246.89 321.19,246.89 329.69,267.15 333.64,267.15 342.11,246.89 342.39,246.89 
			342.39,270.8 347.37,270.8 347.37,236.46 341.88,236.46 331.79,260.79 331.6,260.79 321.49,236.46 315.98,236.46 315.98,270.8 		
			"/>
		<path class="st0" d="M375.03,244.22h-5.7l-6.17,21.51h-0.23l-6.1-21.51h-5.95l9.12,26.79l-0.21,0.85c-0.31,1.4-0.85,2.4-1.63,3.01
			c-0.77,0.61-1.88,0.92-3.32,0.92c-0.29,0-0.64-0.02-1.05-0.05c-0.41-0.03-0.71-0.07-0.91-0.09v4.23c0.35,0.08,0.81,0.14,1.38,0.19
			c0.57,0.04,1.09,0.07,1.58,0.07c2.48,0,4.49-0.63,6.03-1.88s2.84-3.35,3.9-6.28l0.55-1.51c0.57-1.67,1.19-3.5,1.86-5.48
			c0.67-1.98,1.37-4.08,2.11-6.31s1.51-4.55,2.31-6.98C373.38,249.27,374.2,246.78,375.03,244.22z"/>
		<polygon class="st0" points="412.28,270.8 412.28,236.46 406.78,236.46 406.78,250.72 391.64,250.72 391.64,236.46 386.14,236.46 
			386.14,270.8 391.64,270.8 391.64,255.58 406.78,255.58 406.78,270.8 		"/>
		<path class="st0" d="M422.54,255.18c0-0.06,0-0.12,0-0.18c0-0.06,0-0.11,0-0.18c0-1.34,0.24-2.51,0.71-3.51
			c0.48-1,1.14-1.78,2-2.33c0.86-0.55,1.85-0.83,2.99-0.83c1.14,0,2.13,0.28,2.98,0.83c0.85,0.55,1.51,1.33,1.98,2.33
			c0.47,1,0.7,2.17,0.7,3.51c0,0.06,0,0.12,0,0.18c0,0.06,0,0.11,0,0.18H422.54z M428.55,271.26c1.72,0,3.22-0.24,4.48-0.73
			c1.26-0.49,2.31-1.11,3.15-1.88c0.84-0.77,1.48-1.58,1.92-2.45c0.45-0.87,0.71-1.69,0.78-2.45h-5.26
			c-0.12,0.55-0.4,1.05-0.86,1.52c-0.45,0.46-1.04,0.84-1.76,1.11c-0.72,0.28-1.55,0.42-2.49,0.42c-1.89,0-3.36-0.63-4.41-1.9
			c-1.05-1.27-1.57-2.85-1.57-4.75v-1.31h16.63v-3.12c0-2.44-0.47-4.56-1.4-6.34c-0.93-1.78-2.22-3.16-3.86-4.14
			c-1.64-0.97-3.54-1.46-5.68-1.46c-2.08,0-3.95,0.47-5.61,1.42c-1.66,0.94-2.97,2.3-3.93,4.08c-0.96,1.78-1.45,3.93-1.45,6.45v3.6
			c0,2.49,0.46,4.64,1.37,6.42s2.22,3.16,3.91,4.11C424.21,270.78,426.22,271.26,428.55,271.26z"/>
		<path class="st0" d="M452.74,266.88c-1.2,0-2.28-0.33-3.22-1s-1.42-1.69-1.42-3.09c0-1.11,0.36-2.03,1.07-2.75
			c0.72-0.73,1.86-1.09,3.43-1.09h5.62v2.86c0,0.97-0.24,1.84-0.73,2.6c-0.49,0.76-1.15,1.36-1.97,1.8
			C454.7,266.65,453.77,266.88,452.74,266.88z M451.09,271.22c1.27,0,2.37-0.18,3.29-0.54c0.93-0.36,1.7-0.84,2.33-1.42
			c0.63-0.59,1.13-1.22,1.51-1.9h0.25v3.45h5.11v-18.01c0-2.21-0.45-3.97-1.36-5.28c-0.91-1.31-2.12-2.26-3.63-2.84
			c-1.52-0.58-3.19-0.87-5.03-0.87c-1.59,0-2.99,0.18-4.19,0.53c-1.2,0.36-2.21,0.86-3.03,1.53s-1.45,1.45-1.89,2.36
			c-0.45,0.91-0.71,1.92-0.79,3.02h5.12c0.14-0.59,0.39-1.11,0.75-1.56s0.85-0.8,1.48-1.06c0.63-0.26,1.43-0.39,2.41-0.39
			c1.47,0,2.64,0.36,3.51,1.09c0.87,0.73,1.3,1.85,1.3,3.37v2.51h-6.47c-2.95,0-5.19,0.72-6.74,2.16c-1.54,1.44-2.31,3.34-2.31,5.7
			c0,2.48,0.78,4.46,2.33,5.93C446.59,270.48,448.61,271.22,451.09,271.22z"/>
		<rect x="469.35" y="234.64" class="st0" width="5.37" height="36.16"/>
		<path class="st0" d="M482.43,244.38h-3.98v4.38h3.9v14.56c0,1.77,0.23,3.23,0.69,4.36s1.26,1.97,2.41,2.51
			c1.15,0.54,2.76,0.8,4.84,0.8c0.61,0,1.28-0.03,2.01-0.09c0.74-0.06,1.21-0.11,1.42-0.16v-4.28c-0.21,0.02-0.52,0.04-0.94,0.07
			c-0.42,0.03-0.81,0.04-1.17,0.04c-1.44,0-2.46-0.25-3.05-0.76c-0.59-0.51-0.88-1.49-0.88-2.93v-14.12h5.73v-4.38h-5.73v-6.64
			h-5.26V244.38z"/>
		<path class="st0" d="M497.87,270.8h5.37v-14.77c0-1.44,0.23-2.72,0.7-3.85c0.47-1.13,1.15-2.01,2.05-2.66
			c0.9-0.65,2-0.97,3.28-0.97c1.02,0,1.92,0.21,2.7,0.64c0.78,0.42,1.39,1.08,1.83,1.96c0.44,0.88,0.66,2,0.66,3.35v16.3h5.37
			v-17.94c0-3.04-0.81-5.31-2.42-6.81s-3.66-2.25-6.14-2.25c-1.71,0-3.11,0.3-4.19,0.9c-1.08,0.6-1.9,1.3-2.46,2.12
			c-0.56,0.81-0.94,1.53-1.12,2.16h-0.27v-14.33h-5.37V270.8z"/>
		<rect x="534.48" y="236.46" class="st0" width="5.5" height="34.35"/>
		<path class="st0" d="M546.14,270.8h5.37v-14.77c0-1.44,0.23-2.72,0.69-3.85c0.46-1.13,1.14-2.01,2.04-2.66
			c0.9-0.65,2.01-0.97,3.32-0.97c1.01,0,1.9,0.21,2.66,0.64c0.76,0.42,1.35,1.07,1.78,1.94s0.64,1.98,0.64,3.33v16.34H568v-17.97
			c0-3.04-0.79-5.3-2.38-6.79s-3.66-2.24-6.24-2.24c-1.72,0-3.11,0.29-4.16,0.86c-1.05,0.57-1.85,1.26-2.39,2.06
			c-0.54,0.8-0.92,1.55-1.14,2.25h-0.27v-4.76h-5.28V270.8z"/>
		<polygon class="st0" points="587.77,270.8 587.77,246.89 588.04,246.89 596.54,267.15 600.49,267.15 608.96,246.89 609.25,246.89 
			609.25,270.8 614.22,270.8 614.22,236.46 608.74,236.46 598.64,260.79 598.45,260.79 588.34,236.46 582.84,236.46 582.84,270.8 		
			"/>
		<path class="st0" d="M641.88,244.22h-5.7l-6.17,21.51h-0.23l-6.1-21.51h-5.95l9.12,26.79l-0.22,0.85c-0.31,1.4-0.85,2.4-1.63,3.01
			c-0.77,0.61-1.88,0.92-3.32,0.92c-0.29,0-0.64-0.02-1.05-0.05c-0.41-0.03-0.71-0.07-0.91-0.09v4.23c0.35,0.08,0.81,0.14,1.38,0.19
			c0.57,0.04,1.09,0.07,1.58,0.07c2.48,0,4.49-0.63,6.03-1.88c1.54-1.26,2.84-3.35,3.9-6.28l0.55-1.51c0.57-1.67,1.19-3.5,1.86-5.48
			c0.67-1.98,1.37-4.08,2.11-6.31s1.51-4.55,2.31-6.98C640.23,249.27,641.05,246.78,641.88,244.22z"/>
		<polygon class="st0" points="679.13,270.8 679.13,236.46 673.64,236.46 673.64,250.72 658.49,250.72 658.49,236.46 652.99,236.46 
			652.99,270.8 658.49,270.8 658.49,255.58 673.64,255.58 673.64,270.8 		"/>
		<path class="st0" d="M693.95,266.88c-1.2,0-2.28-0.33-3.22-1s-1.42-1.69-1.42-3.09c0-1.11,0.36-2.03,1.07-2.75
			c0.72-0.73,1.86-1.09,3.43-1.09h5.62v2.86c0,0.97-0.24,1.84-0.73,2.6c-0.49,0.76-1.15,1.36-1.97,1.8
			C695.9,266.65,694.98,266.88,693.95,266.88z M692.3,271.22c1.27,0,2.37-0.18,3.29-0.54c0.93-0.36,1.7-0.84,2.33-1.42
			c0.63-0.59,1.13-1.22,1.51-1.9h0.25v3.45h5.11v-18.01c0-2.21-0.45-3.97-1.36-5.28c-0.91-1.31-2.12-2.26-3.63-2.84
			c-1.52-0.58-3.19-0.87-5.03-0.87c-1.59,0-2.99,0.18-4.19,0.53s-2.21,0.86-3.03,1.53c-0.82,0.66-1.45,1.45-1.9,2.36
			c-0.45,0.91-0.71,1.92-0.79,3.02h5.12c0.14-0.59,0.39-1.11,0.75-1.56c0.35-0.45,0.85-0.8,1.48-1.06c0.63-0.26,1.43-0.39,2.41-0.39
			c1.47,0,2.64,0.36,3.51,1.09c0.87,0.73,1.3,1.85,1.3,3.37v2.51h-6.47c-2.95,0-5.19,0.72-6.74,2.16c-1.54,1.44-2.31,3.34-2.31,5.7
			c0,2.48,0.78,4.46,2.33,5.93C687.8,270.48,689.82,271.22,692.3,271.22z"/>
		<path class="st0" d="M710.39,270.8h5.37v-14.77c0-1.44,0.23-2.72,0.69-3.85c0.46-1.13,1.14-2.01,2.04-2.66
			c0.9-0.65,2.01-0.97,3.33-0.97c1.01,0,1.9,0.21,2.66,0.64c0.76,0.42,1.35,1.07,1.78,1.94s0.64,1.98,0.64,3.33v16.34h5.37v-17.97
			c0-3.04-0.79-5.3-2.38-6.79c-1.58-1.49-3.66-2.24-6.24-2.24c-1.72,0-3.11,0.29-4.16,0.86c-1.05,0.57-1.85,1.26-2.39,2.06
			c-0.54,0.8-0.92,1.55-1.14,2.25h-0.27v-4.76h-5.28V270.8z"/>
		<path class="st0" d="M747.92,248.43c1.19,0,2.24,0.29,3.16,0.86c0.92,0.57,1.64,1.37,2.17,2.39c0.53,1.02,0.8,2.22,0.8,3.6v4.02
			c0,1.51-0.25,2.8-0.75,3.89c-0.5,1.09-1.2,1.93-2.1,2.51c-0.9,0.59-1.95,0.88-3.17,0.88c-1.22,0-2.27-0.3-3.16-0.9
			c-0.89-0.6-1.57-1.47-2.05-2.61c-0.48-1.14-0.72-2.52-0.72-4.13v-2.92c0-1.61,0.24-2.97,0.71-4.1c0.47-1.13,1.14-1.99,2.01-2.59
			C745.69,248.73,746.73,248.43,747.92,248.43z M746.43,243.84c-1.96,0-3.68,0.46-5.14,1.38c-1.47,0.92-2.61,2.23-3.42,3.93
			c-0.81,1.69-1.22,3.72-1.22,6.07v4.56c0,2.33,0.4,4.35,1.2,6.06c0.8,1.71,1.92,3.02,3.38,3.94c1.45,0.92,3.16,1.38,5.12,1.38
			c0.93,0,1.81-0.11,2.65-0.34c0.83-0.22,1.59-0.54,2.26-0.95c0.68-0.41,1.25-0.89,1.71-1.46c0.46-0.56,0.79-1.18,0.98-1.86h0.26
			v4.24h5.23v-36.16h-5.38v13.56h-0.26c-0.33-0.9-0.85-1.67-1.55-2.33c-0.7-0.65-1.55-1.16-2.53-1.51
			C748.72,244.02,747.63,243.84,746.43,243.84z"/>
		<path class="st0" d="M764.52,251.94c0,1.73,0.38,3.09,1.15,4.07c0.76,0.98,1.79,1.73,3.08,2.24c1.29,0.51,2.71,0.93,4.26,1.26
			c1.16,0.23,2.22,0.47,3.18,0.72c0.97,0.25,1.74,0.62,2.32,1.09c0.58,0.48,0.88,1.18,0.88,2.1c0,0.69-0.18,1.31-0.53,1.88
			c-0.35,0.57-0.9,1.02-1.65,1.36c-0.75,0.34-1.72,0.51-2.93,0.51c-1.08,0-1.97-0.15-2.68-0.44c-0.71-0.29-1.25-0.7-1.62-1.23
			c-0.37-0.53-0.61-1.15-0.72-1.87h-5.23c0,1.59,0.41,2.94,1.23,4.08c0.82,1.13,1.98,2,3.47,2.61c1.5,0.61,3.26,0.92,5.29,0.92
			c2.16,0,4.04-0.33,5.62-1c1.58-0.67,2.81-1.63,3.67-2.9c0.86-1.27,1.29-2.79,1.29-4.58c0-1.68-0.37-3.02-1.12-4
			c-0.75-0.98-1.76-1.74-3.04-2.26c-1.28-0.52-2.71-0.92-4.31-1.2c-0.71-0.13-1.44-0.26-2.2-0.41c-0.76-0.15-1.46-0.35-2.11-0.61
			c-0.65-0.26-1.17-0.61-1.57-1.06c-0.4-0.45-0.6-1.05-0.6-1.79c0-1.14,0.42-2.02,1.27-2.66c0.85-0.63,1.96-0.95,3.34-0.95
			c1.04,0,1.9,0.17,2.58,0.52c0.68,0.35,1.2,0.79,1.57,1.33c0.36,0.54,0.57,1.1,0.61,1.69h4.85c0-1.58-0.4-2.93-1.19-4.06
			c-0.8-1.13-1.9-2.01-3.32-2.62c-1.42-0.62-3.07-0.92-4.95-0.92c-1.73,0-3.35,0.28-4.86,0.84c-1.51,0.56-2.73,1.44-3.66,2.64
			S764.52,250.01,764.52,251.94z"/>
	</g>
</g>
</svg>
