<svg xmlns="http://www.w3.org/2000/svg" xmlns:xlink="http://www.w3.org/1999/xlink" width="52" height="52" viewBox="0 0 52 52">
  <defs>
    <clipPath id="clip-path">
      <rect id="Rectangle_2435" data-name="Rectangle 2435" width="51.389" height="50.831" fill="#fff"/>
    </clipPath>
    <clipPath id="clip-Nutrition_Icon">
      <rect width="52" height="52"/>
    </clipPath>
  </defs>
  <g id="Nutrition_Icon" data-name="Nutrition Icon" clip-path="url(#clip-Nutrition_Icon)">
    <g id="Group_3407" data-name="Group 3407" transform="translate(0 1)">
      <g id="Group_2302" data-name="Group 2302" clip-path="url(#clip-path)">
        <path id="Path_21864" data-name="Path 21864" d="M1.08,43.893a1.216,1.216,0,0,0,.432.859l.051.041c1.526,1.17,5.167,1.587,8.072,1.587.312,0,.628,0,.941-.014a1.22,1.22,0,1,0-.072-2.44c-.289.009-.582.013-.869.013A17.658,17.658,0,0,1,3.5,43.1l-.97-29.857q.463.175,1.01.326a26.331,26.331,0,0,0,6.7.771c.687,0,1.363-.02,2.021-.06l-.481,15.81a1.221,1.221,0,1,0,2.44.074l.491-16.135a19.078,19.078,0,0,0,2.227-.459q.549-.151,1.013-.327l-.353,11.312a1.221,1.221,0,0,0,2.44.076l.433-13.875q0-.059,0-.119c0-1.037-.755-1.876-2.244-2.5a1.221,1.221,0,0,0-.937,2.254,3.989,3.989,0,0,1,.506.248,9.766,9.766,0,0,1-3.013.9l.313-10.282a1.221,1.221,0,1,0-2.44-.074L12.477,7c-.73-.049-1.48-.074-2.242-.074a26.325,26.325,0,0,0-6.7.771C1.2,8.343.008,9.326,0,10.619v.021q0,.052,0,.1L1.078,43.85c0,.015,0,.028,0,.043M10.235,9.369c.739,0,1.465.025,2.168.075l-.072,2.38c-.648.044-1.347.069-2.1.069-4.079,0-6.7-.737-7.57-1.262.873-.525,3.491-1.262,7.57-1.262M5.6,29.178a1.221,1.221,0,1,1,1.726-1.726l.443.444a1.22,1.22,0,1,1-1.726,1.726ZM28.18,13.856A14.863,14.863,0,0,1,29.79,9.621c1.635-3.293,1.917-4.444.5-5.231a1.221,1.221,0,0,1,1.183-2.135,3.891,3.891,0,0,1,2.118,4.206,14.865,14.865,0,0,1-1.612,4.246c-1.629,3.282-1.911,4.429-.505,5.208a1.221,1.221,0,1,1-1.183,2.135,3.877,3.877,0,0,1-2.107-4.194M17.008,48.8a1.221,1.221,0,0,1-.93,1.454,30.411,30.411,0,0,1-6.246.579c-3.2,0-7.207-.41-8.858-1.559a1.221,1.221,0,0,1,1.395-2c.781.544,3.662,1.121,7.464,1.121a27.923,27.923,0,0,0,5.722-.522,1.221,1.221,0,0,1,1.454.93M50.475,34.115a1.22,1.22,0,0,0-1.04-.274q-1.4.281-2.867.518a5.08,5.08,0,0,0-.791-1.02l-2.149-2.149a11.112,11.112,0,0,0,5.282-3.645,10.528,10.528,0,0,0,.976-12.179,1.219,1.219,0,0,0-.618-.5,10.529,10.529,0,0,0-11.69,3.552,10.607,10.607,0,0,0-1.413,11.408l-.253.314a1.22,1.22,0,0,0,1.9,1.531l.253-.314a9.783,9.783,0,0,0,2.593.313l3.092,3.092a103.168,103.168,0,0,1-12.927.791A103.192,103.192,0,0,1,17.9,34.765l11.03-11.03a2.7,2.7,0,0,1,3.193-.45,1.221,1.221,0,1,0,1.175-2.14,5.153,5.153,0,0,0-6.094.864L15.871,33.339a5.082,5.082,0,0,0-.79,1.02q-1.466-.237-2.867-.518a1.221,1.221,0,0,0-1.46,1.264c.359,6.5,5.7,11.917,13.078,14.047a1.221,1.221,0,0,0,1.132,1.678H36.684a1.221,1.221,0,0,0,1.132-1.678c7.381-2.13,12.72-7.545,13.079-14.047a1.221,1.221,0,0,0-.42-.99M39.807,29.2l4.89-6.073a1.221,1.221,0,0,0-1.9-1.531l-4.89,6.073a8.309,8.309,0,0,1,1.574-7.715,8.14,8.14,0,0,1,8.556-2.919,8.14,8.14,0,0,1-1.027,8.982,8.478,8.478,0,0,1-5.821,3.19c-.091,0-1.012.029-1.381-.007M43.172,43.88a20.868,20.868,0,0,1-12.347,3.8,20.868,20.868,0,0,1-12.347-3.8,12.561,12.561,0,0,1-5.071-7.329q1.075.191,2.184.358l.065.01A103.658,103.658,0,0,0,30.825,38,103.7,103.7,0,0,0,46,36.919l.063-.009q1.109-.167,2.185-.358a12.561,12.561,0,0,1-5.072,7.329M8.765,24.808a1.221,1.221,0,0,1-1.726-1.727l.444-.443a1.221,1.221,0,1,1,1.726,1.727ZM5.616,19.487l-.443-.443A1.221,1.221,0,0,1,6.9,17.317l.443.443a1.221,1.221,0,1,1-1.726,1.726" transform="translate(0 0)" fill="#fff"/>
      </g>
    </g>
  </g>
</svg>
