<svg xmlns="http://www.w3.org/2000/svg" xmlns:xlink="http://www.w3.org/1999/xlink" width="149.156" height="34.714" viewBox="0 0 149.156 34.714">
  <defs>
    <clipPath id="clip-path">
      <rect id="Rectangle_2830" data-name="Rectangle 2830" width="149.156" height="34.714" fill="#fff"/>
    </clipPath>
  </defs>
  <g id="Group_3323" data-name="Group 3323" transform="translate(0 0)">
    <g id="Group_3314" data-name="Group 3314" transform="translate(0 0)" clip-path="url(#clip-path)">
      <path id="Path_23562" data-name="Path 23562" d="M36.368,34.791a.716.716,0,0,1-.38.036q-2.394,0-4.789,0c-.288,0-.577-.005-.864,0a.282.282,0,0,1-.3-.2c-.275-.665-.558-1.328-.837-1.991q-.773-1.84-1.548-3.682c-.044-.106-.067-.231-.192-.287-.126.022-.163.135-.221.219a16.256,16.256,0,0,1-1.224,1.6,14.9,14.9,0,0,1-4.458,3.477,14.722,14.722,0,0,1-3.967,1.355,14.413,14.413,0,0,1-3.654.223A14.878,14.878,0,0,1,.415,24.253,14.78,14.78,0,0,1,0,20.508a14.463,14.463,0,0,1,1.038-5.3A14.747,14.747,0,0,1,5.889,8.848,14.778,14.778,0,0,1,16.1,5.9a14.6,14.6,0,0,1,5.881,1.771,14.79,14.79,0,0,1,5.4,5.075,7.248,7.248,0,0,1,.422.793c1.055,2.25,1.953,4.564,2.874,6.87Q32.788,25.7,34.907,31q.688,1.72,1.373,3.441a.553.553,0,0,1,.088.351M5.649,20.715a9.2,9.2,0,1,0,9.1-9.2,9.2,9.2,0,0,0-9.1,9.2" transform="translate(0 -0.896)" fill="#fff" fill-rule="evenodd"/>
      <path id="Path_23563" data-name="Path 23563" d="M41.132,20.835a14.874,14.874,0,1,1,4.354,10.287,14.6,14.6,0,0,1-4.354-10.287m24.057-.2a9.192,9.192,0,1,0-9.24,9.174,9.193,9.193,0,0,0,9.24-9.174" transform="translate(-6.307 -0.883)" fill="#fff" fill-rule="evenodd"/>
      <path id="Path_23564" data-name="Path 23564" d="M43.163,9.082a.659.659,0,0,1-.075.117q-.822.726-1.648,1.45a.54.54,0,0,1-.108.052c-.051-.1-.1-.2-.146-.291a3.98,3.98,0,0,0-2.777-2.2,4.936,4.936,0,0,0-1.785-.063,3.9,3.9,0,0,0-3.053,2.189c-.053.107-.106.213-.169.343a.784.784,0,0,1-.157-.089q-.765-.709-1.526-1.424c-.034-.033-.06-.072-.1-.123a1.1,1.1,0,0,1,.074-.157A7.033,7.033,0,0,1,35.2,6.093a6.236,6.236,0,0,1,2.156-.34,6.643,6.643,0,0,1,4.082,1.482,8.083,8.083,0,0,1,1.6,1.649c.041.058.075.12.124.2" transform="translate(-4.848 -0.882)" fill="#fff" fill-rule="evenodd"/>
      <path id="Path_23565" data-name="Path 23565" d="M82.062,18.6,88.61,0h4.545l6.577,18.6v1.157H95.47l-1.637-5.024H87.17l-1.58,5.024H82.062Zm6.04-6.888h4.743L90.474,4.431h-.057Z" transform="translate(-12.583 0)" fill="#fff"/>
      <path id="Path_23566" data-name="Path 23566" d="M103.858,19.578V16.529h1.3a5.386,5.386,0,0,0,3.641,1.242c1.665,0,2.539-.451,2.539-1.383,0-.9-.536-1.326-2.625-1.58-3.247-.4-4.968-1.61-4.968-4.517,0-2.992,2.23-4.656,5.872-4.656a9.671,9.671,0,0,1,4.657,1.015V9.642h-1.242a5.753,5.753,0,0,0-3.387-.987c-1.609,0-2.231.48-2.231,1.326,0,.762.734,1.157,2.767,1.411,3.529.451,5,1.608,5,4.6,0,2.907-1.891,4.8-6.182,4.8a9.992,9.992,0,0,1-5.137-1.213" transform="translate(-15.908 -0.864)" fill="#fff"/>
      <path id="Path_23567" data-name="Path 23567" d="M117.471,5.118h1.75V1.167h4.122V5.118h2.991V7.885h-2.991v7.591c0,1.412.564,1.808,1.919,1.808h1.129v2.483a8.2,8.2,0,0,1-2.6.4c-2.85,0-4.573-1.129-4.573-4.205V7.885h-1.75Z" transform="translate(-18.013 -0.179)" fill="#fff"/>
      <path id="Path_23568" data-name="Path 23568" d="M132.414,14.12c.2,2.963,1.609,3.782,3.894,3.782a6.494,6.494,0,0,0,3.924-1.241h1.27V19.37a10.81,10.81,0,0,1-5.813,1.439c-4.856,0-7.51-2.879-7.51-7.536,0-4.77,3.106-7.705,7.226-7.705,4.347,0,6.662,2.4,6.662,7.282,0,.507-.056,1.129-.056,1.27Zm.057-2.484H138c-.085-2.625-.989-3.472-2.6-3.472-1.438,0-2.626.706-2.935,3.472" transform="translate(-19.655 -0.854)" fill="#fff"/>
      <path id="Path_23569" data-name="Path 23569" d="M150.728,9.93v10.7h-4.121V5.809H149.4c.705,0,1.129.31,1.271,1.778a5.61,5.61,0,0,1,4.121-1.92,3.17,3.17,0,0,1,.9.142V9.055h-.707a9.288,9.288,0,0,0-4.262.875" transform="translate(-22.481 -0.869)" fill="#fff"/>
      <path id="Path_23570" data-name="Path 23570" d="M87.256,39.187c-4.175,0-5.194-2.438-5.194-5s1.035-5.017,5.178-5.017c4.206,0,5.21,2.452,5.21,5.033,0,2.549-1,4.987-5.193,4.987m0-7.775c-2.421,0-2.421.031-2.421,2.772,0,1.721.445,2.773,2.405,2.773,2.454,0,2.454-.017,2.454-2.757,0-1.736-.43-2.788-2.438-2.788" transform="translate(-12.583 -4.473)" fill="#fff"/>
      <path id="Path_23571" data-name="Path 23571" d="M101.834,36.039h-1.45V39.1c-2.262,0-2.74,0-2.74-1.737V31.037c0-1.72.4-1.72,2.2-1.72h1.847c4.1,0,4.62,1.879,4.62,3.345,0,1.386-.35,3.377-4.476,3.377m-.063-4.508h-1.387v2.326h1.4c1.753,0,1.753,0,1.753-1.195,0-.511-.032-1.131-1.769-1.131" transform="translate(-14.973 -4.496)" fill="#fff"/>
      <path id="Path_23572" data-name="Path 23572" d="M116.362,31.547h-.94V39.1c-2.326,0-2.693-.095-2.693-1.72V31.547h-2.836c0-2.088.16-2.23,1.769-2.23h6.564c0,2.039-.19,2.23-1.864,2.23" transform="translate(-16.851 -4.496)" fill="#fff"/>
      <path id="Path_23573" data-name="Path 23573" d="M122.482,37.393V29.317c2.311,0,2.741.063,2.741,1.64V39.1c-2.342,0-2.741-.1-2.741-1.705" transform="translate(-18.781 -4.496)" fill="#fff"/>
      <path id="Path_23574" data-name="Path 23574" d="M134.141,39.125c-4.063,0-5.034-2.358-5.034-4.922s.988-4.923,5.018-4.923h3.235c0,1.577.222,2.246-1.832,2.246h-1.387c-2.262,0-2.262.032-2.262,2.677,0,1.736.414,2.692,2.246,2.692h1.306c1.721,0,1.929.223,1.929,2.23Z" transform="translate(-19.797 -4.49)" fill="#fff"/>
      <path id="Path_23575" data-name="Path 23575" d="M150.206,39.076c-1.306-.064-1.4-.765-1.786-1.705h-4.062c-.781,2.024-1,1.72-3.585,1.72L144.31,30.6c.478-1.179.7-1.322,2.072-1.322h1.465l4.175,9.814c-1.226,0-1.562,0-1.815-.015m-3.824-6.963-1.227,3.171h2.469Z" transform="translate(-21.586 -4.49)" fill="#fff"/>
      <path id="Path_23576" data-name="Path 23576" d="M158.536,39.1c-1.482,0-2.087.032-2.087-1.705V29.315a5.06,5.06,0,0,1,2.311.255c.287.223.4.621.4,1.466V36.9h1.9c2.072,0,1.864.637,1.864,2.2Z" transform="translate(-23.99 -4.494)" fill="#fff"/>
      <path id="Path_23577" data-name="Path 23577" d="M170.113,39.109h-3.807c0-1.959.111-2.278,1.848-2.278h1.911c1.832,0,1.832-.048,1.832-.8,0-.67-1.052-.8-1.593-.892-1.816-.367-4.334-.621-4.334-2.741,0-1.975,1.515-3.122,4.445-3.122h3.84c0,1.975-.175,2.262-1.832,2.262h-2.072c-1.657,0-1.657,0-1.657.859,0,.207.207.446.621.558,1.991.494,5.29.573,5.29,3.075,0,1.561-1.179,3.075-4.493,3.075" transform="translate(-25.45 -4.49)" fill="#fff"/>
    </g>
  </g>
</svg>
