<svg xmlns="http://www.w3.org/2000/svg" xmlns:xlink="http://www.w3.org/1999/xlink" width="52" height="52" viewBox="0 0 52 52">
  <defs>
    <clipPath id="clip-path">
      <rect id="Rectangle_2896" data-name="Rectangle 2896" width="52.158" height="51.606" fill="none"/>
    </clipPath>
    <clipPath id="clip-PersonalCare_Icon">
      <rect width="52" height="52"/>
    </clipPath>
  </defs>
  <g id="PersonalCare_Icon" data-name="PersonalCare Icon" clip-path="url(#clip-PersonalCare_Icon)">
    <g id="Group_3416" data-name="Group 3416" transform="translate(0 0.394)">
      <g id="Group_3415" data-name="Group 3415" clip-path="url(#clip-path)">
        <path id="Path_23634" data-name="Path 23634" d="M26.874,11.831c2.1,0,4.22-1.625,4.22-4.73A10.059,10.059,0,0,0,27.67.288a1.245,1.245,0,0,0-1.591,0A10.059,10.059,0,0,0,22.655,7.1c0,3.105,2.123,4.73,4.22,4.73m0-8.812A7.432,7.432,0,0,1,28.6,7.1c0,1.653-.931,2.239-1.729,2.239S25.145,8.754,25.145,7.1a7.431,7.431,0,0,1,1.729-4.082M41.582,39.78a4.057,4.057,0,1,0-4.057,4.057,4.062,4.062,0,0,0,4.057-4.057m-5.624,0a1.567,1.567,0,1,1,1.567,1.567,1.568,1.568,0,0,1-1.567-1.567m-17.31-1.393A1.245,1.245,0,0,1,17.475,39.7c-1.187.067-2.42.1-3.665.1s-2.478-.034-3.665-.1a1.245,1.245,0,1,1,.14-2.486,64.4,64.4,0,0,0,7.049,0,1.247,1.247,0,0,1,1.314,1.173M52.158,29.73V44.368c0,.012,0,.025,0,.037,0,1.55-1.7,2.565-5.526,3.29a62.745,62.745,0,0,1-11.127.878c-1.568,0-3.119-.044-4.61-.131a1.245,1.245,0,1,1,.145-2.486c1.443.084,2.945.127,4.465.127,8.352,0,13.238-1.223,14.163-1.925V32.179a18.932,18.932,0,0,1-3.035.794,62.729,62.729,0,0,1-11.127.878c-1.566,0-3.117-.044-4.61-.131a1.245,1.245,0,1,1,.145-2.486c1.444.084,2.947.127,4.465.127,8.353,0,13.239-1.223,14.163-1.925V27.373a18.917,18.917,0,0,1-3.035.794,62.732,62.732,0,0,1-11.127.878c-1.566,0-3.117-.044-4.61-.131a1.245,1.245,0,1,1,.145-2.486c1.444.084,2.947.127,4.465.127,7.437,0,12.126-.97,13.717-1.678C47.631,24.169,42.942,23.2,35.5,23.2c-1.52,0-3.022.043-4.465.127a1.245,1.245,0,1,1-.145-2.486c1.491-.087,3.042-.131,4.61-.131a62.731,62.731,0,0,1,11.127.878c3.822.725,5.526,1.74,5.526,3.29q0,.061,0,.12,0,.043,0,.086v4.563c0,.012,0,.025,0,.037v.047m-38.347,5.5A4.057,4.057,0,1,0,9.753,31.17a4.062,4.062,0,0,0,4.057,4.057m0-5.624a1.567,1.567,0,1,1-1.567,1.567A1.569,1.569,0,0,1,13.81,29.6m8.975-16.295H19.244V9.767a5.443,5.443,0,0,0-4.188-5.29V2.491h5.756a1.245,1.245,0,1,0,0-2.49h-6.94c-.041,0-.082,0-.122,0H10.5a1.245,1.245,0,1,0,0,2.49h2.064V4.477a5.443,5.443,0,0,0-4.188,5.29v3.541H4.835A4.841,4.841,0,0,0,0,18.144V47.977c0,1.789,2.508,2.494,4.693,2.909a51.4,51.4,0,0,0,9.117.72,51.4,51.4,0,0,0,9.117-.72c2.185-.415,4.693-1.12,4.693-2.909V18.144a4.841,4.841,0,0,0-4.835-4.835M10.867,9.767a2.943,2.943,0,1,1,5.886,0v3.541H10.867ZM25.131,47.651c-.92.564-4.789,1.464-11.32,1.464s-10.4-.9-11.32-1.464V43.589a17.038,17.038,0,0,0,2.2.546,51.383,51.383,0,0,0,9.117.72,51.385,51.385,0,0,0,9.117-.72,17.027,17.027,0,0,0,2.2-.546Zm0-6.751c-.92.564-4.789,1.464-11.32,1.464s-10.4-.9-11.32-1.464V23.647a17.009,17.009,0,0,0,2.2.546,51.4,51.4,0,0,0,9.117.72,51.4,51.4,0,0,0,9.117-.72,17,17,0,0,0,2.2-.546V40.9Zm0-19.943c-.92.564-4.789,1.464-11.32,1.464s-10.4-.9-11.32-1.464V18.143A2.347,2.347,0,0,1,4.835,15.8H22.786a2.348,2.348,0,0,1,2.345,2.345v2.814Z" transform="translate(0 0)" fill="#fff"/>
      </g>
    </g>
  </g>
</svg>
