<svg xmlns="http://www.w3.org/2000/svg" xmlns:xlink="http://www.w3.org/1999/xlink" width="116.964" height="52.797" viewBox="0 0 116.964 52.797">
  <defs>
    <clipPath id="clip-path">
      <rect id="Rectangle_2811" data-name="Rectangle 2811" width="116.964" height="52.797" fill="#fff"/>
    </clipPath>
  </defs>
  <g id="Group_3355" data-name="Group 3355" transform="translate(0 0)">
    <g id="Group_3279" data-name="Group 3279" transform="translate(0 0)" clip-path="url(#clip-path)">
      <path id="Path_23505" data-name="Path 23505" d="M5.006,47.71H3.274v3.654c-2.7,0-3.274,0-3.274-2.075V41.734c0-2.055.476-2.055,2.626-2.055H4.835c4.89,0,5.518,2.245,5.518,4,0,1.656-.418,4.035-5.347,4.035m-.077-5.385H3.274V45.1H4.948c2.093,0,2.093,0,2.093-1.427,0-.608-.038-1.35-2.112-1.35" transform="translate(0 -10.452)" fill="#fff"/>
      <path id="Path_23506" data-name="Path 23506" d="M27.853,51.33c-1.447-.113-1.427-1.028-1.427-2.055V46.686H21.953V51.35c-2.817,0-3.273-.114-3.273-2.075V39.626c2.778,0,3.273.115,3.273,2.037v2.416h4.473V39.626c2.8,0,3.292.1,3.292,2.037V51.35c-1.179,0-1.56,0-1.865-.02" transform="translate(-4.921 -10.438)" fill="#fff"/>
      <path id="Path_23507" data-name="Path 23507" d="M49.4,51.33c-1.561-.076-1.675-.913-2.133-2.035H42.416c-.932,2.417-1.2,2.055-4.282,2.055L42.36,41.206c.572-1.408.837-1.58,2.474-1.58h1.751L51.571,51.35c-1.466,0-1.865,0-2.169-.02m-4.568-8.317L43.369,46.8h2.949Z" transform="translate(-10.045 -10.438)" fill="#fff"/>
      <path id="Path_23508" data-name="Path 23508" d="M69.158,51.365c-1.446,0-2.056-.152-2.874-1.352l-2.131-3.1c-.438-.666-.591-2.132.988-2.132h.7c1.39,0,1.39,0,1.39-1.257,0-.495-.038-1.2-2.094-1.2H63.524v9.039c-2.834,0-3.273,0-3.273-2.075V41.735c0-2.055.648-2.055,2.645-2.055h2.132c4.815,0,5.5,2.188,5.5,3.843a2.935,2.935,0,0,1-3.2,3.236l4.3,4.606Z" transform="translate(-15.871 -10.452)" fill="#fff"/>
      <path id="Path_23509" data-name="Path 23509" d="M92.972,51.329c-1.407-.113-1.407-.989-1.407-2V44.478l-2.171,5.311c-.456,1.142-.664,1.561-2.132,1.561H85.835l-2.893-6.872v6.872c-2.76,0-3.237-.1-3.237-2.017V39.625h1.713c1.79,0,2.322-.133,3.065,1.695l2.778,6.908,2.8-6.928c.61-1.5.857-1.676,2.8-1.676h1.96V51.349c-1.161,0-1.542,0-1.847-.02" transform="translate(-20.996 -10.437)" fill="#fff"/>
      <path id="Path_23510" data-name="Path 23510" d="M115.441,51.33c-1.562-.076-1.675-.913-2.131-2.035h-4.854c-.933,2.417-1.2,2.055-4.284,2.055L108.4,41.206c.572-1.408.837-1.58,2.476-1.58h1.751L117.61,51.35c-1.467,0-1.864,0-2.169-.02m-4.568-8.317L109.408,46.8h2.95Z" transform="translate(-27.441 -10.438)" fill="#fff"/>
      <path id="Path_23511" data-name="Path 23511" d="M130.754,51.388c-4.855,0-6.014-2.817-6.014-5.88s1.179-5.882,5.995-5.882H134.6c0,1.886.266,2.685-2.191,2.685h-1.654c-2.7,0-2.7.038-2.7,3.2,0,2.074.5,3.215,2.685,3.215h1.56c2.056,0,2.3.267,2.3,2.665Z" transform="translate(-32.859 -10.438)" fill="#fff"/>
      <path id="Path_23512" data-name="Path 23512" d="M148.98,47.734V51.35c-.706,0-2.266.114-2.836-.3-.362-.246-.533-.723-.533-1.75V47.734l-4.855-8.108c2.17,0,2.837,0,3.312.228a2.823,2.823,0,0,1,1.162,1.37l2.093,3.941,2.512-4.436a1.968,1.968,0,0,1,2-1.064c.379-.039.911-.039,2.205-.039Z" transform="translate(-37.078 -10.438)" fill="#fff"/>
      <path id="Path_23513" data-name="Path 23513" d="M.283,22.008,8.033,0h5.376l7.78,22.008v1.369H16.147L14.21,17.432H6.328L4.462,23.377H.283Zm7.146-8.147h5.611L10.233,5.244h-.066Z" transform="translate(-0.075 0)" fill="#fff"/>
      <path id="Path_23514" data-name="Path 23514" d="M30.583,24.155v-3.6h1.533a6.378,6.378,0,0,0,4.308,1.472c1.978,0,3.009-.536,3.009-1.637,0-1.066-.635-1.573-3.108-1.875-3.841-.464-5.877-1.9-5.877-5.341,0-3.541,2.64-5.511,6.946-5.511a11.45,11.45,0,0,1,5.507,1.2V12.4H41.436a6.807,6.807,0,0,0-4-1.164c-1.913,0-2.641.565-2.641,1.564,0,.9.865,1.373,3.272,1.674,4.171.532,5.911,1.9,5.911,5.443,0,3.441-2.237,5.675-7.314,5.675a11.772,11.772,0,0,1-6.077-1.439" transform="translate(-8.021 -2.018)" fill="#fff"/>
      <path id="Path_23515" data-name="Path 23515" d="M49.571,6.263h2.07V1.585h4.876V6.263h3.542v3.27H56.517v8.986c0,1.67.664,2.135,2.266,2.135h1.339v2.94a9.6,9.6,0,0,1-3.072.467c-3.371,0-5.409-1.337-5.409-4.974V9.533h-2.07Z" transform="translate(-13.058 -0.417)" fill="#fff"/>
      <path id="Path_23516" data-name="Path 23516" d="M69.594,17.692c.236,3.5,1.9,4.475,4.609,4.475a7.7,7.7,0,0,0,4.641-1.474h1.5V23.9a12.787,12.787,0,0,1-6.876,1.7c-5.748,0-8.885-3.407-8.885-8.917,0-5.644,3.676-9.117,8.541-9.117,5.148,0,7.89,2.84,7.89,8.614,0,.6-.069,1.337-.069,1.507Zm.066-2.941H76.2c-.1-3.11-1.173-4.106-3.077-4.106-1.7,0-3.094.833-3.466,4.106" transform="translate(-17.013 -1.994)" fill="#fff"/>
      <path id="Path_23517" data-name="Path 23517" d="M94.965,12.751V25.407H90.09V7.876H93.4c.829,0,1.332.365,1.5,2.1a6.644,6.644,0,0,1,4.878-2.272,3.61,3.61,0,0,1,1.07.168v3.841h-.836a10.989,10.989,0,0,0-5.045,1.034" transform="translate(-23.732 -2.03)" fill="#fff"/>
      <path id="Path_23518" data-name="Path 23518" d="M1.264,64.048H2.822l1.235,4.319,1.236-4.319H6.859v5.531h-.9V65.042H5.834l-1.307,4.31H3.589l-1.308-4.31H2.159v4.537h-.9Z" transform="translate(-0.333 -16.872)" fill="#fff"/>
      <path id="Path_23519" data-name="Path 23519" d="M13.73,66.077v4.036h-.872v-.25a2.667,2.667,0,0,1-1.089.339c-1.154,0-1.4-.6-1.4-2.018V66.077h.881v2.115c0,.9.055,1.227.686,1.227a2.4,2.4,0,0,0,.92-.209V66.077Z" transform="translate(-2.732 -17.406)" fill="#fff"/>
      <path id="Path_23520" data-name="Path 23520" d="M19.028,66.109,19,66.8s-.638-.065-.945-.065c-.84,0-1.033.34-1.033,1.268,0,1.033.17,1.381,1.042,1.381.306,0,.944-.065.944-.065l.024.7a9.89,9.89,0,0,1-1.227.145c-1.243,0-1.672-.614-1.672-2.165,0-1.444.485-2.049,1.688-2.049a8.723,8.723,0,0,1,1.212.152" transform="translate(-4.249 -17.374)" fill="#fff"/>
      <path id="Path_23521" data-name="Path 23521" d="M21.209,69.513V63.8h.88v1.889a2.986,2.986,0,0,1,1.106-.3c1.123,0,1.4.638,1.4,1.962v2.164h-.88v-2.14c0-.807-.1-1.2-.718-1.2a2.905,2.905,0,0,0-.9.178v3.165Z" transform="translate(-5.587 -16.805)" fill="#fff"/>
      <path id="Path_23522" data-name="Path 23522" d="M29.737,64.048H31.3l1.235,4.319,1.235-4.319h1.567v5.531h-.9V65.042h-.121L33,69.352h-.936l-1.309-4.31h-.12v4.537h-.9Z" transform="translate(-7.833 -16.872)" fill="#fff"/>
      <path id="Path_23523" data-name="Path 23523" d="M42.172,68.039c0,1.341-.412,2.132-1.8,2.132s-1.8-.791-1.8-2.132c0-1.307.452-2.082,1.8-2.082s1.8.775,1.8,2.082m-.888,0c0-.937-.2-1.341-.913-1.341s-.912.4-.912,1.341.161,1.388.912,1.388.913-.452.913-1.388" transform="translate(-10.161 -17.374)" fill="#fff"/>
      <path id="Path_23524" data-name="Path 23524" d="M44.636,66.045h.871v.484a4.523,4.523,0,0,1,1.373-.572v.879a7.1,7.1,0,0,0-1.364.428v2.817h-.88Z" transform="translate(-11.758 -17.374)" fill="#fff"/>
      <path id="Path_23525" data-name="Path 23525" d="M51.577,69.331l.015.653a9.988,9.988,0,0,1-1.631.186c-1.212,0-1.679-.645-1.679-2.066,0-1.478.636-2.147,1.752-2.147s1.695.588,1.695,1.848l-.057.629h-2.5c.007.646.25.97.921.97.637,0,1.486-.073,1.486-.073m-.711-1.575c0-.807-.243-1.073-.832-1.073s-.864.3-.872,1.073Z" transform="translate(-12.719 -17.374)" fill="#fff"/>
      <path id="Path_23526" data-name="Path 23526" d="M55.933,64.048h4.036v.8H58.411v4.731h-.9V64.848H55.933Z" transform="translate(-14.734 -16.872)" fill="#fff"/>
      <path id="Path_23527" data-name="Path 23527" d="M62.272,69.513V63.8h.88v1.889a2.98,2.98,0,0,1,1.106-.3c1.123,0,1.4.638,1.4,1.962v2.164h-.88v-2.14c0-.807-.1-1.2-.718-1.2a2.9,2.9,0,0,0-.9.178v3.165Z" transform="translate(-16.404 -16.805)" fill="#fff"/>
      <path id="Path_23528" data-name="Path 23528" d="M71.143,69.129a.349.349,0,0,0,.356.372l-.025.67a1.529,1.529,0,0,1-1.073-.3,3.562,3.562,0,0,1-1.3.3c-.8,0-1.2-.445-1.2-1.283,0-.857.469-1.147,1.332-1.221l1.042-.088v-.289c0-.446-.194-.581-.589-.581-.541,0-1.518.08-1.518.08l-.032-.622a8.351,8.351,0,0,1,1.623-.209c.985,0,1.388.411,1.388,1.332Zm-1.808-.84c-.371.033-.557.211-.557.575s.152.589.492.589a3.84,3.84,0,0,0,1-.177V68.2Z" transform="translate(-17.885 -17.374)" fill="#fff"/>
      <path id="Path_23529" data-name="Path 23529" d="M73.8,70.082V66.045h.873v.25a2.685,2.685,0,0,1,1.114-.339c1.123,0,1.4.638,1.4,1.962v2.164h-.872v-2.14c0-.807-.1-1.2-.718-1.2a2.423,2.423,0,0,0-.912.211v3.132Z" transform="translate(-19.44 -17.374)" fill="#fff"/>
      <path id="Path_23530" data-name="Path 23530" d="M82.327,64.048h1.558l1.235,4.319,1.234-4.319h1.567v5.531h-.9V65.042H86.9l-1.308,4.31h-.936l-1.309-4.31h-.12v4.537h-.9Z" transform="translate(-21.687 -16.872)" fill="#fff"/>
      <path id="Path_23531" data-name="Path 23531" d="M94.455,69.331l.015.653a9.988,9.988,0,0,1-1.631.186c-1.211,0-1.679-.645-1.679-2.066,0-1.478.637-2.147,1.752-2.147,1.131,0,1.7.588,1.7,1.848l-.057.629h-2.5c.008.646.25.97.921.97.637,0,1.486-.073,1.486-.073m-.711-1.575c0-.807-.242-1.073-.832-1.073s-.864.3-.872,1.073Z" transform="translate(-24.014 -17.374)" fill="#fff"/>
      <path id="Path_23532" data-name="Path 23532" d="M100.214,69.513h-.873V69.3a2.913,2.913,0,0,1-1.081.3c-1.033,0-1.525-.541-1.525-2.1,0-1.461.524-2.114,1.679-2.114a6.787,6.787,0,0,1,.92.105V63.8h.881Zm-.881-.9v-2.39a6.3,6.3,0,0,0-.855-.082c-.6,0-.856.436-.856,1.356,0,1.034.283,1.316.775,1.316a2.8,2.8,0,0,0,.936-.2" transform="translate(-25.482 -16.805)" fill="#fff"/>
      <path id="Path_23533" data-name="Path 23533" d="M102.9,63.884h.88v.929h-.88Zm0,1.615h.88v4.036h-.88Z" transform="translate(-27.105 -16.828)" fill="#fff"/>
      <path id="Path_23534" data-name="Path 23534" d="M108.191,66.109l-.032.695s-.638-.065-.944-.065c-.84,0-1.034.34-1.034,1.268,0,1.033.169,1.381,1.042,1.381.306,0,.944-.065.944-.065l.024.7a9.89,9.89,0,0,1-1.227.145c-1.243,0-1.671-.614-1.671-2.165,0-1.444.485-2.049,1.687-2.049a8.689,8.689,0,0,1,1.212.152" transform="translate(-27.736 -17.374)" fill="#fff"/>
      <path id="Path_23535" data-name="Path 23535" d="M110.373,63.884h.879v.929h-.879Zm0,1.615h.879v4.036h-.879Z" transform="translate(-29.074 -16.828)" fill="#fff"/>
      <path id="Path_23536" data-name="Path 23536" d="M113.012,70.082V66.045h.871v.25A2.685,2.685,0,0,1,115,65.956c1.123,0,1.4.638,1.4,1.962v2.164h-.872v-2.14c0-.807-.1-1.2-.718-1.2a2.424,2.424,0,0,0-.913.211v3.132Z" transform="translate(-29.77 -17.374)" fill="#fff"/>
      <path id="Path_23537" data-name="Path 23537" d="M122.02,69.331l.016.653a10,10,0,0,1-1.632.186c-1.21,0-1.679-.645-1.679-2.066,0-1.478.637-2.147,1.752-2.147s1.7.588,1.7,1.848l-.056.629h-2.5c.008.646.25.97.92.97.638,0,1.486-.073,1.486-.073m-.711-1.575c0-.807-.242-1.073-.831-1.073s-.864.3-.872,1.073Z" transform="translate(-31.275 -17.374)" fill="#fff"/>
      <path id="Path_23538" data-name="Path 23538" d="M127.276,66.88s-.952-.13-1.436-.13-.7.114-.7.444c0,.267.169.339.96.476.969.17,1.316.412,1.316,1.221,0,.944-.6,1.283-1.6,1.283A10.577,10.577,0,0,1,124.321,70l.032-.735s.969.13,1.38.13c.581,0,.808-.121.808-.477,0-.281-.138-.37-.938-.5-.888-.147-1.34-.34-1.34-1.2,0-.911.711-1.251,1.511-1.251a10.439,10.439,0,0,1,1.517.178Z" transform="translate(-32.734 -17.377)" fill="#fff"/>
    </g>
  </g>
</svg>
