<svg xmlns="http://www.w3.org/2000/svg" width="45.107" height="29.433" viewBox="0 0 45.107 29.433">
    <defs>
        <clipPath id="clip-path">
            <path id="Rectangle_2637" fill="none" d="M0 0H45.107V29.433H0z"/>
        </clipPath>
        <style>
            .cls-3{fill:#00b48d}
        </style>
    </defs>
    <g id="Group_2743">
        <g id="Group_2742" clip-path="url(#clip-path)">
            <path id="Path_22759" d="M45.1 28.982a.961.961 0 0 1-.925.451q-21.5-.012-42.995 0a.961.961 0 0 1-.923-.451v-.445a.947.947 0 0 1 .921-.454c3.285.012 6.569.006 9.852.006h.576a5.279 5.279 0 0 1-1.658-3.5H8.071c-.848.007-.986-.081-1.282-.9a5.949 5.949 0 0 1 0-3.811 10.844 10.844 0 0 1 5.287-6.738c.047-.026.093-.057.164-.1a2.063 2.063 0 0 1-.52-1.959c-.337 0-.639.006-.94 0a1.52 1.52 0 0 1-1.6-1.62q-.011-3.923 0-7.846A1.526 1.526 0 0 1 10.793 0h8.275a1.562 1.562 0 0 1 1.721 1.77q.006 3.723 0 7.445v.535c.8 0 1.55-.011 2.305 0a1.849 1.849 0 0 1 1.9 1.572 1.715 1.715 0 0 1-.479 1.6 4.3 4.3 0 0 0-1.2 3.366 4.461 4.461 0 0 0 5.862 4.183 3.882 3.882 0 0 0 2.606-3.335 13.636 13.636 0 0 0-.376-5.561c-.181-.751-.372-1.5-.618-2.228-.234-.7-.539-1.369-.837-2.041-.039-.09-.223-.156-.343-.16-.671-.015-1.342-.005-2.013-.008-.543 0-.851-.255-.842-.68.007-.407.312-.652.824-.656.657 0 1.313-.008 1.97 0a.426.426 0 0 0 .485-.309 2.505 2.505 0 0 1 2.423-1.653c.815-.018 1.634-.006 2.451 0 .593 0 .823.233.825.832.005 1.1 0 2.2 0 3.3 0 .964-.052 1.027-.988 1.184.181.582.355 1.161.537 1.738.646 2.049 1.3 4.1 1.938 6.148a.532.532 0 0 0 .655.435 5.714 5.714 0 0 1 5.175 2.423c.608.808.567 1.028-.237 1.634a5.212 5.212 0 0 1-.8 6.556h1.6a2.543 2.543 0 0 1 .739.015 3.859 3.859 0 0 1 .752.433zM22.512 13.538h-.536c-1.984 0-3.97-.03-5.954.014a7.74 7.74 0 0 0-2.192.342c-2.961.971-4.692 3.18-5.694 6.072-.126.366-.192.755-.285 1.133a.691.691 0 0 0 .288-.3 9.03 9.03 0 0 1 2.816-2.942 6.784 6.784 0 0 1 7.82-.07 8.426 8.426 0 0 1 3.118 4.5c.079.252.146.505.2.688h10c1.133-3.312 1.133-3.312 4-5.156-.294-.877-.6-1.755-.881-2.643-.592-1.9-1.164-3.8-1.756-5.692-.044-.144-.173-.35-.285-.366A7.94 7.94 0 0 0 32.1 9.1c.156.571.3 1.083.437 1.6a15.8 15.8 0 0 1 .56 6.477 5.321 5.321 0 0 1-2.6 4.165 5.764 5.764 0 0 1-8.266-3.5 6.611 6.611 0 0 1 .277-4.309m-7.489-12.2c-1.326 0-2.654.014-3.98-.008-.409-.006-.558.1-.555.546q.031 3.672 0 7.348c0 .413.12.537.521.536q3.982-.023 7.963 0c.369 0 .519-.1.514-.5q-.021-3.718 0-7.438c0-.365-.115-.494-.481-.489-1.327.018-2.654.007-3.981.007m17.025 22.929l-12.24.169a5.251 5.251 0 0 1-1.627 3.627H35.3c-.351-.468-.685-.911-1.033-1.372-.048.025-.112.053-.173.087-.69.395-.986.33-1.3-.4-.286-.66-.485-1.358-.746-2.109m-11.282-1.185a6.859 6.859 0 0 0-3.876-4.818 4.578 4.578 0 0 0-2.577-.285 7.212 7.212 0 0 0-5.485 4.355c-.131.274-.226.565-.364.91l12.3-.162M33.806 25.4l8.044-4.877a4.543 4.543 0 0 0-6.113-.964 4.7 4.7 0 0 0-1.931 5.841m2.735-.1c-.376.229-.735.446-1.115.675A3.551 3.551 0 0 0 38.857 28a3.425 3.425 0 0 0 3.167-2.282 3.576 3.576 0 0 0-.395-3.513c-.395.245-.75.463-1.1.681.75 1.4.493 2.728-.635 3.438-1.159.731-2.427.355-3.353-1.032M18.326 12.2h4.548c.131 0 .3.041.384-.026.177-.145.419-.347.422-.528s-.245-.38-.419-.524c-.082-.07-.254-.033-.384-.033h-9.095c-.13 0-.3-.032-.384.036-.167.134-.407.334-.4.495.009.192.225.4.4.545.091.076.281.036.425.037h4.5M17.2 24.468c-.315 1.369-1.077 2.159-2.193 2.165a3.018 3.018 0 0 1-1.365-.364 2.219 2.219 0 0 1-1.079-1.714h-1.246A3.571 3.571 0 0 0 14.969 28c1.9-.045 3.649-1.818 3.466-3.528zM34.4 5.173h-1.584c-.146 0-.291-.005-.437 0a1.274 1.274 0 0 0-1.215 1.131 1.212 1.212 0 0 0 .941 1.4 20.912 20.912 0 0 0 2.294.019zm3.309 19.416a1.018 1.018 0 0 0 .985.749.991.991 0 0 0 .638-1.73l-1.623.982m-23.763-.063a.943.943 0 0 0 1.862 0z" class="cls-3" transform="translate(.006)"/>
            <path id="Path_22760" d="M0 2.712a.86.86 0 0 1 .862-.472c1.528.016 3.057.005 4.585.007.544 0 .853.249.849.669s-.319.665-.861.666c-1.5 0-3-.009-4.5.007A1.009 1.009 0 0 1 0 3.159z" class="cls-3" transform="translate(0 .051)"/>
            <path id="Path_22761" d="M0 7.944a.859.859 0 0 1 .862-.472c1.528.016 3.057.005 4.585.007.544 0 .853.249.849.669s-.319.665-.861.666c-1.5 0-3-.009-4.5.007A1.008 1.008 0 0 1 0 8.39z" class="cls-3" transform="translate(0 .169)"/>
            <path id="Path_22762" d="M4.426 4.863h2.358c.5 0 .806.268.8.677a.691.691 0 0 1-.784.66q-2.358.009-4.716 0c-.5 0-.8-.278-.795-.685s.3-.643.78-.647c.785-.006 1.572 0 2.357 0" class="cls-3" transform="translate(.029 .11)"/>
            <path id="Path_22763" d="M13.813 4.908c0-.448-.005-.83 0-1.214.007-.489.251-.788.636-.8s.666.311.674.814c.006.381 0 .763 0 1.2.437 0 .825-.006 1.215 0 .455.009.729.251.741.638a.673.673 0 0 1-.738.693c-.378.013-.758.013-1.136.021-.01 0-.021.019-.082.075 0 .334.005.715 0 1.1-.01.513-.266.813-.678.8-.394-.01-.625-.294-.632-.794-.005-.384 0-.765 0-1.2-.422 0-.8.005-1.172 0-.5-.008-.809-.276-.806-.679s.309-.649.822-.656h1.156" class="cls-3" transform="translate(.269 .065)"/>
        </g>
    </g>
</svg>
