<svg xmlns="http://www.w3.org/2000/svg" width="29.812" height="30.353" viewBox="0 0 29.812 30.353">
    <defs>
        <clipPath id="clip-path">
            <path id="Rectangle_2635" fill="none" d="M0 0H29.812V30.353H0z"/>
        </clipPath>
        <style>
            .cls-3{fill:#00b48d}
        </style>
    </defs>
    <g id="Group_2739">
        <g id="Group_2738" clip-path="url(#clip-path)">
            <path id="Path_22756" d="M0 27.092a4.21 4.21 0 0 1 1.341-2.157c2.748-2.775 5.481-5.568 8.226-8.347a.4.4 0 0 0 .086-.569A10.407 10.407 0 0 1 8.46 9.674a10.7 10.7 0 0 1 5.963-8.551A9.644 9.644 0 0 1 18.406.051 2.345 2.345 0 0 0 18.691 0h.809a3.4 3.4 0 0 0 .343.054 9.852 9.852 0 0 1 4.397 1.307 10.734 10.734 0 0 1 5.272 7.033c.137.572.2 1.162.3 1.744v1.541c-.1.582-.162 1.171-.3 1.742a10.682 10.682 0 0 1-5.267 7.037 10.484 10.484 0 0 1-10.239.026.3.3 0 0 0-.442.072c-2.715 2.769-5.439 5.527-8.147 8.3a4.042 4.042 0 0 1-2.391 1.495h-.463a.717.717 0 0 0-.133-.051 2.733 2.733 0 0 1-1.814-1.035A3.482 3.482 0 0 1 0 27.863zM19.092 1.914a8.9 8.9 0 0 0-8.829 8.986 8.837 8.837 0 1 0 17.67-.008 8.9 8.9 0 0 0-8.841-8.979m-8.247 16.068a.973.973 0 0 0-.082.075L2.22 26.75a1.849 1.849 0 0 0-.156.176.949.949 0 0 0 .3 1.4.959.959 0 0 0 1.206-.276q4.23-4.3 8.461-8.61c.056-.053.1-.114.123-.135-.438-.442-.861-.871-1.3-1.321" class="cls-3"/>
            <path id="Path_22757" d="M22.606 9.813a7.518 7.518 0 0 1-2.055 5.316.913.913 0 0 1-1.329.066.936.936 0 0 1-.04-1.349 5.448 5.448 0 0 0 1.465-2.932 5.354 5.354 0 0 0-1.244-4.4 2.163 2.163 0 0 1-.457-.765.872.872 0 0 1 .5-1 .9.9 0 0 1 1.09.212 7.073 7.073 0 0 1 1.87 3.484c.11.527.154 1.07.2 1.365" class="cls-3" transform="translate(3.489 .859)"/>
        </g>
    </g>
</svg>
