<svg xmlns="http://www.w3.org/2000/svg" width="42.107" height="30.717" viewBox="0 0 42.107 30.717">
    <defs>
        <clipPath id="mr5mx03ela">
            <path fill="none" d="M0 0H42.107V30.717H0z"/>
        </clipPath>
    </defs>
    <g>
        <g clip-path="url(#mr5mx03ela)">
            <path fill="#00b48d" d="M14.547 0a21.935 21.935 0 0 1 7.262 1.336 13.476 13.476 0 0 1 5.644 3.993 7.363 7.363 0 0 1 .938 1.541 1.3 1.3 0 0 0 1.276.84 15.447 15.447 0 0 1 5.726 1.14 11.821 11.821 0 0 1 5.039 3.665 7.518 7.518 0 0 1 1.64 5.42 7.793 7.793 0 0 1-2.252 4.755 11.242 11.242 0 0 1-4.515 2.91c-.519.178-.642.439-.469.963.166.5.316 1 .484 1.5a2.991 2.991 0 0 0 .775 1.227.74.74 0 0 1 .173.924.807.807 0 0 1-.859.488 14.611 14.611 0 0 1-4.847-1.543 7.232 7.232 0 0 1-1.9-1.469 3.724 3.724 0 0 0-2.387-1.217 13.922 13.922 0 0 1-5.825-2.12 11.166 11.166 0 0 1-2.6-2.408 1.242 1.242 0 0 0-1.968-.083c-.4.421-.777.878-1.206 1.269a11.149 11.149 0 0 1-4.842 2.42c-.714.186-1.436.335-2.158.477a.811.811 0 0 1-1.072-.63.777.777 0 0 1 .225-.736A4.971 4.971 0 0 0 8.054 22.3c.109-.423.237-.84.359-1.26.107-.367.05-.476-.3-.6a13.976 13.976 0 0 1-5.476-3.455A8.774 8.774 0 0 1 0 10.67a8.331 8.331 0 0 1 2.117-5.441A14.206 14.206 0 0 1 9.192.808 22.937 22.937 0 0 1 14.547 0M9.109 24.153a1.5 1.5 0 0 0 .181-.037c.807-.3 1.626-.57 2.418-.907a6.444 6.444 0 0 0 3.056-2.526 1.611 1.611 0 0 1 1.3-.75 17.337 17.337 0 0 0 3.622-.646 12.521 12.521 0 0 0 6.627-4.5 6.759 6.759 0 0 0 1.408-4.072 7 7 0 0 0-2.7-5.7A14.869 14.869 0 0 0 19.814 2.3a18.073 18.073 0 0 0-9.7-.135A12.644 12.644 0 0 0 3.762 5.7a7.563 7.563 0 0 0-2.136 4.131 6.629 6.629 0 0 0 1.227 4.96 11.259 11.259 0 0 0 5.564 4.092c.395.143.8.26 1.187.43a.915.915 0 0 1 .583.982 3.3 3.3 0 0 1-.125.574c-.132.443-.281.884-.41 1.328-.183.639-.356 1.282-.542 1.956M33.861 28.8c-.022-.1-.028-.155-.042-.2-.25-.884-.49-1.77-.75-2.649a1.015 1.015 0 0 1 .682-1.436c.173-.066.35-.117.525-.178a10.735 10.735 0 0 0 4.7-3.033 5.911 5.911 0 0 0 .362-7.643 9.921 9.921 0 0 0-4.112-3.2A15.858 15.858 0 0 0 30.2 9.257c-.817-.074-.852-.036-.8.8a8.881 8.881 0 0 1-.425 3.354 9.955 9.955 0 0 1-3.061 4.375 16.086 16.086 0 0 1-5.3 3.006c-.477.171-.949.359-1.472.558.167.152.292.274.427.382.289.233.587.453.877.685a11.627 11.627 0 0 0 3.059 1.757 14.965 14.965 0 0 0 4.569.955 1.187 1.187 0 0 1 1.05.642 4.586 4.586 0 0 0 1.322 1.471 12.446 12.446 0 0 0 3.415 1.558"/>
        </g>
    </g>
</svg>
