<svg xmlns="http://www.w3.org/2000/svg" width="26.636" height="26.636" viewBox="0 0 26.636 26.636">
    <path fill="#00b48d" d="M26.633 21.463a3.94 3.94 0 0 0-1.208-2.707 9.677 9.677 0 0 0-3.831-2.545 4.288 4.288 0 0 0-4.4 1.249l-.006.006-1.408 1.4a20.949 20.949 0 0 1-4.434-3.432l-.137-.137a21.08 21.08 0 0 1-3.43-4.435l1.4-1.407.006-.006a4.288 4.288 0 0 0 1.249-4.4 9.677 9.677 0 0 0-2.553-3.837 3.959 3.959 0 0 0-5.495-.2l-.03.027-.041.038A8.442 8.442 0 0 0 0 7.263c.021 4.277 2.372 9.169 6.289 13.085l.01.01q.31.309.643.616l.006.026s.291.272.8.693q.5.42 1.031.831a1.045 1.045 0 0 0 .184.113 21.708 21.708 0 0 0 6.22 3.285l.141.042a13.827 13.827 0 0 0 4.046.677h.058a8.423 8.423 0 0 0 6.125-2.316l.038-.041.027-.03a3.94 3.94 0 0 0 1.015-2.791z" transform="translate(0 -.001)"/>
</svg>
