<svg xmlns="http://www.w3.org/2000/svg" width="25.895" height="23.725" viewBox="0 0 25.895 23.725">
  <g id="Group_1587" data-name="Group 1587" transform="translate(-4.644 -5.805)">
    <path id="Path_20850" data-name="Path 20850" d="M89.149,82.5H73.721a3.182,3.182,0,0,0-6.033,0H65.28a1.013,1.013,0,0,0,0,2.026h2.408a3.182,3.182,0,0,0,6.033,0H89.149a1.013,1.013,0,1,0,0-2.026ZM70.7,84.674a1.157,1.157,0,1,1,1.157-1.157A1.158,1.158,0,0,1,70.7,84.674Z" transform="translate(-59.623 -74.529)" fill="#00b48d"/>
    <path id="Path_20851" data-name="Path 20851" d="M89.149,211.037H86.74a3.182,3.182,0,0,0-6.033,0H65.28a1.013,1.013,0,0,0,0,2.026H80.707a3.182,3.182,0,0,0,6.033,0h2.408a1.013,1.013,0,1,0,0-2.026Zm-5.425,2.17a1.157,1.157,0,1,1,1.157-1.157A1.158,1.158,0,0,1,83.724,213.207Z" transform="translate(-59.623 -194.382)" fill="#00b48d"/>
    <path id="Path_20852" data-name="Path 20852" d="M89.149,339.57H78.061a3.182,3.182,0,0,0-6.033,0H65.28a1.013,1.013,0,0,0,0,2.026h6.748a3.182,3.182,0,0,0,6.033,0H89.149a1.013,1.013,0,1,0,0-2.026Zm-14.1,2.17a1.157,1.157,0,1,1,1.157-1.157A1.158,1.158,0,0,1,75.044,341.74Z" transform="translate(-59.623 -314.236)" fill="#00b48d"/>
  </g>
</svg>
