<svg xmlns="http://www.w3.org/2000/svg" xmlns:xlink="http://www.w3.org/1999/xlink" width="90" height="102" viewBox="0 0 90 102"><defs><clipPath id="b"><rect width="90" height="102"/></clipPath></defs><g id="a" clip-path="url(#b)"><g transform="translate(3 1)"><path d="M643.678,436.926a20.757,20.757,0,0,1,4.26,1.279,32.481,32.481,0,0,1,5.428,3.8,3.62,3.62,0,0,1,1.045,4.469,1.637,1.637,0,0,0,.129,1.42c5.391,6.5,7.7,14.361,9.191,22.365,2.25,12.1,3.94,24.307,5.84,36.473a27.025,27.025,0,0,1,.338,6.59c-.51-2.729-1.088-5.447-1.518-8.188-1.684-10.82-3.185-21.664-5.01-32.459-1.439-8.484-3.855-16.629-9.32-23.613-2.207-2.822-5.207-3.842-8.342-4.8a17.921,17.921,0,0,0-14.588,1.764,7.282,7.282,0,0,1-2.969.689c-3.184.215-5.908,1.137-7.119,3.873-.9-.086-1.74-.436-2.133-.154-2.852,2-5.662,4.076-8.373,6.264-.738.6-1.1,1.66-1.857,2.244-.553.424-1.34.738-1.617,1.3-.99,2.016-1.8,4.119-2.631,6.062a6.243,6.243,0,0,0-.959-2.109c-1.445-1.414-1.42-2.957-.959-4.727a23.075,23.075,0,0,1,11.219-14.779c2.281-1.316,4.617-2.527,6.928-3.787l10.272-2.914c-.055-.221-.117-.436-.172-.658q-3.688.959-7.377,1.912c2.361-2.09,5.213-1.9,8.084-1.875,2.146.018,4.3-.283,6.449-.443Q640.8,436.929,643.678,436.926Z" transform="translate(-593.164 -436.92)"/><path d="M711.422,573.765q2.877-3.108,5.748-6.215c.16.049.32.1.486.141v21.553H702.44c1.057-2.324,2.109-4.654,3.178-6.971.338-.732.725-1.439,1.088-2.158Q709.058,576.943,711.422,573.765Z" transform="translate(-631.768 -487.245)"/><path d="M622.431,511.133c.689,4.672,1.309,8.767,1.887,12.873a10.61,10.61,0,0,1-.178,2.016,4.314,4.314,0,0,1-1.7-4.021,65.056,65.056,0,0,0-.873-10.518,10,10,0,0,0-2.078-4.113,162.722,162.722,0,0,1-10.027,35.275c.744-2.975,1.561-5.932,2.219-8.926,1.826-8.342,4.07-16.635,5.219-25.07a99.382,99.382,0,0,0,.234-19.273c-.412-6.75-1.574-13.451-2.422-20.176a14.286,14.286,0,0,0-.43-1.623c-.492.6-.879,1.082-1.273,1.561-.178-.08-.357-.154-.535-.234.732-1.377,1.168-3.086,2.269-4.057A12.811,12.811,0,0,1,620,461.9c3.928-.916,6.977-2.711,8.791-6.387a3.91,3.91,0,0,1,.529-.652,5.2,5.2,0,0,1-2.428,5.717,27.408,27.408,0,0,1-5.311,1.967c-1.34.449-2.859.578-4.039,1.285a4.718,4.718,0,0,0-2.434,5.607c1.641,8.312,2.779,16.721,4.211,25.076.639,3.732,1.734,7.346,4.279,10.3a9.521,9.521,0,0,0,2.231,1.352,18.858,18.858,0,0,1,3.695-9.977c1.186-1.691,1.826-3.762,2.859-5.981.424,3.928-2.834,6.277-3.221,9.854a11.95,11.95,0,0,1,1.168-.922,24.225,24.225,0,0,1,4.186-2.336c2-.682,4.168-.855,6.178-1.5.713-.227,1.291-1.137,1.734-1.857.646-1.051,1.217-1.807,2.705-1.691,1.715.135,2.029-.621,1.789-3q1.964,2.554,3.934,5.1c-.117.129-.24.252-.356.381-1.174-.842-2.348-1.684-3.67-2.637-.879,1.039-1.783,2.109-2.926,3.467a50.362,50.362,0,0,1,6.854,2.453,45.77,45.77,0,0,1,5.668,4.113,8.753,8.753,0,0,0,.713-8.287c-1.648-4.309-1.229-8.9-1.051-13.42.111-2.73.037-5.471-.1-8.195-.074-1.42-3.572-3.842-4.789-3.215-.713.363-.959,1.635-1.229,2.145a5.281,5.281,0,0,1,4.561,3.154c-1.562-.922-2.92-2.625-4.973-1.641-1.641.787-3.184,1.777-4.918,2.754v-1.359c-1.721.344-2.268-.129-1.869-1.518,1.15-4.02,3.412-6.6,7.949-6.609a11.654,11.654,0,0,0,3.074-.947c-2.268-3.928-4.629-8.023-7-12.123.068-.068.129-.141.2-.209a18.719,18.719,0,0,1,1.648,1.857c6.541,9.572,10.082,19.955,8.582,31.709a21.59,21.59,0,0,0,3.381,14.108,5.55,5.55,0,0,1,.437,5.453c-3.9,9.922-7.666,19.9-11.484,29.859a.871.871,0,0,1-.627.523c1.432-4.15,2.865-8.3,4.143-12.019q-9.166.4-18.27.787c-.012-.184-.018-.375-.031-.559a8.8,8.8,0,0,1,6.277-.289c4.5,1.371,8.447-.529,12.455-2.078a1.188,1.188,0,0,0,.578-.559c1.236-2.791,2.453-5.6,3.424-8.545-1.943,2.17-3.848,4.377-5.834,6.5-3.283,3.51-10.783,4.764-15.154,2.8-1.7-.768-3.738-.824-5.416-1.629a16.568,16.568,0,0,1-4.734-3.344A43.55,43.55,0,0,1,622.431,511.133Zm9.848-5.736c-.627.326-1.82.707-1.8.971.166,1.74.406,3.529,2.146,4.6,2.275,1.408,4.561,2.379,7,.732-.012-2.57-1.254-3.947-3.861-4.094-.522-.031-1.014-.609-1.525-.934,4.07.916,7.936-.627,11.9-.977a6.621,6.621,0,0,1-1.119,1.15c-1.869,1.193-1.543,2.551-.473,4,2.121-.025,3.258-1.2,4.057-2.988.695-1.562,1.617-3.018,2.434-4.525l-.369-.24c-.516.3-1.039.6-1.555.9.3-.529.59-1.063.774-1.389l-5.121-1.168a4.828,4.828,0,0,1,2.643-1.106,14.812,14.812,0,0,1,2.865.344c.031-.166.055-.332.086-.5a8.891,8.891,0,0,0-2.705-.473c-4.414.621-8.76,1.973-13.3.689a3.738,3.738,0,0,0-2.508.6,6.219,6.219,0,0,0-1.408,1.592c3.75-.307,7.316-.6,10.881-.885.025.2.043.393.068.6-3.271,1.057-7.119-.6-10.082,2.023C631.646,504.7,631.96,505.047,632.28,505.4Z" transform="translate(-595.948 -442.791)"/><path d="M597.746,491.185c-2.189,10.26-1.777,20.49.012,30.744-.5-2.244-1.008-4.482-1.586-7.063-.781,7.186-1.463,14.035-2.3,20.865a51.038,51.038,0,0,1-1.525,7.414c-1.236,4.469-2.643,8.9-4.254,13.285-.2-5.268,1.512-10.279,1.9-15.486q-.9,3.384-1.814,6.762c-.234-.061-.467-.129-.7-.191,1.174-4.365,2.348-8.723,3.51-13.033-1.7-.283-1.7-.283-2.9,3.363-1.18-3.363.842-4.7,4.033-4.463a41.132,41.132,0,0,0,2.686-12.676c.363-7.863.75-15.719,1.26-23.576a47.31,47.31,0,0,1,1.143-6C597.39,491.142,597.568,491.161,597.746,491.185Z" transform="translate(-587.48 -457.804)"/><path d="M624.144,495.477c-2.219-5.711-.3-11.975,6.873-11.072,2.041.258,4.07-.135,6.135.873.959.467,1.807.812,1.666,1.684a4.453,4.453,0,0,1-1.586,2.182,11.286,11.286,0,0,1-2.324,1.236c.787.43,1.3.713,1.857,1.021a27.5,27.5,0,0,1-4.561,1.475c-.664.1-1.475-.768-2.447-1.334-1.168.51-2.656,1.168-4.254,1.869a6.4,6.4,0,0,1,4.463-5.441l-.4-.584c-1.371.91-3.154,1.549-4.008,2.816C624.654,491.543,624.63,493.485,624.144,495.477Zm7.961-6.369c-2.926-.473-4.457.393-5.361,3.006C628.5,491.131,630.212,490.165,632.105,489.108Z" transform="translate(-601.269 -455.18)"/><path d="M682.74,582.746q5.551-9.24,11.109-18.486C694.433,567.949,686.2,580.41,682.74,582.746Z" transform="translate(-624.179 -485.977)"/><path d="M690.06,588.839l11.988-18.719.357.209a60.322,60.322,0,0,1-2.643,5.889c-2.244,3.9-4.672,7.7-6.965,11.434-.019-.154-.055-.559-.135-1.309l-2.09,2.828C690.4,589.067,690.232,588.956,690.06,588.839Z" transform="translate(-626.999 -488.235)"/><path d="M677.577,490.785c-.529-.848-2.594,1.174-1.992-1.734-1.488,2.5-2.287,2.594-4.353,1.285-.418-.264-1.2-.061-1.783.068-.412.092-.768.43-1.229.529C670.169,487.36,674.982,487.287,677.577,490.785Z" transform="translate(-618.585 -456.678)"/><path d="M617.86,592.029c2.557-3.6,5.035-7.082,7.365-10.358C625.237,585.328,621.161,591.3,617.86,592.029Z" transform="translate(-599.184 -492.684)"/><path d="M710.855,576.77q-2.361,3.172-4.721,6.35-2.407,2.84-4.807,5.674c-.117-.092-.234-.178-.357-.27,3.191-4.248,6.381-8.5,9.885-13.174Z" transform="translate(-631.202 -490.25)"/><path d="M661.054,494.171c-2.6-2.422-2.963-3.738-1.986-5.281C659.64,490.409,660.359,492.308,661.054,494.171Z" transform="translate(-614.867 -456.941)"/><path d="M648.25,519.215c1.777-1.814,2.779-1.26,4.119.412C650.82,519.473,649.756,519.368,648.25,519.215Z" transform="translate(-610.891 -468.19)"/><path d="M701.034,551.227c-.879-1.476-1.764-2.951-2.643-4.426.215-.129.437-.252.652-.381.861,1.488,1.727,2.969,2.588,4.457C701.427,550.994,701.23,551.111,701.034,551.227Z" transform="translate(-630.208 -479.104)"/></g><g transform="translate(3 1)"><path d="M643.678,436.926a20.757,20.757,0,0,1,4.26,1.279,32.481,32.481,0,0,1,5.428,3.8,3.62,3.62,0,0,1,1.045,4.469,1.637,1.637,0,0,0,.129,1.42c5.391,6.5,7.7,14.361,9.191,22.365,2.25,12.1,3.94,24.307,5.84,36.473a27.025,27.025,0,0,1,.338,6.59c-.51-2.729-1.088-5.447-1.518-8.188-1.684-10.82-3.185-21.664-5.01-32.459-1.439-8.484-3.855-16.629-9.32-23.613-2.207-2.822-5.207-3.842-8.342-4.8a17.921,17.921,0,0,0-14.588,1.764,7.282,7.282,0,0,1-2.969.689c-3.184.215-5.908,1.137-7.119,3.873-.9-.086-1.74-.436-2.133-.154-2.852,2-5.662,4.076-8.373,6.264-.738.6-1.1,1.66-1.857,2.244-.553.424-1.34.738-1.617,1.3-.99,2.016-1.8,4.119-2.631,6.062a6.243,6.243,0,0,0-.959-2.109c-1.445-1.414-1.42-2.957-.959-4.727a23.075,23.075,0,0,1,11.219-14.779c2.281-1.316,4.617-2.527,6.928-3.787l10.272-2.914c-.055-.221-.117-.436-.172-.658q-3.688.959-7.377,1.912c2.361-2.09,5.213-1.9,8.084-1.875,2.146.018,4.3-.283,6.449-.443Q640.8,436.929,643.678,436.926Z" transform="translate(-593.164 -436.92)"/><path d="M711.422,573.765q2.877-3.108,5.748-6.215c.16.049.32.1.486.141v21.553H702.44c1.057-2.324,2.109-4.654,3.178-6.971.338-.732.725-1.439,1.088-2.158Q709.058,576.943,711.422,573.765Z" transform="translate(-631.768 -487.245)"/><path d="M622.431,511.133c.689,4.672,1.309,8.767,1.887,12.873a10.61,10.61,0,0,1-.178,2.016,4.314,4.314,0,0,1-1.7-4.021,65.056,65.056,0,0,0-.873-10.518,10,10,0,0,0-2.078-4.113,162.722,162.722,0,0,1-10.027,35.275c.744-2.975,1.561-5.932,2.219-8.926,1.826-8.342,4.07-16.635,5.219-25.07a99.382,99.382,0,0,0,.234-19.273c-.412-6.75-1.574-13.451-2.422-20.176a14.286,14.286,0,0,0-.43-1.623c-.492.6-.879,1.082-1.273,1.561-.178-.08-.357-.154-.535-.234.732-1.377,1.168-3.086,2.269-4.057A12.811,12.811,0,0,1,620,461.9c3.928-.916,6.977-2.711,8.791-6.387a3.91,3.91,0,0,1,.529-.652,5.2,5.2,0,0,1-2.428,5.717,27.408,27.408,0,0,1-5.311,1.967c-1.34.449-2.859.578-4.039,1.285a4.718,4.718,0,0,0-2.434,5.607c1.641,8.312,2.779,16.721,4.211,25.076.639,3.732,1.734,7.346,4.279,10.3a9.521,9.521,0,0,0,2.231,1.352,18.858,18.858,0,0,1,3.695-9.977c1.186-1.691,1.826-3.762,2.859-5.981.424,3.928-2.834,6.277-3.221,9.854a11.95,11.95,0,0,1,1.168-.922,24.225,24.225,0,0,1,4.186-2.336c2-.682,4.168-.855,6.178-1.5.713-.227,1.291-1.137,1.734-1.857.646-1.051,1.217-1.807,2.705-1.691,1.715.135,2.029-.621,1.789-3q1.964,2.554,3.934,5.1c-.117.129-.24.252-.356.381-1.174-.842-2.348-1.684-3.67-2.637-.879,1.039-1.783,2.109-2.926,3.467a50.362,50.362,0,0,1,6.854,2.453,45.77,45.77,0,0,1,5.668,4.113,8.753,8.753,0,0,0,.713-8.287c-1.648-4.309-1.229-8.9-1.051-13.42.111-2.73.037-5.471-.1-8.195-.074-1.42-3.572-3.842-4.789-3.215-.713.363-.959,1.635-1.229,2.145a5.281,5.281,0,0,1,4.561,3.154c-1.562-.922-2.92-2.625-4.973-1.641-1.641.787-3.184,1.777-4.918,2.754v-1.359c-1.721.344-2.268-.129-1.869-1.518,1.15-4.02,3.412-6.6,7.949-6.609a11.654,11.654,0,0,0,3.074-.947c-2.268-3.928-4.629-8.023-7-12.123.068-.068.129-.141.2-.209a18.719,18.719,0,0,1,1.648,1.857c6.541,9.572,10.082,19.955,8.582,31.709a21.59,21.59,0,0,0,3.381,14.108,5.55,5.55,0,0,1,.437,5.453c-3.9,9.922-7.666,19.9-11.484,29.859a.871.871,0,0,1-.627.523c1.432-4.15,2.865-8.3,4.143-12.019q-9.166.4-18.27.787c-.012-.184-.018-.375-.031-.559a8.8,8.8,0,0,1,6.277-.289c4.5,1.371,8.447-.529,12.455-2.078a1.188,1.188,0,0,0,.578-.559c1.236-2.791,2.453-5.6,3.424-8.545-1.943,2.17-3.848,4.377-5.834,6.5-3.283,3.51-10.783,4.764-15.154,2.8-1.7-.768-3.738-.824-5.416-1.629a16.568,16.568,0,0,1-4.734-3.344A43.55,43.55,0,0,1,622.431,511.133Zm9.848-5.736c-.627.326-1.82.707-1.8.971.166,1.74.406,3.529,2.146,4.6,2.275,1.408,4.561,2.379,7,.732-.012-2.57-1.254-3.947-3.861-4.094-.522-.031-1.014-.609-1.525-.934,4.07.916,7.936-.627,11.9-.977a6.621,6.621,0,0,1-1.119,1.15c-1.869,1.193-1.543,2.551-.473,4,2.121-.025,3.258-1.2,4.057-2.988.695-1.562,1.617-3.018,2.434-4.525l-.369-.24c-.516.3-1.039.6-1.555.9.3-.529.59-1.063.774-1.389l-5.121-1.168a4.828,4.828,0,0,1,2.643-1.106,14.812,14.812,0,0,1,2.865.344c.031-.166.055-.332.086-.5a8.891,8.891,0,0,0-2.705-.473c-4.414.621-8.76,1.973-13.3.689a3.738,3.738,0,0,0-2.508.6,6.219,6.219,0,0,0-1.408,1.592c3.75-.307,7.316-.6,10.881-.885.025.2.043.393.068.6-3.271,1.057-7.119-.6-10.082,2.023C631.646,504.7,631.96,505.047,632.28,505.4Z" transform="translate(-595.948 -442.791)"/><path d="M597.746,491.185c-2.189,10.26-1.777,20.49.012,30.744-.5-2.244-1.008-4.482-1.586-7.063-.781,7.186-1.463,14.035-2.3,20.865a51.038,51.038,0,0,1-1.525,7.414c-1.236,4.469-2.643,8.9-4.254,13.285-.2-5.268,1.512-10.279,1.9-15.486q-.9,3.384-1.814,6.762c-.234-.061-.467-.129-.7-.191,1.174-4.365,2.348-8.723,3.51-13.033-1.7-.283-1.7-.283-2.9,3.363-1.18-3.363.842-4.7,4.033-4.463a41.132,41.132,0,0,0,2.686-12.676c.363-7.863.75-15.719,1.26-23.576a47.31,47.31,0,0,1,1.143-6C597.39,491.142,597.568,491.161,597.746,491.185Z" transform="translate(-587.48 -457.804)"/><path d="M624.144,495.477c-2.219-5.711-.3-11.975,6.873-11.072,2.041.258,4.07-.135,6.135.873.959.467,1.807.812,1.666,1.684a4.453,4.453,0,0,1-1.586,2.182,11.286,11.286,0,0,1-2.324,1.236c.787.43,1.3.713,1.857,1.021a27.5,27.5,0,0,1-4.561,1.475c-.664.1-1.475-.768-2.447-1.334-1.168.51-2.656,1.168-4.254,1.869a6.4,6.4,0,0,1,4.463-5.441l-.4-.584c-1.371.91-3.154,1.549-4.008,2.816C624.654,491.543,624.63,493.485,624.144,495.477Zm7.961-6.369c-2.926-.473-4.457.393-5.361,3.006C628.5,491.131,630.212,490.165,632.105,489.108Z" transform="translate(-601.269 -455.18)"/><path d="M682.74,582.746q5.551-9.24,11.109-18.486C694.433,567.949,686.2,580.41,682.74,582.746Z" transform="translate(-624.179 -485.977)"/><path d="M690.06,588.839l11.988-18.719.357.209a60.322,60.322,0,0,1-2.643,5.889c-2.244,3.9-4.672,7.7-6.965,11.434-.019-.154-.055-.559-.135-1.309l-2.09,2.828C690.4,589.067,690.232,588.956,690.06,588.839Z" transform="translate(-626.999 -488.235)"/><path d="M677.577,490.785c-.529-.848-2.594,1.174-1.992-1.734-1.488,2.5-2.287,2.594-4.353,1.285-.418-.264-1.2-.061-1.783.068-.412.092-.768.43-1.229.529C670.169,487.36,674.982,487.287,677.577,490.785Z" transform="translate(-618.585 -456.678)"/><path d="M617.86,592.029c2.557-3.6,5.035-7.082,7.365-10.358C625.237,585.328,621.161,591.3,617.86,592.029Z" transform="translate(-599.184 -492.684)"/><path d="M710.855,576.77q-2.361,3.172-4.721,6.35-2.407,2.84-4.807,5.674c-.117-.092-.234-.178-.357-.27,3.191-4.248,6.381-8.5,9.885-13.174Z" transform="translate(-631.202 -490.25)"/><path d="M661.054,494.171c-2.6-2.422-2.963-3.738-1.986-5.281C659.64,490.409,660.359,492.308,661.054,494.171Z" transform="translate(-614.867 -456.941)"/><path d="M648.25,519.215c1.777-1.814,2.779-1.26,4.119.412C650.82,519.473,649.756,519.368,648.25,519.215Z" transform="translate(-610.891 -468.19)"/><path d="M701.034,551.227c-.879-1.476-1.764-2.951-2.643-4.426.215-.129.437-.252.652-.381.861,1.488,1.727,2.969,2.588,4.457C701.427,550.994,701.23,551.111,701.034,551.227Z" transform="translate(-630.208 -479.104)"/></g></g></svg>