<svg xmlns="http://www.w3.org/2000/svg" width="16.024" height="13.019" viewBox="0 0 16.024 13.019">
  <path id="Twitter" d="M16.024,1.541a6.594,6.594,0,0,1-1.888.518A3.3,3.3,0,0,0,15.581.241a6.57,6.57,0,0,1-2.088.8A3.289,3.289,0,0,0,7.805,3.287a3.324,3.324,0,0,0,.086.75A9.332,9.332,0,0,1,1.116.6,3.29,3.29,0,0,0,2.133,4.989,3.26,3.26,0,0,1,.645,4.578V4.62A3.288,3.288,0,0,0,3.281,7.843a3.282,3.282,0,0,1-.866.115A3.234,3.234,0,0,1,1.8,7.9a3.292,3.292,0,0,0,3.071,2.283A6.6,6.6,0,0,1,.784,11.588,6.626,6.626,0,0,1,0,11.542a9.3,9.3,0,0,0,5.04,1.477,9.289,9.289,0,0,0,9.353-9.351c0-.143,0-.284-.009-.425a6.681,6.681,0,0,0,1.64-1.7Z" fill="#fff"/>
</svg>
