<svg xmlns="http://www.w3.org/2000/svg" width="16.68" height="12.973" viewBox="0 0 16.68 12.973">
  <path id="Youtube" d="M8.34,12.973h0c-.043,0-4.358-.031-5.665-.177-.07-.017-.156-.029-.255-.043A2.339,2.339,0,0,1,.834,12a4.436,4.436,0,0,1-.661-1.828A29.533,29.533,0,0,1,0,7.195V5.808C0,4.325.171,2.816.173,2.8A4.033,4.033,0,0,1,.834.973,2.272,2.272,0,0,1,2.452.211h0l.047,0C4.8.032,8.3,0,8.34,0s3.536.032,5.838.206l.079.007a2.123,2.123,0,0,1,1.589.76A4.436,4.436,0,0,1,16.507,2.8c0,.015.173,1.523.173,3.007V7.195c0,1.455-.171,2.963-.173,2.978A4.437,4.437,0,0,1,15.846,12a2.272,2.272,0,0,1-1.618.762h0l-.047,0C11.875,12.971,8.375,12.973,8.34,12.973ZM6.327,3.509v6.4l5.464-3.125Z" fill="#fff"/>
</svg>
