<svg xmlns="http://www.w3.org/2000/svg" xmlns:xlink="http://www.w3.org/1999/xlink" version="1.1" width="198.425pt" height="110.551pt" viewBox="0 0 198.425 110.551">
<defs>
<clipPath id="clip_0">
<path transform="matrix(1,0,0,-1,0,110.551)" d="M0 110.551H198.425V0H0Z"/>
</clipPath>
</defs>
<g id="layer_1" data-name="">
<g clip-path="url(#clip_0)">
<path transform="matrix(1,0,0,-1,22.1197,63.330904)" d="M0 0H-2.393V-4.017H.029C3.055-4.017 3.055-4.017 3.055-1.953 3.055-1.074 3 0 0 0M.11-7.789H-2.393V-13.075C-6.304-13.075-7.129-13.075-7.129-10.074V.854C-7.129 3.827-6.44 3.827-3.331 3.827H-.136C6.936 3.827 7.845 .579 7.845-1.953 7.845-4.349 7.24-7.789 .11-7.789" fill="#05b48d"/>
<path transform="matrix(1,0,0,-1,48.159,76.378009)" d="M0 0C-2.093 .163-2.064 1.486-2.064 2.973V6.717H-8.534V-.028C-12.608-.028-13.268 .137-13.268 2.973V16.93C-9.249 16.93-8.534 16.765-8.534 13.983V10.488H-2.064V16.93C1.98 16.93 2.698 16.793 2.698 13.983V-.028C.992-.028 .44-.028 0 0" fill="#05b48d"/>
<path transform="matrix(1,0,0,-1,65.3068,64.3485)" d="M0 0-2.119-5.479H2.145ZM6.607-12.03C4.349-11.92 4.185-10.709 3.522-9.086H-3.497C-4.846-12.58-5.231-12.058-9.691-12.058L-3.579 2.615C-2.752 4.652-2.367 4.9 0 4.9H2.533L9.745-12.058C7.624-12.058 7.047-12.058 6.607-12.03" fill="#05b48d"/>
<path transform="matrix(1,0,0,-1,92.0613,76.406208)" d="M0 0C-2.092 0-2.973 .219-4.157 1.954L-7.239 6.44C-7.873 7.404-8.093 9.525-5.81 9.525H-4.79C-2.78 9.525-2.78 9.525-2.78 11.341-2.78 12.058-2.835 13.075-5.81 13.075H-8.15V0C-12.249 0-12.883 0-12.883 3.001V13.929C-12.883 16.902-11.946 16.902-9.058 16.902H-5.973C.99 16.902 1.981 13.736 1.981 11.341 1.981 7.901-.22 6.661-2.643 6.661L3.579 0Z" fill="#05b48d"/>
<path transform="matrix(1,0,0,-1,119.0912,76.378009)" d="M0 0C-2.035 .163-2.035 1.431-2.035 2.889V9.911L-5.175 2.229C-5.835 .577-6.136-.028-8.259-.028H-10.323L-14.505 9.911V-.028C-18.498-.028-19.186 .109-19.186 2.889V16.93H-16.709C-14.121 16.93-13.351 17.122-12.278 14.478L-8.259 4.486-4.211 14.507C-3.33 16.681-2.973 16.93-.163 16.93H2.672V-.028C.992-.028 .442-.028 0 0" fill="#05b48d"/>
<path transform="matrix(1,0,0,-1,135.6611,64.3485)" d="M0 0-2.12-5.479H2.146ZM6.607-12.03C4.347-11.92 4.183-10.709 3.524-9.086H-3.496C-4.846-12.58-5.231-12.058-9.692-12.058L-3.582 2.615C-2.753 4.652-2.37 4.9 0 4.9H2.533L9.744-12.058C7.623-12.058 7.047-12.058 6.607-12.03" fill="#05b48d"/>
<path transform="matrix(1,0,0,-1,156.5798,76.4614)" d="M0 0C-7.021 0-8.699 4.074-8.699 8.506-8.699 12.938-6.994 17.013-.028 17.013H5.56C5.56 14.286 5.946 13.131 2.393 13.131H0C-3.911 13.131-3.911 13.076-3.911 8.506-3.911 5.505-3.194 3.854-.028 3.854H2.229C5.202 3.854 5.56 3.467 5.56 0Z" fill="#05b48d"/>
<path transform="matrix(1,0,0,-1,176.8374,71.1762)" d="M0 0V-5.23C-1.02-5.23-3.276-5.396-4.1-4.79-4.625-4.434-4.871-3.743-4.871-2.258V0L-11.893 11.728C-8.754 11.728-7.791 11.728-7.102 11.399-6.249 10.984-5.809 10.158-5.421 9.417L-2.395 3.716 1.239 10.132C1.982 11.342 2.617 11.616 4.131 11.672 4.679 11.728 5.45 11.728 7.322 11.728Z" fill="#05b48d"/>
<path transform="matrix(1,0,0,-1,25.7853,36.310304)" d="M0 0H8.476L4.237 13.017H4.136ZM-10.795-12.304 .912 20.94H9.033L20.786-12.304V-14.372H13.171L10.242-5.393H-1.663L-4.484-14.372H-10.795Z" fill="#144d93"/>
<path transform="matrix(1,0,0,-1,48.7572,48.810205)" d="M0 0V5.441H2.319C3.537 4.329 5.75 3.219 8.826 3.219 11.813 3.219 13.369 4.03 13.369 5.692 13.369 7.303 12.414 8.066 8.676 8.523 2.875 9.223-.201 11.394-.201 16.589-.201 21.939 3.787 24.915 10.293 24.915 14.132 24.915 16.489 24.155 18.609 23.101V17.754H16.398C15.19 18.659 13.071 19.514 10.349 19.514 7.461 19.514 6.358 18.659 6.358 17.15 6.358 15.783 7.666 15.076 11.301 14.621 17.602 13.815 20.231 11.744 20.231 6.398 20.231 1.2 16.852-2.175 9.181-2.175 4.848-2.175 2.066-1.168 0 0" fill="#144d93"/>
<path transform="matrix(1,0,0,-1,69.8336,24.2005)" d="M0 0H3.127V7.067H10.49V0H15.843V-4.942H10.49V-18.513C10.49-21.037 11.497-21.738 13.918-21.738H15.939V-26.179C14.833-26.538 13.365-26.885 11.298-26.885 6.207-26.885 3.127-24.865 3.127-19.371V-4.942H0Z" fill="#144d93"/>
<path transform="matrix(1,0,0,-1,94.2082,34.640207)" d="M0 0H9.883C9.738 4.696 8.113 6.201 5.236 6.201 2.667 6.201 .561 4.945 0 0M-.103-4.443C.256-9.736 2.773-11.204 6.861-11.204 9.828-11.204 12.152-10.24 13.871-8.978H16.143V-13.825C14.023-15.04 11.047-16.395 5.753-16.395-2.927-16.395-7.669-11.248-7.669-2.926-7.669 5.601-2.116 10.846 5.236 10.846 13.011 10.846 17.154 6.555 17.154-2.169 17.154-3.077 17.047-4.186 17.047-4.443Z" fill="#144d93"/>
<path transform="matrix(1,0,0,-1,122.2844,31.5652)" d="M0 0V-19.118H-7.366V7.365H-2.364C-1.112 7.365-.352 6.812-.101 4.187 1.566 5.956 3.993 7.618 7.268 7.618 7.827 7.618 8.38 7.521 8.882 7.365V1.563H7.622C3.993 1.563 1.417 .758 0 0" fill="#144d93"/>
<path transform="matrix(1,0,0,-1,23.0641,93.76221)" d="M0 0H-.431L-2.322 8.244H-3.274L-5.178 0H-5.609L-7.252 8.347H-8.073L-6.209-.717H-4.591L-2.804 7.239-1.017-.717H.6L2.466 8.347H1.644Z" fill="#4f5353"/>
<path transform="matrix(1,0,0,-1,27.1694,90.8929)" d="M0 0C0 1.735 .704 2.388 1.892 2.388 3.117 2.388 3.678 1.761 3.678 0ZM1.892 3.066C.3 3.066-.797 2.165-.797-.351-.797-2.53-.209-3.705 1.734-3.717 2.751-3.717 4.226-3.534 4.226-3.534L4.2-2.895C4.2-2.895 2.765-3.013 1.812-3.013 .443-3.013 0-2.192 0-.652H4.434L4.46-.025C4.46 2.165 3.574 3.066 1.892 3.066" fill="#4f5353"/>
<path transform="matrix(1,0,0,-1,32.8398,87.919307)" d="M0 0H.626L1.382 2.753H.548Z" fill="#4f5353"/>
<path transform="matrix(1,0,0,-1,0,110.551)" d="M35.851 16.071H36.621004V25.487999H35.851Z" fill="#4f5353"/>
<path transform="matrix(1,0,0,-1,0,110.551)" d="M38.733 16.071H39.502004V25.487999H38.733Z" fill="#4f5353"/>
<path transform="matrix(1,0,0,-1,50.117,85.4148)" d="M0 0H-6.522V-.73H-3.651V-9.065H-2.842V-.73H0Z" fill="#4f5353"/>
<path transform="matrix(1,0,0,-1,50.8061,87.9578)" d="M0 0H-.77V-6.522H0V-1.631C0-1.631 1.213-.913 2.466-.652V.131C1.135-.118 0-.939 0-.939Z" fill="#4f5353"/>
<path transform="matrix(1,0,0,-1,54.7968,90.8929)" d="M0 0C0 1.735 .704 2.388 1.892 2.388 3.117 2.388 3.678 1.761 3.678 0ZM1.892 3.066C.3 3.066-.797 2.165-.797-.351-.797-2.53-.209-3.705 1.734-3.717 2.751-3.717 4.225-3.534 4.225-3.534L4.2-2.895C4.2-2.895 2.765-3.013 1.811-3.013 .443-3.013 0-2.192 0-.652H4.434L4.46-.025C4.46 2.165 3.574 3.066 1.892 3.066" fill="#4f5353"/>
<path transform="matrix(1,0,0,-1,64.5757,93.4884)" d="M0 0C0 0-1.187-.457-2.244-.457-2.96-.457-3.326 .026-3.326 .861-3.326 1.644-3 2.061-2.126 2.139L0 2.361ZM.77 .091V3.587C.77 4.97 .169 5.661-1.253 5.661-2.348 5.661-3.783 5.387-3.783 5.387L-3.742 4.762C-3.742 4.762-2.217 4.956-1.279 4.956-.443 4.956 0 4.578 0 3.587V2.974L-2.217 2.752C-3.535 2.622-4.135 2.048-4.135 .848-4.135-.457-3.496-1.122-2.348-1.122-1.122-1.122 .105-.588 .105-.588 .457-.979 .939-1.109 1.579-1.109L1.618-.482C1.188-.431 .809-.3 .77 .091" fill="#4f5353"/>
<path transform="matrix(1,0,0,-1,69.5285,93.91901)" d="M0 0C-.939 0-1.043 .418-1.043 2.047V5.27H1.135V5.961H-1.043V8.009H-1.826V5.961H-2.79V5.27H-1.826V1.656C-1.826-.222-1.355-.705-.064-.705 .392-.705 1.253-.573 1.253-.573L1.2 .092C1.2 .092 .366 0 0 0" fill="#4f5353"/>
<path transform="matrix(1,0,0,-1,79.6612,85.4148)" d="M0 0-2.4-4.395-4.813 0H-5.713L-2.804-5.229V-9.065H-1.996V-5.229L.914 0Z" fill="#4f5353"/>
<path transform="matrix(1,0,0,-1,83.2579,93.919307)" d="M0 0C-1.695 0-1.93 .797-1.93 2.792-1.93 4.748-1.499 5.402 0 5.402 1.487 5.402 1.931 4.748 1.931 2.792 1.931 .797 1.683 0 0 0M0 6.093C-2.021 6.093-2.74 5.101-2.74 2.792-2.74 .327-2.191-.691 0-.691 2.178-.691 2.726 .327 2.726 2.792 2.726 5.101 2.009 6.093 0 6.093" fill="#4f5353"/>
<path transform="matrix(1,0,0,-1,91.7851,93.35741)" d="M0 0C0 0-.886-.548-1.917-.548-3.221-.548-3.417 .065-3.417 2.008V5.4H-4.187V1.995C-4.187-.443-3.821-1.253-2.008-1.253-1.004-1.253 0-.64 0-.64V-1.122H.77V5.4H0Z" fill="#4f5353"/>
<path transform="matrix(1,0,0,-1,104.9036,93.76221)" d="M0 0H-.431L-2.322 8.244H-3.274L-5.178 0H-5.609L-7.252 8.347H-8.073L-6.209-.717H-4.59L-2.804 7.239-1.017-.717H.6L2.466 8.347H1.644Z" fill="#4f5353"/>
<path transform="matrix(1,0,0,-1,109.0089,90.8929)" d="M0 0C0 1.735 .704 2.388 1.891 2.388 3.117 2.388 3.678 1.761 3.678 0ZM1.891 3.066C.3 3.066-.797 2.165-.797-.351-.797-2.53-.209-3.705 1.734-3.717 2.751-3.717 4.225-3.534 4.225-3.534L4.199-2.895C4.199-2.895 2.765-3.013 1.811-3.013 .442-3.013 0-2.192 0-.652H4.434L4.46-.025C4.46 2.165 3.574 3.066 1.891 3.066" fill="#4f5353"/>
<path transform="matrix(1,0,0,-1,0,110.551)" d="M115.149 16.071H115.918V25.487999H115.149Z" fill="#4f5353"/>
<path transform="matrix(1,0,0,-1,0,110.551)" d="M118.031 16.071H118.799999V25.487999H118.031Z" fill="#4f5353"/>
</g>
</g>
</svg>
