<svg xmlns="http://www.w3.org/2000/svg" width="35.717" height="15.651" viewBox="0 0 35.717 15.651">
  <path id="Icon_ionic-ios-arrow-round-forward" data-name="Icon ionic-ios-arrow-round-forward" d="M3.377,11.551a1.065,1.065,0,0,1,.008,1.5l-4.956,4.964H29.54a1.06,1.06,0,0,1,0,2.119h-31.1L3.393,25.1a1.073,1.073,0,0,1-.008,1.5,1.055,1.055,0,0,1-1.492-.008l-6.717-6.766h0a1.19,1.19,0,0,1-.22-.334,1.011,1.011,0,0,1-.082-.408,1.062,1.062,0,0,1,.3-.742l6.717-6.766A1.038,1.038,0,0,1,3.377,11.551Z" transform="translate(5.125 -11.252)" fill="#00b48d"/>
</svg>
